<?xml version="1.0" encoding="utf-8"?>
<!-- Generator: Adobe Illustrator 17.1.0, SVG Export Plug-In . SVG Version: 6.00 Build 0)  -->
<!DOCTYPE svg PUBLIC "-//W3C//DTD SVG 1.1 Tiny//EN" "http://www.w3.org/Graphics/SVG/1.1/DTD/svg11-tiny.dtd">
<svg version="1.1" baseProfile="tiny" id="Layer_1" xmlns="http://www.w3.org/2000/svg" xmlns:xlink="http://www.w3.org/1999/xlink"
	 x="0px" y="0px" width="528px" height="151px" viewBox="0 0 528 151" xml:space="preserve">
<path fill="#FFFFFF" d="M106,34.3c0-1.3,1-2.3,2.3-2.3h275c1.3,0,2.3,1,2.3,2.3v49.5c0,1.3-1,2.3-2.3,2.3h-275c-1.3,0-2.3-1-2.3-2.3
	V34.3z"/>
<path fill="none" stroke="#010101" stroke-width="0.9" stroke-miterlimit="10" d="M106,34.3c0-1.3,1-2.3,2.3-2.3h275
	c1.3,0,2.3,1,2.3,2.3v49.5c0,1.3-1,2.3-2.3,2.3h-275c-1.3,0-2.3-1-2.3-2.3V34.3z"/>
<path fill="#010101" d="M113.8,13.6c-0.2-2-5.1-2.2-5.2,0.1c0.6,3.1,6.6,0.6,6.8,5c0.1,3.2-5,3.6-7.3,2.3c-0.7-0.4-1.2-1.1-1.4-1.9
	l1.4-0.3c0.2,2.3,5.9,2.6,5.9,0c0-3.2-6.5-0.6-6.7-4.9c-0.2-3.4,6-3.5,7.5-1.4c0.2,0.3,0.3,0.7,0.5,1"/>
<path fill="#010101" d="M121.9,20.5c2.6,0,3.7-1.7,3.7-4.2c0-2.5-1.2-4.1-3.7-4.1c-2.5,0-3.7,1.6-3.7,4.1
	C118.2,18.8,119.4,20.4,121.9,20.5 M121.9,11c3.4,0,5.1,1.9,5.1,5.2c0,3.3-1.8,5.4-5.1,5.4c-3.4,0-5.1-2-5.1-5.4
	C116.8,12.9,118.5,11,121.9,11z"/>
<polyline fill="#010101" points="138.8,21.5 137.1,21.5 134.8,12.7 132.5,21.5 130.9,21.5 127.8,11.1 129.3,11.1 131.7,20.2 
	132.4,17.6 134.1,11.1 135.5,11.1 137.9,20.2 140.4,11.1 141.8,11.1 "/>
<path fill="#E6E6E5" d="M106,34.3c0-1.3,1-2.3,2.3-2.3h275c1.3,0,2.3,1,2.3,2.3v13.5c0,1.3-1,2.3-2.3,2.3h-275c-1.3,0-2.3-1-2.3-2.3
	V34.3z"/>
<path fill="none" stroke="#010101" stroke-width="0.9" stroke-miterlimit="10" d="M106,34.3c0-1.3,1-2.3,2.3-2.3h275
	c1.3,0,2.3,1,2.3,2.3v13.5c0,1.3-1,2.3-2.3,2.3h-275c-1.3,0-2.3-1-2.3-2.3V34.3z"/>
<path fill="#010101" d="M109.6,40.9c1.7,0.3-0.2,3.5,1.7,3.3v0.5c-1,0.1-1.6-0.2-1.6-1.2c0-1,0.2-2.4-0.9-2.4v-0.5
	c1.8,0.1-0.2-3.6,1.9-3.5h0.5v0.5C109.4,37.3,111.2,40.6,109.6,40.9"/>
<path fill="#010101" d="M112.4,39.2h-0.6l-0.1-1.8h0.7 M113.9,39.2h-0.6l-0.1-1.8h0.7L113.9,39.2z"/>
<path fill="#010101" d="M116.5,42.5c1,0,1.2-0.7,1.2-1.7c0-1-0.2-1.7-1.1-1.7s-1.2,0.7-1.2,1.7C115.3,41.8,115.6,42.5,116.5,42.5
	 M116.5,38.6c1.4,0,1.9,0.8,1.9,2.2c0,1.4-0.6,2.2-1.9,2.2s-1.9-0.9-1.9-2.2C114.6,39.4,115.2,38.6,116.5,38.6z"/>
<path fill="#010101" d="M121.3,39.3c-1.8-0.4-1.2,2-1.3,3.7h-0.7l0-4.3h0.7c0,0.3,0,0.7,0,0.9c0.1-0.6,0.5-1.1,1.3-0.9V39.3"/>
<path fill="#010101" d="M123.5,39.2c-0.9,0-1,0.8-1,1.7c0,0.9,0.1,1.7,1,1.7c0.9,0,1.1-0.7,1.1-1.7
	C124.7,39.9,124.5,39.1,123.5,39.2 M123.3,38.6c0.7,0,1.1,0.3,1.4,0.7l0-2.3h0.7l0,5.9h-0.7c0-0.2,0-0.5-0.1-0.7
	c-0.2,0.5-0.6,0.8-1.3,0.8c-1.2,0-1.6-0.9-1.6-2.2C121.8,39.4,122.3,38.6,123.3,38.6z"/>
<path fill="#010101" d="M129.4,40.4c0.1-1.3-1.7-1.7-2.2-0.6c-0.1,0.2-0.1,0.4-0.1,0.6H129.4 M128.2,38.6c1.4,0,1.9,0.9,1.9,2.4h-3
	c0,0.9,0.3,1.5,1.2,1.5c0.6,0,1-0.3,1.1-0.7l0.6,0.2c-0.2,0.6-0.8,1-1.7,1c-1.3,0-2-0.8-2-2.3C126.3,39.4,126.9,38.6,128.2,38.6z"/>
<path fill="#010101" d="M133,39.3c-1.8-0.4-1.2,2-1.3,3.7H131l0-4.3h0.7c0,0.3,0,0.7,0,0.9c0.1-0.6,0.5-1.1,1.3-0.9V39.3"/>
<path fill="#010101" d="M134.1,39.2h-0.6l-0.1-1.8h0.7 M135.6,39.2H135l-0.1-1.8h0.7L135.6,39.2z"/>
<path fill="#010101" d="M136.7,43v-0.8h0.8V43H136.7 M136.7,39.5v-0.8h0.8v0.8H136.7z"/>
<polyline fill="#010101" points="138.8,43 138.8,42.4 140.3,42.4 140.3,38.1 139,39 139,38.3 140.3,37.4 141,37.4 141,42.4 
	142.3,42.4 142.3,43 138.8,43 "/>
<path fill="#010101" d="M144.3,42.1c0,0.8,0,1.5-0.3,1.9h-0.5c0.2-0.3,0.4-0.6,0.4-1h-0.4v-0.9H144.3"/>
<path fill="#010101" d="M146,39.2h-0.6l-0.1-1.8h0.7 M147.4,39.2h-0.6l-0.1-1.8h0.7L147.4,39.2z"/>
<path fill="#010101" d="M150,39.2c-0.9,0-1.1,0.7-1.1,1.6s0.2,1.7,1.1,1.7c0.5,0,0.9-0.3,1-0.9l0.7,0c-0.1,0.8-0.7,1.4-1.7,1.4
	c-1.3,0-1.7-0.9-1.8-2.2c-0.2-2.1,2.3-2.9,3.3-1.4c0.1,0.2,0.1,0.3,0.2,0.5l-0.7,0.1C150.8,39.5,150.5,39.2,150,39.2"/>
<path fill="#010101" d="M153.8,43.1c-2,0.1-1.2-2.6-1.4-4.4h0.7v2.7c0,0.7,0.2,1.1,0.9,1.1c1.6,0,1-2.3,1.1-3.8h0.7l0,4.3h-0.7
	c0-0.2,0-0.6,0-0.7C154.9,42.7,154.5,43,153.8,43.1"/>
<path fill="#010101" d="M159.4,39.8c-0.1-0.8-1.9-0.9-2,0c0.3,1.2,2.6,0.3,2.7,2c0.1,1.8-3.4,1.7-3.5,0.2l0.6-0.1
	c0.1,0.8,2.2,1,2.2,0c-0.2-1.3-2.5-0.3-2.7-2c-0.1-1.3,1.8-1.4,2.7-0.9c0.3,0.2,0.5,0.4,0.5,0.8"/>
<path fill="#010101" d="M161.8,41.9c0,0.5,0.4,0.7,0.9,0.5V43c-0.7,0.2-1.6,0.1-1.6-0.9v-2.9h-0.5v-0.5h0.5l0.2-1h0.5v1h0.8v0.5
	h-0.8V41.9"/>
<path fill="#010101" d="M164.9,42.5c1,0,1.2-0.7,1.2-1.7c0-1-0.2-1.7-1.1-1.7s-1.2,0.7-1.2,1.7C163.8,41.8,164,42.5,164.9,42.5
	 M164.9,38.6c1.4,0,1.9,0.8,1.9,2.2c0,1.4-0.6,2.2-1.9,2.2s-1.9-0.9-1.9-2.2C163,39.4,163.6,38.6,164.9,38.6z"/>
<path fill="#010101" d="M171.9,39.2c-1.5,0.1-0.9,2.4-1,3.8h-0.7v-2.7c0-0.7-0.1-1.1-0.8-1.1c-1.5,0.1-0.9,2.3-1,3.8h-0.7l0-4.3h0.7
	c0,0.2,0,0.5,0,0.7c0.2-1,2.2-1.1,2.4,0c0.2-0.5,0.6-0.8,1.3-0.8c1.9,0,1.1,2.7,1.2,4.4h-0.7v-2.7C172.7,39.6,172.6,39.2,171.9,39.2
	"/>
<path fill="#010101" d="M177.3,40.4c0.1-1.3-1.7-1.7-2.2-0.6c-0.1,0.2-0.1,0.4-0.1,0.6H177.3 M176.2,38.6c1.4,0,1.9,0.9,1.9,2.4h-3
	c0,0.9,0.3,1.5,1.2,1.5c0.6,0,1-0.3,1.1-0.7l0.6,0.2c-0.2,0.6-0.8,1-1.7,1c-1.3,0-2-0.8-2-2.3C174.3,39.4,174.8,38.6,176.2,38.6z"/>
<path fill="#010101" d="M181,39.3c-1.8-0.4-1.2,2-1.3,3.7H179l0-4.3h0.7c0,0.3,0,0.7,0,0.9c0.1-0.6,0.5-1.1,1.3-0.9V39.3"/>
<path fill="#010101" d="M182.1,39.2h-0.6l-0.1-1.8h0.7 M183.5,39.2H183l-0.1-1.8h0.7L183.5,39.2z"/>
<path fill="#010101" d="M184.7,43v-0.8h0.8V43H184.7 M184.7,39.5v-0.8h0.8v0.8H184.7z"/>
<path fill="#010101" d="M187.2,39.2h-0.6l-0.1-1.8h0.7 M188.6,39.2h-0.6l-0.1-1.8h0.7L188.6,39.2z"/>
<path fill="#010101" d="M192.5,37.4c-0.2,2.3,0.8,5.7-1.6,5.7c-1,0-1.5-0.6-1.7-1.5l0.7-0.1c0.1,0.6,0.4,0.9,1,1
	c0.6,0,0.9-0.5,0.9-1.1V38h-1.1v-0.6H192.5"/>
<path fill="#010101" d="M194.2,41.8c0,0.4,0.3,0.7,0.7,0.7c0.9-0.1,1.4-0.7,1.4-1.7C195.3,40.9,194.2,40.8,194.2,41.8 M196.3,42.2
	c-0.3,0.5-0.7,0.9-1.5,0.9c-0.8,0-1.3-0.5-1.3-1.3c0-1.4,1.4-1.4,2.8-1.4c0.1-0.8-0.2-1.2-0.9-1.2c-0.5,0-0.9,0.2-0.9,0.7l-0.7-0.1
	c0.1-0.8,0.7-1.2,1.7-1.2c1,0,1.6,0.5,1.6,1.4v1.8c0,0.4,0.2,0.7,0.6,0.6V43C196.9,43.2,196.2,42.9,196.3,42.2z"/>
<path fill="#010101" d="M199.8,39.2c-0.9,0-1.1,0.7-1.1,1.6s0.2,1.7,1.1,1.7c0.5,0,0.9-0.3,1-0.9l0.7,0c-0.1,0.8-0.7,1.4-1.7,1.4
	c-1.3,0-1.7-0.9-1.8-2.2c-0.2-2.1,2.3-2.9,3.3-1.4c0.1,0.2,0.1,0.3,0.2,0.5l-0.7,0.1C200.6,39.5,200.3,39.2,199.8,39.2"/>
<polyline fill="#010101" points="204.9,43 203.4,41 202.9,41.5 202.9,43 202.2,43 202.2,37.1 202.9,37.1 202.9,40.8 204.8,38.7 
	205.6,38.7 203.9,40.6 205.7,43 204.9,43 "/>
<path fill="#010101" d="M208.7,39.8c-0.1-0.8-1.9-0.9-2,0c0.3,1.2,2.6,0.3,2.7,2c0.1,1.8-3.4,1.7-3.5,0.2l0.6-0.1
	c0.1,0.8,2.2,1,2.2,0c-0.2-1.3-2.5-0.3-2.7-2c-0.1-1.3,1.8-1.4,2.7-0.9c0.3,0.2,0.5,0.4,0.5,0.8"/>
<path fill="#010101" d="M212,42.5c1,0,1.2-0.7,1.2-1.7c0-1-0.2-1.7-1.1-1.7s-1.2,0.7-1.2,1.7C210.8,41.8,211.1,42.5,212,42.5
	 M212,38.6c1.4,0,1.9,0.8,1.9,2.2c0,1.4-0.6,2.2-1.9,2.2s-1.9-0.9-1.9-2.2C210.1,39.4,210.7,38.6,212,38.6z"/>
<path fill="#010101" d="M216.9,38.6c2-0.1,1.2,2.6,1.3,4.4h-0.7v-2.7c0-0.7-0.2-1.1-0.9-1.1c-1.6,0-1,2.3-1.1,3.8h-0.7l0-4.3h0.7
	c0,0.2,0,0.5,0,0.7C215.8,38.9,216.2,38.6,216.9,38.6"/>
<path fill="#010101" d="M219.7,39.2h-0.6l-0.1-1.8h0.7 M221.2,39.2h-0.6l-0.1-1.8h0.7L221.2,39.2z"/>
<path fill="#010101" d="M223.1,42.1c0,0.8,0,1.5-0.3,1.9h-0.5c0.2-0.3,0.4-0.6,0.4-1h-0.4v-0.9H223.1"/>
<path fill="#010101" d="M224.8,39.2h-0.6l-0.1-1.8h0.7 M226.3,39.2h-0.6l-0.1-1.8h0.7L226.3,39.2z"/>
<path fill="#010101" d="M229.7,39.8c-0.1-0.8-1.9-0.9-2,0c0.3,1.2,2.6,0.3,2.7,2c0.1,1.8-3.4,1.7-3.5,0.2l0.6-0.1
	c0.1,0.8,2.2,1,2.2,0c-0.2-1.3-2.5-0.3-2.7-2c-0.1-1.3,1.8-1.4,2.7-0.9c0.3,0.2,0.5,0.4,0.5,0.8"/>
<path fill="#010101" d="M232.1,41.9c0,0.5,0.4,0.7,0.9,0.5V43c-0.7,0.2-1.6,0.1-1.6-0.9v-2.9h-0.5v-0.5h0.5l0.2-1h0.5v1h0.8v0.5
	h-0.8V41.9"/>
<path fill="#010101" d="M234.1,41.8c0,0.4,0.3,0.7,0.7,0.7c0.9-0.1,1.4-0.7,1.4-1.7C235.2,40.9,234.1,40.8,234.1,41.8 M236.2,42.2
	c-0.3,0.5-0.7,0.9-1.5,0.9c-0.8,0-1.3-0.5-1.3-1.3c0-1.4,1.4-1.4,2.8-1.4c0.1-0.8-0.2-1.2-0.9-1.2c-0.5,0-0.9,0.2-0.9,0.7l-0.7-0.1
	c0.1-0.8,0.7-1.2,1.7-1.2c1,0,1.6,0.5,1.6,1.4v1.8c0,0.4,0.2,0.7,0.6,0.6V43C236.8,43.2,236.1,42.9,236.2,42.2z"/>
<path fill="#010101" d="M238.8,41.9c0,0.5,0.4,0.7,0.9,0.5V43c-0.7,0.2-1.6,0.1-1.6-0.9v-2.9h-0.5v-0.5h0.5l0.2-1h0.5v1h0.8v0.5
	h-0.8V41.9"/>
<path fill="#010101" d="M241.7,43.1c-2,0.1-1.2-2.6-1.4-4.4h0.7v2.7c0,0.7,0.2,1.1,0.9,1.1c1.6,0,1-2.3,1.1-3.8h0.7l0,4.3H243
	c0-0.2,0-0.6,0-0.7C242.8,42.7,242.4,43,241.7,43.1"/>
<path fill="#010101" d="M247.3,39.8c-0.1-0.8-1.9-0.9-2,0c0.3,1.2,2.6,0.3,2.7,2c0.1,1.8-3.4,1.7-3.5,0.2l0.6-0.1
	c0.1,0.8,2.2,1,2.2,0c-0.2-1.3-2.5-0.3-2.7-2c-0.1-1.3,1.8-1.4,2.7-0.9c0.3,0.2,0.5,0.4,0.5,0.8"/>
<path fill="#010101" d="M249.3,39.2h-0.6l-0.1-1.8h0.7 M250.8,39.2h-0.6l-0.1-1.8h0.7L250.8,39.2z"/>
<path fill="#010101" d="M251.9,43v-0.8h0.8V43H251.9 M251.9,39.5v-0.8h0.8v0.8H251.9z"/>
<path fill="#010101" d="M254.4,39.2h-0.6l-0.1-1.8h0.7 M255.9,39.2h-0.6l-0.1-1.8h0.7L255.9,39.2z"/>
<path fill="#010101" d="M257.4,41.8c0,0.4,0.3,0.7,0.7,0.7c0.9-0.1,1.4-0.7,1.4-1.7C258.5,40.9,257.4,40.8,257.4,41.8 M259.4,42.2
	c-0.3,0.5-0.7,0.9-1.5,0.9c-0.8,0-1.3-0.5-1.3-1.3c0-1.4,1.4-1.4,2.8-1.4c0.1-0.8-0.2-1.2-0.9-1.2c-0.5,0-0.9,0.2-0.9,0.7l-0.7-0.1
	c0.1-0.8,0.7-1.2,1.7-1.2c1,0,1.6,0.5,1.6,1.4v1.8c0,0.4,0.2,0.7,0.6,0.6V43C260.1,43.2,259.4,42.9,259.4,42.2z"/>
<path fill="#010101" d="M262.9,39.2c-0.9,0-1.1,0.7-1.1,1.6s0.2,1.7,1.1,1.7c0.5,0,0.9-0.3,1-0.9l0.7,0c-0.1,0.8-0.7,1.4-1.7,1.4
	c-1.3,0-1.7-0.9-1.8-2.2c-0.2-2.1,2.3-2.9,3.3-1.4c0.1,0.2,0.1,0.3,0.2,0.5l-0.7,0.1C263.8,39.5,263.5,39.2,262.9,39.2"/>
<path fill="#010101" d="M266.2,41.9c0,0.5,0.4,0.7,0.9,0.5V43c-0.7,0.2-1.6,0.1-1.6-0.9v-2.9h-0.5v-0.5h0.5l0.2-1h0.5v1h0.8v0.5
	h-0.8V41.9"/>
<path fill="#010101" d="M267.6,43v-4.3h0.7V43H267.6 M267.6,37.8v-0.7h0.7v0.7H267.6z"/>
<polyline fill="#010101" points="271.3,43 270.4,43 268.9,38.7 269.6,38.7 270.9,42.4 272.1,38.7 272.9,38.7 "/>
<path fill="#010101" d="M276.3,40.4c0.1-1.3-1.7-1.7-2.2-0.6c-0.1,0.2-0.1,0.4-0.1,0.6H276.3 M275.2,38.6c1.4,0,1.9,0.9,1.9,2.4h-3
	c0,0.9,0.3,1.5,1.2,1.5c0.6,0,1-0.3,1.1-0.7l0.6,0.2c-0.2,0.6-0.8,1-1.7,1c-1.3,0-2-0.8-2-2.3C273.3,39.4,273.8,38.6,275.2,38.6z"/>
<path fill="#010101" d="M278.4,39.2h-0.6l-0.1-1.8h0.7 M279.9,39.2h-0.6l-0.1-1.8h0.7L279.9,39.2z"/>
<path fill="#010101" d="M281.8,42.1c0,0.8,0,1.5-0.3,1.9H281c0.2-0.3,0.4-0.6,0.4-1H281v-0.9H281.8"/>
<path fill="#010101" d="M283.5,39.2h-0.6l-0.1-1.8h0.7 M285,39.2h-0.6l-0.1-1.8h0.7L285,39.2z"/>
<path fill="#010101" d="M287.5,42.5c0.9,0,1.1-0.7,1.1-1.7c0-1-0.2-1.6-1.1-1.6c-0.9,0-1,0.8-1,1.7
	C286.4,41.7,286.6,42.5,287.5,42.5 M288.6,42.3c-0.2,0.5-0.7,0.8-1.4,0.8c-1.2,0-1.6-0.9-1.6-2.2c0-1.3,0.4-2.2,1.6-2.3
	c0.7,0,1.1,0.3,1.4,0.7c0-0.2,0-0.5,0-0.7h0.7l0,6h-0.7L288.6,42.3z"/>
<path fill="#010101" d="M291.2,41.9c0,0.5,0.4,0.7,0.9,0.5V43c-0.7,0.2-1.6,0.1-1.6-0.9v-2.9H290v-0.5h0.5l0.2-1h0.5v1h0.8v0.5h-0.8
	V41.9"/>
<path fill="#010101" d="M296.1,38.7l-1.9,5c-0.3,0.6-0.8,1.1-1.8,0.9v-0.5c0.9,0.1,1.2-0.4,1.4-1.1l-1.7-4.3h0.8l1.3,3.5l1.2-3.5
	H296.1"/>
<path fill="#010101" d="M297.2,39.2h-0.6l-0.1-1.8h0.7 M298.6,39.2h-0.6l-0.1-1.8h0.7L298.6,39.2z"/>
<path fill="#010101" d="M299.8,43v-0.8h0.8V43H299.8 M299.8,39.5v-0.8h0.8v0.8H299.8z"/>
<polyline fill="#010101" points="301.9,43 301.9,42.4 303.3,42.4 303.3,38.1 302.1,39 302.1,38.3 303.4,37.4 304,37.4 304,42.4 
	305.4,42.4 305.4,43 301.9,43 "/>
<path fill="#010101" d="M308,42.5c1.1,0,1.2-1.1,1.2-2.3s-0.1-2.3-1.2-2.3c-1.1,0-1.2,1.1-1.2,2.3C306.8,41.4,306.9,42.5,308,42.5
	 M308,37.3c1.5,0,1.9,1.2,1.9,2.9s-0.5,2.9-1.9,2.9c-1.5,0-1.9-1.3-1.9-2.9C306.1,38.5,306.5,37.3,308,37.3z"/>
<path fill="#010101" d="M312.5,42.5c1.1,0,1.2-1.1,1.2-2.3s-0.1-2.3-1.2-2.3c-1.1,0-1.2,1.1-1.2,2.3
	C311.3,41.4,311.4,42.5,312.5,42.5 M312.5,37.3c1.5,0,1.9,1.2,1.9,2.9s-0.5,2.9-1.9,2.9c-1.5,0-1.9-1.3-1.9-2.9
	C310.6,38.5,311,37.3,312.5,37.3z"/>
<path fill="#010101" d="M316.3,42.1c0,0.8,0,1.5-0.3,1.9h-0.5c0.2-0.3,0.4-0.6,0.4-1h-0.4v-0.9H316.3"/>
<path fill="#010101" d="M318,39.2h-0.6l-0.1-1.8h0.7 M319.5,39.2h-0.6l-0.1-1.8h0.7L319.5,39.2z"/>
<path fill="#010101" d="M321.2,41.9c0,0.5,0.4,0.7,0.9,0.5V43c-0.7,0.2-1.6,0.1-1.6-0.9v-2.9H320v-0.5h0.5l0.2-1h0.5v1h0.8v0.5h-0.8
	V41.9"/>
<path fill="#010101" d="M322.7,43v-4.3h0.7V43H322.7 M322.7,37.8v-0.7h0.7v0.7H322.7z"/>
<path fill="#010101" d="M326.1,39.2c-0.9,0-1.1,0.7-1.1,1.6s0.2,1.7,1.1,1.7c0.5,0,0.9-0.3,1-0.9l0.7,0c-0.1,0.8-0.7,1.4-1.7,1.4
	c-1.3,0-1.7-0.9-1.8-2.2c-0.2-2.1,2.3-2.9,3.3-1.4c0.1,0.2,0.1,0.3,0.2,0.5L327,40C326.9,39.5,326.6,39.2,326.1,39.2"/>
<polyline fill="#010101" points="331.2,43 329.7,41 329.2,41.5 329.2,43 328.5,43 328.5,37.1 329.2,37.1 329.2,40.8 331.1,38.7 
	331.9,38.7 330.2,40.6 332,43 331.2,43 "/>
<path fill="#010101" d="M335.4,40.4c0.1-1.3-1.7-1.7-2.2-0.6c-0.1,0.2-0.1,0.4-0.1,0.6H335.4 M334.3,38.6c1.4,0,1.9,0.9,1.9,2.4h-3
	c0,0.9,0.3,1.5,1.2,1.5c0.6,0,1-0.3,1.1-0.7l0.6,0.2c-0.2,0.6-0.8,1-1.7,1c-1.3,0-2-0.8-2-2.3C332.4,39.4,332.9,38.6,334.3,38.6z"/>
<path fill="#010101" d="M339.1,39.3c-1.8-0.4-1.2,2-1.3,3.7h-0.7l0-4.3h0.7c0,0.3,0,0.7,0,0.9c0.1-0.6,0.5-1.1,1.3-0.9V39.3"/>
<path fill="#010101" d="M340.2,39.2h-0.6l-0.1-1.8h0.7 M341.6,39.2h-0.6l-0.1-1.8h0.7L341.6,39.2z"/>
<path fill="#010101" d="M342.8,43v-0.8h0.8V43H342.8 M342.8,39.5v-0.8h0.8v0.8H342.8z"/>
<path fill="#010101" d="M345.3,39.2h-0.6l-0.1-1.8h0.7 M346.7,39.2h-0.6l-0.1-1.8h0.7L346.7,39.2z"/>
<polyline fill="#010101" points="347.9,43 347.9,37.4 348.7,37.4 348.7,43 347.9,43 "/>
<path fill="#010101" d="M350.8,42.4c1.2,0,2.8,0.3,2.8-1c0-1.3-1.6-0.9-2.8-1V42.4 M350.8,39.8c1.1,0,2.5,0.2,2.5-0.9
	c0-1.1-1.4-0.8-2.5-0.8V39.8z M353,40c0.8,0.1,1.4,0.5,1.4,1.4c0,2-2.4,1.5-4.3,1.6v-5.6c1.7,0.1,4-0.4,4,1.3
	C354.1,39.5,353.6,39.9,353,40z"/>
<path fill="#010101" d="M360.2,43l0-4.9c-0.5,1.7-1.2,3.3-1.8,4.9h-0.5l-1.8-4.9l0,4.9h-0.7v-5.6h1l1.7,4.7c0.5-1.7,1.1-3.1,1.7-4.7
	h1V43H360.2"/>
<path fill="#010101" d="M362.5,39.2H362l-0.1-1.8h0.7 M364,39.2h-0.6l-0.1-1.8h0.7L364,39.2z"/>
<path fill="#010101" d="M366.1,42.1c0,1.4,0.2,2.9-1.6,2.6v-0.5c1.8,0.3,0.1-2.9,1.7-3.3c-0.9-0.1-0.8-1.3-0.8-2.4
	c0-0.7-0.2-0.9-0.9-0.9v-0.5c1-0.1,1.6,0.2,1.6,1.2c0,1.1-0.3,2.4,0.9,2.4v0.5C366.4,41.2,366.1,41.5,366.1,42.1"/>
<path fill="#E6E6E5" d="M106,52.3c0-1.3,1-2.3,2.3-2.3h275c1.3,0,2.3,1,2.3,2.3v13.5c0,1.3-1,2.3-2.3,2.3h-275c-1.3,0-2.3-1-2.3-2.3
	V52.3z"/>
<path fill="none" stroke="#010101" stroke-width="0.9" stroke-miterlimit="10" d="M106,52.3c0-1.3,1-2.3,2.3-2.3h275
	c1.3,0,2.3,1,2.3,2.3v13.5c0,1.3-1,2.3-2.3,2.3h-275c-1.3,0-2.3-1-2.3-2.3V52.3z"/>
<path fill="#010101" d="M109.6,58.9c1.7,0.3-0.2,3.5,1.7,3.3v0.5c-1,0.1-1.6-0.2-1.6-1.2c0-1,0.2-2.4-0.9-2.4v-0.5
	c1.8,0.1-0.2-3.6,1.9-3.5h0.5v0.5C109.4,55.3,111.2,58.6,109.6,58.9"/>
<path fill="#010101" d="M112.4,57.2h-0.6l-0.1-1.8h0.7 M113.9,57.2h-0.6l-0.1-1.8h0.7L113.9,57.2z"/>
<path fill="#010101" d="M116.5,60.5c1,0,1.2-0.7,1.2-1.7c0-1-0.2-1.7-1.1-1.7s-1.2,0.7-1.2,1.7S115.6,60.5,116.5,60.5 M116.5,56.6
	c1.4,0,1.9,0.8,1.9,2.2c0,1.4-0.6,2.2-1.9,2.2s-1.9-0.9-1.9-2.2C114.6,57.4,115.2,56.6,116.5,56.6z"/>
<path fill="#010101" d="M121.3,57.3c-1.8-0.4-1.2,2-1.3,3.7h-0.7l0-4.3h0.7c0,0.3,0,0.7,0,0.9c0.1-0.6,0.5-1.1,1.3-0.9V57.3"/>
<path fill="#010101" d="M123.5,57.2c-0.9,0-1,0.8-1,1.7c0,0.9,0.1,1.7,1,1.7c0.9,0,1.1-0.7,1.1-1.7
	C124.7,57.9,124.5,57.1,123.5,57.2 M123.3,56.6c0.7,0,1.1,0.3,1.4,0.7l0-2.3h0.7l0,5.9h-0.7c0-0.2,0-0.5-0.1-0.7
	c-0.2,0.5-0.6,0.8-1.3,0.8c-1.2,0-1.6-0.9-1.6-2.2C121.8,57.4,122.3,56.6,123.3,56.6z"/>
<path fill="#010101" d="M129.4,58.4c0.1-1.4-1.7-1.7-2.2-0.6c-0.1,0.2-0.1,0.4-0.1,0.6H129.4 M128.2,56.6c1.4,0,1.9,0.9,1.9,2.4h-3
	c0,0.9,0.3,1.5,1.2,1.5c0.6,0,1-0.3,1.1-0.7l0.6,0.2c-0.2,0.6-0.8,1-1.7,1c-1.3,0-2-0.8-2-2.3C126.3,57.4,126.9,56.6,128.2,56.6z"/>
<path fill="#010101" d="M133,57.3c-1.8-0.4-1.2,2-1.3,3.7H131l0-4.3h0.7c0,0.3,0,0.7,0,0.9c0.1-0.6,0.5-1.1,1.3-0.9V57.3"/>
<path fill="#010101" d="M134.1,57.2h-0.6l-0.1-1.8h0.7 M135.6,57.2H135l-0.1-1.8h0.7L135.6,57.2z"/>
<path fill="#010101" d="M136.7,61v-0.8h0.8V61H136.7 M136.7,57.5v-0.8h0.8v0.8H136.7z"/>
<path fill="#010101" d="M140.5,55.3c1.8-0.2,2.1,2,1,3l-1.4,1.2c-0.2,0.2-0.5,0.5-0.7,0.8h2.9V61h-3.7c0-2.2,2.9-2.1,2.9-4.1
	c0-0.6-0.4-1-1-1s-1,0.3-1.1,0.9l-0.7-0.1C138.8,55.9,139.4,55.4,140.5,55.3"/>
<path fill="#010101" d="M144.3,60.1c0,0.8,0,1.5-0.3,1.9h-0.5c0.2-0.3,0.4-0.6,0.4-1h-0.4v-0.9H144.3"/>
<path fill="#010101" d="M146,57.2h-0.6l-0.1-1.8h0.7 M147.4,57.2h-0.6l-0.1-1.8h0.7L147.4,57.2z"/>
<path fill="#010101" d="M150,57.2c-0.9,0-1.1,0.7-1.1,1.6c0,0.9,0.2,1.7,1.1,1.7c0.5,0,0.9-0.3,1-0.9l0.7,0
	c-0.1,0.8-0.7,1.4-1.7,1.4c-1.3,0-1.7-0.9-1.8-2.2c-0.2-2.1,2.3-2.9,3.3-1.4c0.1,0.2,0.1,0.3,0.2,0.5l-0.7,0.1
	C150.8,57.5,150.5,57.2,150,57.2"/>
<path fill="#010101" d="M153.8,61.1c-2,0.1-1.2-2.6-1.4-4.4h0.7v2.7c0,0.7,0.2,1.1,0.9,1.1c1.6,0,1-2.3,1.1-3.8h0.7l0,4.3h-0.7
	c0-0.2,0-0.6,0-0.7C154.9,60.7,154.5,61,153.8,61.1"/>
<path fill="#010101" d="M159.4,57.8c-0.1-0.8-1.9-0.9-2,0c0.3,1.2,2.6,0.3,2.7,2c0.1,1.8-3.4,1.7-3.5,0.2l0.6-0.1
	c0.1,0.8,2.2,1,2.2,0c-0.2-1.3-2.5-0.3-2.7-2c-0.1-1.3,1.8-1.4,2.7-0.9c0.3,0.2,0.5,0.4,0.5,0.8"/>
<path fill="#010101" d="M161.8,59.9c0,0.5,0.4,0.7,0.9,0.5V61c-0.7,0.2-1.6,0.1-1.6-0.9v-2.9h-0.5v-0.5h0.5l0.2-1h0.5v1h0.8v0.5
	h-0.8V59.9"/>
<path fill="#010101" d="M164.9,60.5c1,0,1.2-0.7,1.2-1.7c0-1-0.2-1.7-1.1-1.7s-1.2,0.7-1.2,1.7S164,60.5,164.9,60.5 M164.9,56.6
	c1.4,0,1.9,0.8,1.9,2.2c0,1.4-0.6,2.2-1.9,2.2s-1.9-0.9-1.9-2.2C163,57.4,163.6,56.6,164.9,56.6z"/>
<path fill="#010101" d="M171.9,57.2c-1.5,0.1-0.9,2.4-1,3.8h-0.7v-2.7c0-0.7-0.1-1.1-0.8-1.1c-1.5,0.1-0.9,2.3-1,3.8h-0.7l0-4.3h0.7
	c0,0.2,0,0.5,0,0.7c0.2-1,2.2-1.1,2.4,0c0.2-0.5,0.6-0.8,1.3-0.8c1.9,0,1.1,2.7,1.2,4.4h-0.7v-2.7C172.7,57.6,172.6,57.2,171.9,57.2
	"/>
<path fill="#010101" d="M177.3,58.4c0.1-1.4-1.7-1.7-2.2-0.6c-0.1,0.2-0.1,0.4-0.1,0.6H177.3 M176.2,56.6c1.4,0,1.9,0.9,1.9,2.4h-3
	c0,0.9,0.3,1.5,1.2,1.5c0.6,0,1-0.3,1.1-0.7l0.6,0.2c-0.2,0.6-0.8,1-1.7,1c-1.3,0-2-0.8-2-2.3C174.3,57.4,174.8,56.6,176.2,56.6z"/>
<path fill="#010101" d="M181,57.3c-1.8-0.4-1.2,2-1.3,3.7H179l0-4.3h0.7c0,0.3,0,0.7,0,0.9c0.1-0.6,0.5-1.1,1.3-0.9V57.3"/>
<path fill="#010101" d="M182.1,57.2h-0.6l-0.1-1.8h0.7 M183.5,57.2H183l-0.1-1.8h0.7L183.5,57.2z"/>
<path fill="#010101" d="M184.7,61v-0.8h0.8V61H184.7 M184.7,57.5v-0.8h0.8v0.8H184.7z"/>
<path fill="#010101" d="M187.2,57.2h-0.6l-0.1-1.8h0.7 M188.6,57.2h-0.6l-0.1-1.8h0.7L188.6,57.2z"/>
<path fill="#010101" d="M190.5,58.2c1.3,0,2.8,0.2,2.8-1.1c0-1.3-1.5-1.1-2.8-1.1V58.2 M189.7,55.4c2,0,4.3-0.3,4.3,1.7
	c0,1.8-1.7,1.8-3.6,1.7V61h-0.7V55.4z"/>
<path fill="#010101" d="M195.5,59.8c0,0.4,0.3,0.7,0.7,0.7c0.9-0.1,1.4-0.7,1.4-1.7C196.6,58.9,195.5,58.8,195.5,59.8 M197.6,60.2
	c-0.3,0.5-0.7,0.9-1.5,0.9c-0.8,0-1.3-0.5-1.3-1.3c0-1.4,1.4-1.4,2.8-1.4c0.1-0.8-0.2-1.2-0.9-1.2c-0.5,0-0.9,0.2-0.9,0.7l-0.7-0.1
	c0.1-0.8,0.7-1.2,1.7-1.2c1,0,1.6,0.5,1.6,1.4v1.8c0,0.5,0.2,0.7,0.6,0.6V61C198.2,61.2,197.6,60.9,197.6,60.2z"/>
<path fill="#010101" d="M200.3,59.9c0,0.5,0.4,0.7,0.9,0.5V61c-0.7,0.2-1.6,0.1-1.6-0.9v-2.9h-0.5v-0.5h0.5l0.2-1h0.5v1h0.8v0.5
	h-0.8V59.9"/>
<path fill="#010101" d="M203.8,57.3c-1.8-0.4-1.2,2-1.3,3.7h-0.7l0-4.3h0.7c0,0.3,0,0.7,0,0.9c0.1-0.6,0.5-1.1,1.3-0.9V57.3"/>
<path fill="#010101" d="M204.4,61v-4.3h0.7V61H204.4 M204.4,55.8v-0.7h0.7v0.7H204.4z"/>
<path fill="#010101" d="M207.8,57.2c-0.9,0-1.1,0.7-1.1,1.6c0,0.9,0.2,1.7,1.1,1.7c0.5,0,0.9-0.3,1-0.9l0.7,0
	c-0.1,0.8-0.7,1.4-1.7,1.4c-1.3,0-1.7-0.9-1.8-2.2c-0.2-2.1,2.3-2.9,3.3-1.4c0.1,0.2,0.1,0.3,0.2,0.5l-0.7,0.1
	C208.6,57.5,208.4,57.2,207.8,57.2"/>
<polyline fill="#010101" points="212.9,61 211.5,59 211,59.5 211,61 210.2,61 210.2,55.1 211,55.1 211,58.8 212.8,56.7 213.7,56.7 
	211.9,58.6 213.8,61 212.9,61 "/>
<path fill="#010101" d="M214.7,57.2h-0.6l-0.1-1.8h0.7 M216.2,57.2h-0.6l-0.1-1.8h0.7L216.2,57.2z"/>
<path fill="#010101" d="M218.1,60.1c0,0.8,0,1.5-0.3,1.9h-0.5c0.2-0.3,0.4-0.6,0.4-1h-0.4v-0.9H218.1"/>
<path fill="#010101" d="M219.8,57.2h-0.6l-0.1-1.8h0.7 M221.3,57.2h-0.6l-0.1-1.8h0.7L221.3,57.2z"/>
<path fill="#010101" d="M224.8,57.8c-0.1-0.8-1.9-0.9-2,0c0.3,1.2,2.6,0.3,2.7,2c0.1,1.8-3.4,1.7-3.5,0.2l0.6-0.1
	c0.1,0.8,2.2,1,2.2,0c-0.2-1.3-2.5-0.3-2.7-2c-0.1-1.3,1.8-1.4,2.7-0.9c0.3,0.2,0.5,0.4,0.5,0.8"/>
<path fill="#010101" d="M227.1,59.9c0,0.5,0.4,0.7,0.9,0.5V61c-0.7,0.2-1.6,0.1-1.6-0.9v-2.9h-0.5v-0.5h0.5l0.2-1h0.5v1h0.8v0.5
	h-0.8V59.9"/>
<path fill="#010101" d="M229.1,59.8c0,0.4,0.3,0.7,0.7,0.7c0.9-0.1,1.4-0.7,1.4-1.7C230.2,58.9,229.1,58.8,229.1,59.8 M231.2,60.2
	c-0.3,0.5-0.7,0.9-1.5,0.9c-0.8,0-1.3-0.5-1.3-1.3c0-1.4,1.4-1.4,2.8-1.4c0.1-0.8-0.2-1.2-0.9-1.2c-0.5,0-0.9,0.2-0.9,0.7l-0.7-0.1
	c0.1-0.8,0.7-1.2,1.7-1.2c1,0,1.6,0.5,1.6,1.4v1.8c0,0.5,0.2,0.7,0.6,0.6V61C231.8,61.2,231.1,60.9,231.2,60.2z"/>
<path fill="#010101" d="M233.8,59.9c0,0.5,0.4,0.7,0.9,0.5V61c-0.7,0.2-1.6,0.1-1.6-0.9v-2.9h-0.5v-0.5h0.5l0.2-1h0.5v1h0.8v0.5
	h-0.8V59.9"/>
<path fill="#010101" d="M236.7,61.1c-2,0.1-1.2-2.6-1.4-4.4h0.7v2.7c0,0.7,0.2,1.1,0.9,1.1c1.6,0,1-2.3,1.1-3.8h0.7l0,4.3h-0.7
	c0-0.2,0-0.6,0-0.7C237.8,60.7,237.4,61,236.7,61.1"/>
<path fill="#010101" d="M242.3,57.8c-0.1-0.8-1.9-0.9-2,0c0.3,1.2,2.6,0.3,2.7,2c0.1,1.8-3.4,1.7-3.5,0.2l0.6-0.1
	c0.1,0.8,2.2,1,2.2,0c-0.2-1.3-2.5-0.3-2.7-2c-0.1-1.3,1.8-1.4,2.7-0.9c0.3,0.2,0.5,0.4,0.5,0.8"/>
<path fill="#010101" d="M244.3,57.2h-0.6l-0.1-1.8h0.7 M245.8,57.2h-0.6l-0.1-1.8h0.7L245.8,57.2z"/>
<path fill="#010101" d="M246.9,61v-0.8h0.8V61H246.9 M246.9,57.5v-0.8h0.8v0.8H246.9z"/>
<path fill="#010101" d="M249.4,57.2h-0.6l-0.1-1.8h0.7 M250.9,57.2h-0.6l-0.1-1.8h0.7L250.9,57.2z"/>
<path fill="#010101" d="M252.4,59.8c0,0.4,0.3,0.7,0.7,0.7c0.9-0.1,1.4-0.7,1.4-1.7C253.5,58.9,252.4,58.8,252.4,59.8 M254.5,60.2
	c-0.3,0.5-0.7,0.9-1.5,0.9c-0.8,0-1.3-0.5-1.3-1.3c0-1.4,1.4-1.4,2.8-1.4c0.1-0.8-0.2-1.2-0.9-1.2c-0.5,0-0.9,0.2-0.9,0.7l-0.7-0.1
	c0.1-0.8,0.7-1.2,1.7-1.2c1,0,1.6,0.5,1.6,1.4v1.8c0,0.5,0.2,0.7,0.6,0.6V61C255.1,61.2,254.4,60.9,254.5,60.2z"/>
<path fill="#010101" d="M257.9,57.2c-0.9,0-1.1,0.7-1.1,1.6c0,0.9,0.2,1.7,1.1,1.7c0.5,0,0.9-0.3,1-0.9l0.7,0
	c-0.1,0.8-0.7,1.4-1.7,1.4c-1.3,0-1.7-0.9-1.8-2.2c-0.2-2.1,2.3-2.9,3.3-1.4c0.1,0.2,0.1,0.3,0.2,0.5l-0.7,0.1
	C258.8,57.5,258.5,57.2,257.9,57.2"/>
<path fill="#010101" d="M261.2,59.9c0,0.5,0.4,0.7,0.9,0.5V61c-0.7,0.2-1.6,0.1-1.6-0.9v-2.9h-0.5v-0.5h0.5l0.2-1h0.5v1h0.8v0.5
	h-0.8V59.9"/>
<path fill="#010101" d="M262.6,61v-4.3h0.7V61H262.6 M262.6,55.8v-0.7h0.7v0.7H262.6z"/>
<polyline fill="#010101" points="266.3,61 265.4,61 263.9,56.7 264.6,56.7 265.9,60.4 267.1,56.7 267.9,56.7 "/>
<path fill="#010101" d="M271.3,58.4c0.1-1.4-1.7-1.7-2.2-0.6c-0.1,0.2-0.1,0.4-0.1,0.6H271.3 M270.2,56.6c1.4,0,1.9,0.9,1.9,2.4h-3
	c0,0.9,0.3,1.5,1.2,1.5c0.6,0,1-0.3,1.1-0.7l0.6,0.2c-0.2,0.6-0.8,1-1.7,1c-1.3,0-2-0.8-2-2.3C268.3,57.4,268.8,56.6,270.2,56.6z"/>
<path fill="#010101" d="M273.4,57.2h-0.6l-0.1-1.8h0.7 M274.9,57.2h-0.6l-0.1-1.8h0.7L274.9,57.2z"/>
<path fill="#010101" d="M276.8,60.1c0,0.8,0,1.5-0.3,1.9H276c0.2-0.3,0.4-0.6,0.4-1H276v-0.9H276.8"/>
<path fill="#010101" d="M278.5,57.2h-0.6l-0.1-1.8h0.7 M280,57.2h-0.6l-0.1-1.8h0.7L280,57.2z"/>
<path fill="#010101" d="M282.5,60.5c0.9,0,1.1-0.7,1.1-1.7s-0.2-1.6-1.1-1.6c-0.9,0-1,0.8-1,1.7S281.6,60.5,282.5,60.5 M283.6,60.3
	c-0.2,0.5-0.7,0.8-1.4,0.8c-1.2,0-1.6-0.9-1.6-2.2c0-1.3,0.4-2.2,1.6-2.3c0.7,0,1.1,0.3,1.4,0.7c0-0.2,0-0.5,0-0.7h0.7l0,6h-0.7
	L283.6,60.3z"/>
<path fill="#010101" d="M286.2,59.9c0,0.5,0.4,0.7,0.9,0.5V61c-0.7,0.2-1.6,0.1-1.6-0.9v-2.9H285v-0.5h0.5l0.2-1h0.5v1h0.8v0.5h-0.8
	V59.9"/>
<path fill="#010101" d="M291.2,56.7l-1.9,5c-0.3,0.6-0.8,1.1-1.8,0.9v-0.5c0.9,0.1,1.2-0.4,1.4-1.1l-1.7-4.3h0.8l1.3,3.5l1.2-3.5
	H291.2"/>
<path fill="#010101" d="M292.2,57.2h-0.6l-0.1-1.8h0.7 M293.6,57.2h-0.6l-0.1-1.8h0.7L293.6,57.2z"/>
<path fill="#010101" d="M294.8,61v-0.8h0.8V61H294.8 M294.8,57.5v-0.8h0.8v0.8H294.8z"/>
<polyline fill="#010101" points="296.9,61 296.9,60.4 298.3,60.4 298.3,56.1 297.1,57 297.1,56.3 298.4,55.4 299,55.4 299,60.4 
	300.4,60.4 300.4,61 296.9,61 "/>
<path fill="#010101" d="M303,60.5c1.1,0,1.2-1.1,1.2-2.3s-0.1-2.3-1.2-2.3c-1.1,0-1.2,1.1-1.2,2.3C301.8,59.4,301.9,60.5,303,60.5
	 M303.1,55.3c1.5,0,1.9,1.2,1.9,2.9s-0.5,2.9-1.9,2.9c-1.5,0-1.9-1.3-1.9-2.9C301.1,56.5,301.5,55.3,303.1,55.3z"/>
<path fill="#010101" d="M307.5,60.5c1.1,0,1.2-1.1,1.2-2.3s-0.1-2.3-1.2-2.3c-1.1,0-1.2,1.1-1.2,2.3
	C306.3,59.4,306.4,60.5,307.5,60.5 M307.6,55.3c1.5,0,1.9,1.2,1.9,2.9s-0.5,2.9-1.9,2.9c-1.5,0-1.9-1.3-1.9-2.9
	C305.6,56.5,306,55.3,307.6,55.3z"/>
<path fill="#010101" d="M311.3,60.1c0,0.8,0,1.5-0.3,1.9h-0.5c0.2-0.3,0.4-0.6,0.4-1h-0.4v-0.9H311.3"/>
<path fill="#010101" d="M313,57.2h-0.6l-0.1-1.8h0.7 M314.5,57.2h-0.6l-0.1-1.8h0.7L314.5,57.2z"/>
<path fill="#010101" d="M316.2,59.9c0,0.5,0.4,0.7,0.9,0.5V61c-0.7,0.2-1.6,0.1-1.6-0.9v-2.9H315v-0.5h0.5l0.2-1h0.5v1h0.8v0.5h-0.8
	V59.9"/>
<path fill="#010101" d="M317.7,61v-4.3h0.7V61H317.7 M317.7,55.8v-0.7h0.7v0.7H317.7z"/>
<path fill="#010101" d="M321.1,57.2c-0.9,0-1.1,0.7-1.1,1.6c0,0.9,0.2,1.7,1.1,1.7c0.5,0,0.9-0.3,1-0.9l0.7,0
	c-0.1,0.8-0.7,1.4-1.7,1.4c-1.3,0-1.7-0.9-1.8-2.2c-0.2-2.1,2.3-2.9,3.3-1.4c0.1,0.2,0.1,0.3,0.2,0.5L322,58
	C321.9,57.5,321.6,57.2,321.1,57.2"/>
<polyline fill="#010101" points="326.2,61 324.7,59 324.2,59.5 324.2,61 323.5,61 323.5,55.1 324.2,55.1 324.2,58.8 326.1,56.7 
	326.9,56.7 325.2,58.6 327,61 326.2,61 "/>
<path fill="#010101" d="M330.4,58.4c0.1-1.4-1.7-1.7-2.2-0.6c-0.1,0.2-0.1,0.4-0.1,0.6H330.4 M329.3,56.6c1.4,0,1.9,0.9,1.9,2.4h-3
	c0,0.9,0.3,1.5,1.2,1.5c0.6,0,1-0.3,1.1-0.7l0.6,0.2c-0.2,0.6-0.8,1-1.7,1c-1.3,0-2-0.8-2-2.3C327.4,57.4,327.9,56.6,329.3,56.6z"/>
<path fill="#010101" d="M334.1,57.3c-1.8-0.4-1.2,2-1.3,3.7h-0.7l0-4.3h0.7c0,0.3,0,0.7,0,0.9c0.1-0.6,0.5-1.1,1.3-0.9V57.3"/>
<path fill="#010101" d="M335.2,57.2h-0.6l-0.1-1.8h0.7 M336.6,57.2h-0.6l-0.1-1.8h0.7L336.6,57.2z"/>
<path fill="#010101" d="M337.8,61v-0.8h0.8V61H337.8 M337.8,57.5v-0.8h0.8v0.8H337.8z"/>
<path fill="#010101" d="M340.3,57.2h-0.6l-0.1-1.8h0.7 M341.8,57.2h-0.6l-0.1-1.8h0.7L341.8,57.2z"/>
<polyline fill="#010101" points="346.6,61 346.6,58.4 343.6,58.4 343.6,61 342.8,61 342.8,55.4 343.6,55.4 343.6,57.8 346.6,57.8 
	346.6,55.4 347.4,55.4 347.4,61 346.6,61 "/>
<path fill="#010101" d="M349.4,58.2c1.3,0,2.8,0.2,2.8-1.1c0-1.3-1.5-1.1-2.8-1.1V58.2 M348.7,55.4c2,0,4.3-0.3,4.3,1.7
	c0,1.8-1.7,1.8-3.6,1.7V61h-0.7V55.4z"/>
<path fill="#010101" d="M356.5,60.4c1.4,0,2-0.9,2-2.3c0-1.4-0.7-2.2-2-2.2c-1.4,0-2,0.9-2,2.2C354.5,59.5,355.2,60.4,356.5,60.4
	 M356.5,55.3c1.8,0,2.8,1,2.8,2.8c0,1.6-0.8,2.6-2.3,2.8c0.2,0.7,0.7,1.1,1.6,0.9v0.5c-1.2,0.4-2.1-0.3-2.3-1.4
	c-1.6-0.1-2.5-1.1-2.5-2.9C353.8,56.4,354.7,55.3,356.5,55.3z"/>
<path fill="#010101" d="M360.7,57.2h-0.6l-0.1-1.8h0.7 M362.1,57.2h-0.6l-0.1-1.8h0.7L362.1,57.2z"/>
<path fill="#010101" d="M364.3,60.1c0,1.4,0.2,2.9-1.6,2.6v-0.5c1.8,0.3,0.1-2.9,1.7-3.3c-0.9-0.1-0.8-1.3-0.8-2.4
	c0-0.7-0.2-0.9-0.9-0.9v-0.5c1-0.1,1.6,0.2,1.6,1.2c0,1.1-0.3,2.4,0.9,2.4v0.5C364.5,59.2,364.2,59.5,364.3,60.1"/>
<path fill="#E6E6E5" d="M106,70.3c0-1.3,1-2.3,2.3-2.3h275c1.3,0,2.3,1,2.3,2.3v13.5c0,1.3-1,2.3-2.3,2.3h-275c-1.3,0-2.3-1-2.3-2.3
	V70.3z"/>
<path fill="none" stroke="#010101" stroke-width="0.9" stroke-miterlimit="10" d="M106,70.3c0-1.3,1-2.3,2.3-2.3h275
	c1.3,0,2.3,1,2.3,2.3v13.5c0,1.3-1,2.3-2.3,2.3h-275c-1.3,0-2.3-1-2.3-2.3V70.3z"/>
<path fill="#010101" d="M109.6,76.9c1.7,0.3-0.2,3.5,1.7,3.3v0.5c-1,0.1-1.6-0.2-1.6-1.2c0-1,0.2-2.4-0.9-2.4v-0.5
	c1.8,0.1-0.2-3.6,1.9-3.5h0.5v0.5C109.4,73.3,111.2,76.6,109.6,76.9"/>
<path fill="#010101" d="M112.4,75.2h-0.6l-0.1-1.8h0.7 M113.9,75.2h-0.6l-0.1-1.8h0.7L113.9,75.2z"/>
<path fill="#010101" d="M116.5,78.5c1,0,1.2-0.7,1.2-1.7c0-1-0.2-1.7-1.1-1.7s-1.2,0.7-1.2,1.7S115.6,78.5,116.5,78.5 M116.5,74.6
	c1.4,0,1.9,0.8,1.9,2.2c0,1.4-0.6,2.2-1.9,2.2s-1.9-0.9-1.9-2.2C114.6,75.4,115.2,74.6,116.5,74.6z"/>
<path fill="#010101" d="M121.3,75.3c-1.8-0.4-1.2,2-1.3,3.7h-0.7l0-4.3h0.7c0,0.3,0,0.7,0,0.9c0.1-0.6,0.5-1.1,1.3-0.9V75.3"/>
<path fill="#010101" d="M123.5,75.2c-0.9,0-1,0.8-1,1.7c0,0.9,0.1,1.7,1,1.7c0.9,0,1.1-0.7,1.1-1.7
	C124.7,75.9,124.5,75.1,123.5,75.2 M123.3,74.6c0.7,0,1.1,0.3,1.4,0.7l0-2.3h0.7l0,5.9h-0.7c0-0.2,0-0.5-0.1-0.7
	c-0.2,0.5-0.6,0.8-1.3,0.8c-1.2,0-1.6-0.9-1.6-2.2C121.8,75.4,122.3,74.6,123.3,74.6z"/>
<path fill="#010101" d="M129.4,76.4c0.1-1.4-1.7-1.7-2.2-0.6c-0.1,0.2-0.1,0.4-0.1,0.6H129.4 M128.2,74.6c1.4,0,1.9,0.9,1.9,2.4h-3
	c0,0.9,0.3,1.5,1.2,1.5c0.6,0,1-0.3,1.1-0.7l0.6,0.2c-0.2,0.6-0.8,1-1.7,1c-1.3,0-2-0.8-2-2.3C126.3,75.4,126.9,74.6,128.2,74.6z"/>
<path fill="#010101" d="M133,75.3c-1.8-0.4-1.2,2-1.3,3.7H131l0-4.3h0.7c0,0.3,0,0.7,0,0.9c0.1-0.6,0.5-1.1,1.3-0.9V75.3"/>
<path fill="#010101" d="M134.1,75.2h-0.6l-0.1-1.8h0.7 M135.6,75.2H135l-0.1-1.8h0.7L135.6,75.2z"/>
<path fill="#010101" d="M136.7,79v-0.8h0.8V79H136.7 M136.7,75.5v-0.8h0.8v0.8H136.7z"/>
<path fill="#010101" d="M141.1,76.1c0.7,0.1,1.3,0.5,1.3,1.3c0,2-3.1,2.1-3.7,0.7c-0.1-0.2-0.1-0.4-0.1-0.6l0.7-0.1
	c0.1,0.6,0.5,1,1.2,1c0.7,0,1.2-0.3,1.2-1c0-0.9-0.8-1-1.8-1v-0.6c0.9,0,1.6-0.1,1.6-0.9c0-0.6-0.4-1-1-1c-0.6,0-1.1,0.3-1.1,0.9
	l-0.7-0.1c0.1-0.9,0.8-1.4,1.8-1.4c1.1,0,1.8,0.5,1.8,1.5C142.2,75.6,141.8,76,141.1,76.1"/>
<path fill="#010101" d="M144.3,78.1c0,0.8,0,1.5-0.3,1.9h-0.5c0.2-0.3,0.4-0.6,0.4-1h-0.4v-0.9H144.3"/>
<path fill="#010101" d="M146,75.2h-0.6l-0.1-1.8h0.7 M147.4,75.2h-0.6l-0.1-1.8h0.7L147.4,75.2z"/>
<path fill="#010101" d="M150,75.2c-0.9,0-1.1,0.7-1.1,1.6c0,0.9,0.2,1.7,1.1,1.7c0.5,0,0.9-0.3,1-0.9l0.7,0
	c-0.1,0.8-0.7,1.4-1.7,1.4c-1.3,0-1.7-0.9-1.8-2.2c-0.2-2.1,2.3-2.9,3.3-1.4c0.1,0.2,0.1,0.3,0.2,0.5l-0.7,0.1
	C150.8,75.5,150.5,75.2,150,75.2"/>
<path fill="#010101" d="M153.8,79.1c-2,0.1-1.2-2.6-1.4-4.4h0.7v2.7c0,0.7,0.2,1.1,0.9,1.1c1.6,0,1-2.3,1.1-3.8h0.7l0,4.3h-0.7
	c0-0.2,0-0.6,0-0.7C154.9,78.7,154.5,79,153.8,79.1"/>
<path fill="#010101" d="M159.4,75.8c-0.1-0.8-1.9-0.9-2,0c0.3,1.2,2.6,0.3,2.7,2c0.1,1.8-3.4,1.7-3.5,0.2l0.6-0.1
	c0.1,0.8,2.2,1,2.2,0c-0.2-1.3-2.5-0.3-2.7-2c-0.1-1.3,1.8-1.4,2.7-0.9c0.3,0.2,0.5,0.4,0.5,0.8"/>
<path fill="#010101" d="M161.8,77.9c0,0.5,0.4,0.7,0.9,0.5V79c-0.7,0.2-1.6,0.1-1.6-0.9v-2.9h-0.5v-0.5h0.5l0.2-1h0.5v1h0.8v0.5
	h-0.8V77.9"/>
<path fill="#010101" d="M164.9,78.5c1,0,1.2-0.7,1.2-1.7c0-1-0.2-1.7-1.1-1.7s-1.2,0.7-1.2,1.7S164,78.5,164.9,78.5 M164.9,74.6
	c1.4,0,1.9,0.8,1.9,2.2c0,1.4-0.6,2.2-1.9,2.2s-1.9-0.9-1.9-2.2C163,75.4,163.6,74.6,164.9,74.6z"/>
<path fill="#010101" d="M171.9,75.2c-1.5,0.1-0.9,2.4-1,3.8h-0.7v-2.7c0-0.7-0.1-1.1-0.8-1.1c-1.5,0.1-0.9,2.3-1,3.8h-0.7l0-4.3h0.7
	c0,0.2,0,0.5,0,0.7c0.2-1,2.2-1.1,2.4,0c0.2-0.5,0.6-0.8,1.3-0.8c1.9,0,1.1,2.7,1.2,4.4h-0.7v-2.7C172.7,75.6,172.6,75.2,171.9,75.2
	"/>
<path fill="#010101" d="M177.3,76.4c0.1-1.4-1.7-1.7-2.2-0.6c-0.1,0.2-0.1,0.4-0.1,0.6H177.3 M176.2,74.6c1.4,0,1.9,0.9,1.9,2.4h-3
	c0,0.9,0.3,1.5,1.2,1.5c0.6,0,1-0.3,1.1-0.7l0.6,0.2c-0.2,0.6-0.8,1-1.7,1c-1.3,0-2-0.8-2-2.3C174.3,75.4,174.8,74.6,176.2,74.6z"/>
<path fill="#010101" d="M181,75.3c-1.8-0.4-1.2,2-1.3,3.7H179l0-4.3h0.7c0,0.3,0,0.7,0,0.9c0.1-0.6,0.5-1.1,1.3-0.9V75.3"/>
<path fill="#010101" d="M182.1,75.2h-0.6l-0.1-1.8h0.7 M183.5,75.2H183l-0.1-1.8h0.7L183.5,75.2z"/>
<path fill="#010101" d="M184.7,79v-0.8h0.8V79H184.7 M184.7,75.5v-0.8h0.8v0.8H184.7z"/>
<path fill="#010101" d="M187.2,75.2h-0.6l-0.1-1.8h0.7 M188.6,75.2h-0.6l-0.1-1.8h0.7L188.6,75.2z"/>
<path fill="#010101" d="M190.5,76.2c1.3,0,2.8,0.2,2.8-1.1c0-1.3-1.5-1.1-2.8-1.1V76.2 M189.7,73.4c2,0,4.3-0.3,4.3,1.7
	c0,1.8-1.7,1.8-3.6,1.7V79h-0.7V73.4z"/>
<path fill="#010101" d="M195.5,77.8c0,0.4,0.3,0.7,0.7,0.7c0.9-0.1,1.4-0.7,1.4-1.7C196.6,76.9,195.5,76.8,195.5,77.8 M197.6,78.2
	c-0.3,0.5-0.7,0.9-1.5,0.9c-0.8,0-1.3-0.5-1.3-1.3c0-1.4,1.4-1.4,2.8-1.4c0.1-0.8-0.2-1.2-0.9-1.2c-0.5,0-0.9,0.2-0.9,0.7l-0.7-0.1
	c0.1-0.8,0.7-1.2,1.7-1.2c1,0,1.6,0.5,1.6,1.4v1.8c0,0.5,0.2,0.7,0.6,0.6V79C198.2,79.2,197.6,78.9,197.6,78.2z"/>
<path fill="#010101" d="M200.3,77.9c0,0.5,0.4,0.7,0.9,0.5V79c-0.7,0.2-1.6,0.1-1.6-0.9v-2.9h-0.5v-0.5h0.5l0.2-1h0.5v1h0.8v0.5
	h-0.8V77.9"/>
<path fill="#010101" d="M203.8,75.3c-1.8-0.4-1.2,2-1.3,3.7h-0.7l0-4.3h0.7c0,0.3,0,0.7,0,0.9c0.1-0.6,0.5-1.1,1.3-0.9V75.3"/>
<path fill="#010101" d="M204.4,79v-4.3h0.7V79H204.4 M204.4,73.8v-0.7h0.7v0.7H204.4z"/>
<path fill="#010101" d="M207.8,75.2c-0.9,0-1.1,0.7-1.1,1.6c0,0.9,0.2,1.7,1.1,1.7c0.5,0,0.9-0.3,1-0.9l0.7,0
	c-0.1,0.8-0.7,1.4-1.7,1.4c-1.3,0-1.7-0.9-1.8-2.2c-0.2-2.1,2.3-2.9,3.3-1.4c0.1,0.2,0.1,0.3,0.2,0.5l-0.7,0.1
	C208.6,75.5,208.4,75.2,207.8,75.2"/>
<polyline fill="#010101" points="212.9,79 211.5,77 211,77.5 211,79 210.2,79 210.2,73.1 211,73.1 211,76.8 212.8,74.7 213.7,74.7 
	211.9,76.6 213.8,79 212.9,79 "/>
<path fill="#010101" d="M214.7,75.2h-0.6l-0.1-1.8h0.7 M216.2,75.2h-0.6l-0.1-1.8h0.7L216.2,75.2z"/>
<path fill="#010101" d="M218.1,78.1c0,0.8,0,1.5-0.3,1.9h-0.5c0.2-0.3,0.4-0.6,0.4-1h-0.4v-0.9H218.1"/>
<path fill="#010101" d="M219.8,75.2h-0.6l-0.1-1.8h0.7 M221.3,75.2h-0.6l-0.1-1.8h0.7L221.3,75.2z"/>
<path fill="#010101" d="M224.8,75.8c-0.1-0.8-1.9-0.9-2,0c0.3,1.2,2.6,0.3,2.7,2c0.1,1.8-3.4,1.7-3.5,0.2l0.6-0.1
	c0.1,0.8,2.2,1,2.2,0c-0.2-1.3-2.5-0.3-2.7-2c-0.1-1.3,1.8-1.4,2.7-0.9c0.3,0.2,0.5,0.4,0.5,0.8"/>
<path fill="#010101" d="M227.1,77.9c0,0.5,0.4,0.7,0.9,0.5V79c-0.7,0.2-1.6,0.1-1.6-0.9v-2.9h-0.5v-0.5h0.5l0.2-1h0.5v1h0.8v0.5
	h-0.8V77.9"/>
<path fill="#010101" d="M229.1,77.8c0,0.4,0.3,0.7,0.7,0.7c0.9-0.1,1.4-0.7,1.4-1.7C230.2,76.9,229.1,76.8,229.1,77.8 M231.2,78.2
	c-0.3,0.5-0.7,0.9-1.5,0.9c-0.8,0-1.3-0.5-1.3-1.3c0-1.4,1.4-1.4,2.8-1.4c0.1-0.8-0.2-1.2-0.9-1.2c-0.5,0-0.9,0.2-0.9,0.7l-0.7-0.1
	c0.1-0.8,0.7-1.2,1.7-1.2c1,0,1.6,0.5,1.6,1.4v1.8c0,0.5,0.2,0.7,0.6,0.6V79C231.8,79.2,231.1,78.9,231.2,78.2z"/>
<path fill="#010101" d="M233.8,77.9c0,0.5,0.4,0.7,0.9,0.5V79c-0.7,0.2-1.6,0.1-1.6-0.9v-2.9h-0.5v-0.5h0.5l0.2-1h0.5v1h0.8v0.5
	h-0.8V77.9"/>
<path fill="#010101" d="M236.7,79.1c-2,0.1-1.2-2.6-1.4-4.4h0.7v2.7c0,0.7,0.2,1.1,0.9,1.1c1.6,0,1-2.3,1.1-3.8h0.7l0,4.3h-0.7
	c0-0.2,0-0.6,0-0.7C237.8,78.7,237.4,79,236.7,79.1"/>
<path fill="#010101" d="M242.3,75.8c-0.1-0.8-1.9-0.9-2,0c0.3,1.2,2.6,0.3,2.7,2c0.1,1.8-3.4,1.7-3.5,0.2l0.6-0.1
	c0.1,0.8,2.2,1,2.2,0c-0.2-1.3-2.5-0.3-2.7-2c-0.1-1.3,1.8-1.4,2.7-0.9c0.3,0.2,0.5,0.4,0.5,0.8"/>
<path fill="#010101" d="M244.3,75.2h-0.6l-0.1-1.8h0.7 M245.8,75.2h-0.6l-0.1-1.8h0.7L245.8,75.2z"/>
<path fill="#010101" d="M246.9,79v-0.8h0.8V79H246.9 M246.9,75.5v-0.8h0.8v0.8H246.9z"/>
<path fill="#010101" d="M249.4,75.2h-0.6l-0.1-1.8h0.7 M250.9,75.2h-0.6l-0.1-1.8h0.7L250.9,75.2z"/>
<path fill="#010101" d="M252.4,77.8c0,0.4,0.3,0.7,0.7,0.7c0.9-0.1,1.4-0.7,1.4-1.7C253.5,76.9,252.4,76.8,252.4,77.8 M254.5,78.2
	c-0.3,0.5-0.7,0.9-1.5,0.9c-0.8,0-1.3-0.5-1.3-1.3c0-1.4,1.4-1.4,2.8-1.4c0.1-0.8-0.2-1.2-0.9-1.2c-0.5,0-0.9,0.2-0.9,0.7l-0.7-0.1
	c0.1-0.8,0.7-1.2,1.7-1.2c1,0,1.6,0.5,1.6,1.4v1.8c0,0.5,0.2,0.7,0.6,0.6V79C255.1,79.2,254.4,78.9,254.5,78.2z"/>
<path fill="#010101" d="M257.9,75.2c-0.9,0-1.1,0.7-1.1,1.6c0,0.9,0.2,1.7,1.1,1.7c0.5,0,0.9-0.3,1-0.9l0.7,0
	c-0.1,0.8-0.7,1.4-1.7,1.4c-1.3,0-1.7-0.9-1.8-2.2c-0.2-2.1,2.3-2.9,3.3-1.4c0.1,0.2,0.1,0.3,0.2,0.5l-0.7,0.1
	C258.8,75.5,258.5,75.2,257.9,75.2"/>
<path fill="#010101" d="M261.2,77.9c0,0.5,0.4,0.7,0.9,0.5V79c-0.7,0.2-1.6,0.1-1.6-0.9v-2.9h-0.5v-0.5h0.5l0.2-1h0.5v1h0.8v0.5
	h-0.8V77.9"/>
<path fill="#010101" d="M262.6,79v-4.3h0.7V79H262.6 M262.6,73.8v-0.7h0.7v0.7H262.6z"/>
<polyline fill="#010101" points="266.3,79 265.4,79 263.9,74.7 264.6,74.7 265.9,78.4 267.1,74.7 267.9,74.7 "/>
<path fill="#010101" d="M271.3,76.4c0.1-1.4-1.7-1.7-2.2-0.6c-0.1,0.2-0.1,0.4-0.1,0.6H271.3 M270.2,74.6c1.4,0,1.9,0.9,1.9,2.4h-3
	c0,0.9,0.3,1.5,1.2,1.5c0.6,0,1-0.3,1.1-0.7l0.6,0.2c-0.2,0.6-0.8,1-1.7,1c-1.3,0-2-0.8-2-2.3C268.3,75.4,268.8,74.6,270.2,74.6z"/>
<path fill="#010101" d="M273.4,75.2h-0.6l-0.1-1.8h0.7 M274.9,75.2h-0.6l-0.1-1.8h0.7L274.9,75.2z"/>
<path fill="#010101" d="M276.8,78.1c0,0.8,0,1.5-0.3,1.9H276c0.2-0.3,0.4-0.6,0.4-1H276v-0.9H276.8"/>
<path fill="#010101" d="M278.5,75.2h-0.6l-0.1-1.8h0.7 M280,75.2h-0.6l-0.1-1.8h0.7L280,75.2z"/>
<path fill="#010101" d="M282.5,78.5c0.9,0,1.1-0.7,1.1-1.7s-0.2-1.6-1.1-1.6c-0.9,0-1,0.8-1,1.7S281.6,78.5,282.5,78.5 M283.6,78.3
	c-0.2,0.5-0.7,0.8-1.4,0.8c-1.2,0-1.6-0.9-1.6-2.2c0-1.3,0.4-2.2,1.6-2.3c0.7,0,1.1,0.3,1.4,0.7c0-0.2,0-0.5,0-0.7h0.7l0,6h-0.7
	L283.6,78.3z"/>
<path fill="#010101" d="M286.2,77.9c0,0.5,0.4,0.7,0.9,0.5V79c-0.7,0.2-1.6,0.1-1.6-0.9v-2.9H285v-0.5h0.5l0.2-1h0.5v1h0.8v0.5h-0.8
	V77.9"/>
<path fill="#010101" d="M291.2,74.7l-1.9,5c-0.3,0.6-0.8,1.1-1.8,0.9v-0.5c0.9,0.1,1.2-0.4,1.4-1.1l-1.7-4.3h0.8l1.3,3.5l1.2-3.5
	H291.2"/>
<path fill="#010101" d="M292.2,75.2h-0.6l-0.1-1.8h0.7 M293.6,75.2h-0.6l-0.1-1.8h0.7L293.6,75.2z"/>
<path fill="#010101" d="M294.8,79v-0.8h0.8V79H294.8 M294.8,75.5v-0.8h0.8v0.8H294.8z"/>
<polyline fill="#010101" points="296.9,79 296.9,78.4 298.3,78.4 298.3,74.1 297.1,75 297.1,74.3 298.4,73.4 299,73.4 299,78.4 
	300.4,78.4 300.4,79 296.9,79 "/>
<path fill="#010101" d="M303,78.5c1.1,0,1.2-1.1,1.2-2.3s-0.1-2.3-1.2-2.3c-1.1,0-1.2,1.1-1.2,2.3C301.8,77.4,301.9,78.5,303,78.5
	 M303.1,73.3c1.5,0,1.9,1.2,1.9,2.9s-0.5,2.9-1.9,2.9c-1.5,0-1.9-1.3-1.9-2.9C301.1,74.5,301.5,73.3,303.1,73.3z"/>
<path fill="#010101" d="M307.5,78.5c1.1,0,1.2-1.1,1.2-2.3s-0.1-2.3-1.2-2.3c-1.1,0-1.2,1.1-1.2,2.3
	C306.3,77.4,306.4,78.5,307.5,78.5 M307.6,73.3c1.5,0,1.9,1.2,1.9,2.9s-0.5,2.9-1.9,2.9c-1.5,0-1.9-1.3-1.9-2.9
	C305.6,74.5,306,73.3,307.6,73.3z"/>
<path fill="#010101" d="M312,78.5c1.1,0,1.2-1.1,1.2-2.3s-0.1-2.3-1.2-2.3c-1.1,0-1.2,1.1-1.2,2.3C310.8,77.4,310.9,78.5,312,78.5
	 M312.1,73.3c1.5,0,1.9,1.2,1.9,2.9s-0.5,2.9-1.9,2.9c-1.5,0-1.9-1.3-1.9-2.9C310.1,74.5,310.5,73.3,312.1,73.3z"/>
<path fill="#010101" d="M315.8,78.1c0,0.8,0,1.5-0.3,1.9H315c0.2-0.3,0.4-0.6,0.4-1H315v-0.9H315.8"/>
<path fill="#010101" d="M317.5,75.2H317l-0.1-1.8h0.7 M319,75.2h-0.6l-0.1-1.8h0.7L319,75.2z"/>
<path fill="#010101" d="M320.7,77.9c0,0.5,0.4,0.7,0.9,0.5V79c-0.7,0.2-1.6,0.1-1.6-0.9v-2.9h-0.5v-0.5h0.5l0.2-1h0.5v1h0.8v0.5
	h-0.8V77.9"/>
<path fill="#010101" d="M322.2,79v-4.3h0.7V79H322.2 M322.2,73.8v-0.7h0.7v0.7H322.2z"/>
<path fill="#010101" d="M325.6,75.2c-0.9,0-1.1,0.7-1.1,1.6c0,0.9,0.2,1.7,1.1,1.7c0.5,0,0.9-0.3,1-0.9l0.7,0
	c-0.1,0.8-0.7,1.4-1.7,1.4c-1.3,0-1.7-0.9-1.8-2.2c-0.2-2.1,2.3-2.9,3.3-1.4c0.1,0.2,0.1,0.3,0.2,0.5l-0.7,0.1
	C326.4,75.5,326.1,75.2,325.6,75.2"/>
<polyline fill="#010101" points="330.7,79 329.2,77 328.7,77.5 328.7,79 328,79 328,73.1 328.7,73.1 328.7,76.8 330.6,74.7 
	331.4,74.7 329.7,76.6 331.5,79 330.7,79 "/>
<path fill="#010101" d="M334.9,76.4c0.1-1.4-1.7-1.7-2.2-0.6c-0.1,0.2-0.1,0.4-0.1,0.6H334.9 M333.8,74.6c1.4,0,1.9,0.9,1.9,2.4h-3
	c0,0.9,0.3,1.5,1.2,1.5c0.6,0,1-0.3,1.1-0.7l0.6,0.2c-0.2,0.6-0.8,1-1.7,1c-1.3,0-2-0.8-2-2.3C331.9,75.4,332.4,74.6,333.8,74.6z"/>
<path fill="#010101" d="M338.6,75.3c-1.8-0.4-1.2,2-1.3,3.7h-0.7l0-4.3h0.7c0,0.3,0,0.7,0,0.9c0.1-0.6,0.5-1.1,1.3-0.9V75.3"/>
<path fill="#010101" d="M339.7,75.2h-0.6l-0.1-1.8h0.7 M341.1,75.2h-0.6l-0.1-1.8h0.7L341.1,75.2z"/>
<path fill="#010101" d="M342.3,79v-0.8h0.8V79H342.3 M342.3,75.5v-0.8h0.8v0.8H342.3z"/>
<path fill="#010101" d="M344.8,75.2h-0.6l-0.1-1.8h0.7 M346.3,75.2h-0.6l-0.1-1.8h0.7L346.3,75.2z"/>
<path fill="#010101" d="M352.1,79l0-4.9c-0.5,1.7-1.2,3.3-1.8,4.9h-0.5l-1.8-4.9l0,4.9h-0.7v-5.6h1l1.7,4.7c0.5-1.7,1.1-3.1,1.7-4.7
	h1V79H352.1"/>
<path fill="#010101" d="M357.5,74.7c-0.1-1.1-2.8-1.2-2.8,0c0.3,1.7,3.6,0.3,3.7,2.7c0.1,1.8-2.7,2-3.9,1.2c-0.4-0.2-0.6-0.6-0.7-1
	l0.7-0.2c0.1,1.3,3.2,1.4,3.2,0c0-1.8-3.5-0.3-3.6-2.7c-0.1-1.8,3.3-1.9,4-0.8c0.1,0.2,0.2,0.4,0.2,0.6"/>
<polyline fill="#010101" points="360.2,74 360.2,76.1 363.3,76.1 363.3,76.7 360.2,76.7 360.2,79 359.5,79 359.5,73.4 363.4,73.4 
	363.4,74 360.2,74 "/>
<polyline fill="#010101" points="366.6,74 366.6,79 365.8,79 365.8,74 363.9,74 363.9,73.4 368.5,73.4 368.5,74 366.6,74 "/>
<path fill="#010101" d="M369.6,75.2h-0.6l-0.1-1.8h0.7 M371.1,75.2h-0.6l-0.1-1.8h0.7L371.1,75.2z"/>
<path fill="#010101" d="M373.2,78.1c0,1.4,0.2,2.9-1.6,2.6v-0.5c1.8,0.3,0.1-2.9,1.7-3.3c-0.9-0.1-0.8-1.3-0.8-2.4
	c0-0.7-0.2-0.9-0.9-0.9v-0.5c1-0.1,1.6,0.2,1.6,1.2c0,1.1-0.3,2.4,0.9,2.4v0.5C373.5,77.2,373.2,77.5,373.2,78.1"/>
<path fill="#E6E6E5" d="M7,124.3c0-1.3,1-2.3,2.3-2.3h274.9c1.3,0,2.3,1,2.3,2.3v13.5c0,1.3-1,2.3-2.3,2.3H9.2C8,140,7,139,7,137.8
	V124.3z"/>
<path fill="none" stroke="#010101" stroke-width="0.9" stroke-miterlimit="10" d="M7,124.3c0-1.3,1-2.3,2.3-2.3h274.9
	c1.3,0,2.3,1,2.3,2.3v13.5c0,1.3-1,2.3-2.3,2.3H9.2C8,140,7,139,7,137.8V124.3z"/>
<path fill="#010101" d="M10.6,130.9c1.7,0.3-0.2,3.5,1.7,3.3v0.5c-1,0.1-1.6-0.2-1.6-1.2c0-1,0.2-2.4-0.9-2.4v-0.5
	c1.8,0.1-0.2-3.6,1.9-3.5h0.5v0.5C10.4,127.3,12.2,130.6,10.6,130.9"/>
<path fill="#010101" d="M13.4,129.2h-0.6l-0.1-1.8h0.7 M14.9,129.2h-0.6l-0.1-1.8h0.7L14.9,129.2z"/>
<path fill="#010101" d="M17.5,132.5c1,0,1.2-0.7,1.2-1.7c0-1-0.2-1.7-1.1-1.7c-1,0-1.2,0.7-1.2,1.7S16.6,132.5,17.5,132.5
	 M17.5,128.6c1.4,0,1.9,0.8,1.9,2.2c0,1.4-0.6,2.2-1.9,2.2s-1.9-0.9-1.9-2.2C15.6,129.4,16.2,128.6,17.5,128.6z"/>
<path fill="#010101" d="M22.3,129.3c-1.8-0.4-1.2,2-1.3,3.7h-0.7l0-4.3H21c0,0.3,0,0.7,0,0.9c0.1-0.6,0.5-1.1,1.3-0.9V129.3"/>
<path fill="#010101" d="M24.5,129.2c-0.9,0-1,0.8-1,1.7c0,0.9,0.1,1.7,1,1.7c0.9,0,1.1-0.7,1.1-1.7
	C25.7,129.9,25.5,129.1,24.5,129.2 M24.3,128.6c0.7,0,1.1,0.3,1.3,0.7l0-2.3h0.7l0,5.9h-0.7c0-0.2,0-0.5-0.1-0.7
	c-0.2,0.5-0.6,0.8-1.3,0.8c-1.2,0-1.6-0.9-1.6-2.2C22.8,129.4,23.3,128.6,24.3,128.6z"/>
<path fill="#010101" d="M30.4,130.4c0.1-1.4-1.7-1.7-2.2-0.6c-0.1,0.2-0.1,0.4-0.1,0.6H30.4 M29.2,128.6c1.4,0,1.9,0.9,1.9,2.4h-3
	c0,0.9,0.3,1.5,1.2,1.5c0.6,0,1-0.3,1.1-0.7l0.6,0.2c-0.2,0.6-0.8,1-1.7,1c-1.3,0-2-0.8-2-2.3C27.3,129.4,27.9,128.6,29.2,128.6z"/>
<path fill="#010101" d="M34,129.3c-1.8-0.4-1.2,2-1.3,3.7H32l0-4.3h0.7c0,0.3,0,0.7,0,0.9c0.1-0.6,0.5-1.1,1.3-0.9V129.3"/>
<path fill="#010101" d="M35.1,129.2h-0.6l-0.1-1.8h0.7 M36.6,129.2H36l-0.1-1.8h0.7L36.6,129.2z"/>
<path fill="#010101" d="M37.7,133v-0.8h0.8v0.8H37.7 M37.7,129.5v-0.8h0.8v0.8H37.7z"/>
<path fill="#010101" d="M42.1,130.1c0.7,0.1,1.3,0.5,1.3,1.3c0,2-3.1,2.1-3.7,0.7c-0.1-0.2-0.1-0.4-0.1-0.6l0.7-0.1
	c0.1,0.6,0.5,1,1.2,1c0.7,0,1.2-0.3,1.2-1c0-0.9-0.8-1-1.8-1v-0.6c0.9,0,1.6-0.1,1.6-0.9c0-0.6-0.4-1-1-1c-0.6,0-1.1,0.3-1.1,0.9
	l-0.7-0.1c0.1-0.9,0.8-1.4,1.8-1.4c1.1,0,1.8,0.5,1.8,1.5C43.2,129.6,42.8,130,42.1,130.1"/>
<path fill="#010101" d="M45.2,132.1c0,0.8,0,1.5-0.3,1.9h-0.5c0.2-0.3,0.4-0.6,0.4-1h-0.4v-0.9H45.2"/>
<path fill="#010101" d="M47,129.2h-0.6l-0.1-1.8H47 M48.4,129.2h-0.6l-0.1-1.8h0.7L48.4,129.2z"/>
<path fill="#010101" d="M51,129.2c-0.9,0-1.1,0.7-1.1,1.6c0,0.9,0.2,1.7,1.1,1.7c0.5,0,0.9-0.3,1-0.9l0.7,0
	c-0.1,0.8-0.7,1.4-1.7,1.4c-1.3,0-1.7-0.9-1.8-2.2c-0.2-2.1,2.3-2.9,3.3-1.4c0.1,0.2,0.1,0.3,0.2,0.5l-0.7,0.1
	C51.8,129.5,51.5,129.2,51,129.2"/>
<path fill="#010101" d="M54.8,133.1c-2,0.1-1.2-2.6-1.4-4.4h0.7v2.7c0,0.7,0.2,1.1,0.9,1.1c1.6,0,1-2.3,1.1-3.8h0.7l0,4.3h-0.7
	c0-0.2,0-0.6,0-0.7C55.9,132.7,55.5,133,54.8,133.1"/>
<path fill="#010101" d="M60.4,129.8c-0.1-0.8-1.9-0.9-2,0c0.3,1.2,2.6,0.3,2.7,2c0.1,1.8-3.4,1.7-3.5,0.2l0.6-0.1
	c0.1,0.8,2.2,1,2.2,0c-0.2-1.3-2.5-0.3-2.7-2c-0.1-1.3,1.8-1.4,2.7-0.9c0.3,0.2,0.5,0.4,0.5,0.8"/>
<path fill="#010101" d="M62.8,131.9c0,0.5,0.4,0.7,0.9,0.5v0.5c-0.7,0.2-1.6,0.1-1.6-0.9v-2.9h-0.5v-0.5h0.5l0.2-1h0.5v1h0.8v0.5
	h-0.8V131.9"/>
<path fill="#010101" d="M65.9,132.5c1,0,1.2-0.7,1.2-1.7c0-1-0.2-1.7-1.1-1.7c-1,0-1.2,0.7-1.2,1.7S65,132.5,65.9,132.5 M65.9,128.6
	c1.4,0,1.9,0.8,1.9,2.2c0,1.4-0.6,2.2-1.9,2.2s-1.9-0.9-1.9-2.2C64,129.4,64.6,128.6,65.9,128.6z"/>
<path fill="#010101" d="M72.9,129.2c-1.5,0.1-0.9,2.4-1,3.8h-0.7v-2.7c0-0.7-0.1-1.1-0.8-1.1c-1.5,0.1-0.9,2.3-1,3.8h-0.7l0-4.3h0.7
	c0,0.2,0,0.5,0,0.7c0.2-1,2.2-1.1,2.4,0c0.2-0.5,0.6-0.8,1.3-0.8c1.9,0,1.1,2.7,1.2,4.4h-0.7v-2.7C73.7,129.6,73.6,129.2,72.9,129.2
	"/>
<path fill="#010101" d="M78.3,130.4c0.1-1.4-1.7-1.7-2.2-0.6c-0.1,0.2-0.1,0.4-0.1,0.6H78.3 M77.2,128.6c1.4,0,1.9,0.9,1.9,2.4h-3
	c0,0.9,0.3,1.5,1.2,1.5c0.6,0,1-0.3,1.1-0.7l0.6,0.2c-0.2,0.6-0.8,1-1.7,1c-1.3,0-2-0.8-2-2.3C75.3,129.4,75.8,128.6,77.2,128.6z"/>
<path fill="#010101" d="M82,129.3c-1.8-0.4-1.2,2-1.3,3.7H80l0-4.3h0.7c0,0.3,0,0.7,0,0.9c0.1-0.6,0.5-1.1,1.3-0.9V129.3"/>
<path fill="#010101" d="M83.1,129.2h-0.6l-0.1-1.8h0.7 M84.5,129.2H84l-0.1-1.8h0.7L84.5,129.2z"/>
<path fill="#010101" d="M85.7,133v-0.8h0.8v0.8H85.7 M85.7,129.5v-0.8h0.8v0.8H85.7z"/>
<path fill="#010101" d="M88.2,129.2h-0.6l-0.1-1.8h0.7 M89.6,129.2h-0.6l-0.1-1.8h0.7L89.6,129.2z"/>
<path fill="#010101" d="M91.5,130.2c1.3,0,2.8,0.2,2.8-1.1c0-1.3-1.5-1.1-2.8-1.1V130.2 M90.7,127.4c2,0,4.3-0.3,4.3,1.7
	c0,1.8-1.7,1.8-3.6,1.7v2.2h-0.7V127.4z"/>
<path fill="#010101" d="M96.5,131.8c0,0.4,0.3,0.7,0.7,0.7c0.9-0.1,1.4-0.7,1.4-1.7C97.6,130.9,96.5,130.8,96.5,131.8 M98.6,132.2
	c-0.3,0.5-0.7,0.9-1.5,0.9c-0.8,0-1.3-0.5-1.3-1.3c0-1.4,1.4-1.4,2.8-1.4c0.1-0.8-0.2-1.2-0.9-1.2c-0.5,0-0.9,0.2-0.9,0.7l-0.7-0.1
	c0.1-0.8,0.7-1.2,1.7-1.2c1,0,1.6,0.5,1.6,1.4v1.8c0,0.5,0.2,0.7,0.6,0.6v0.4C99.2,133.2,98.6,132.9,98.6,132.2z"/>
<path fill="#010101" d="M101.3,131.9c0,0.5,0.4,0.7,0.9,0.5v0.5c-0.7,0.2-1.6,0.1-1.6-0.9v-2.9h-0.5v-0.5h0.5l0.2-1h0.5v1h0.8v0.5
	h-0.8V131.9"/>
<path fill="#010101" d="M104.8,129.3c-1.8-0.4-1.2,2-1.3,3.7h-0.7l0-4.3h0.7c0,0.3,0,0.7,0,0.9c0.1-0.6,0.5-1.1,1.3-0.9V129.3"/>
<path fill="#010101" d="M105.4,133v-4.3h0.7v4.3H105.4 M105.4,127.8v-0.7h0.7v0.7H105.4z"/>
<path fill="#010101" d="M108.8,129.2c-0.9,0-1.1,0.7-1.1,1.6c0,0.9,0.2,1.7,1.1,1.7c0.5,0,0.9-0.3,1-0.9l0.7,0
	c-0.1,0.8-0.7,1.4-1.7,1.4c-1.3,0-1.7-0.9-1.8-2.2c-0.2-2.1,2.3-2.9,3.3-1.4c0.1,0.2,0.1,0.3,0.2,0.5l-0.7,0.1
	C109.6,129.5,109.4,129.2,108.8,129.2"/>
<polyline fill="#010101" points="113.9,133 112.5,131 112,131.5 112,133 111.2,133 111.2,127.1 112,127.1 112,130.8 113.8,128.7 
	114.7,128.7 112.9,130.6 114.8,133 113.9,133 "/>
<path fill="#010101" d="M115.7,129.2h-0.6l-0.1-1.8h0.7 M117.2,129.2h-0.6l-0.1-1.8h0.7L117.2,129.2z"/>
<path fill="#010101" d="M119.1,132.1c0,0.8,0,1.5-0.3,1.9h-0.5c0.2-0.3,0.4-0.6,0.4-1h-0.4v-0.9H119.1"/>
<path fill="#010101" d="M120.8,129.2h-0.6l-0.1-1.8h0.7 M122.3,129.2h-0.6l-0.1-1.8h0.7L122.3,129.2z"/>
<path fill="#010101" d="M125.8,129.8c-0.1-0.8-1.9-0.9-2,0c0.3,1.2,2.6,0.3,2.7,2c0.1,1.8-3.4,1.7-3.5,0.2l0.6-0.1
	c0.1,0.8,2.2,1,2.2,0c-0.2-1.3-2.5-0.3-2.7-2c-0.1-1.3,1.8-1.4,2.7-0.9c0.3,0.2,0.5,0.4,0.5,0.8"/>
<path fill="#010101" d="M128.1,131.9c0,0.5,0.4,0.7,0.9,0.5v0.5c-0.7,0.2-1.6,0.1-1.6-0.9v-2.9h-0.5v-0.5h0.5l0.2-1h0.5v1h0.8v0.5
	h-0.8V131.9"/>
<path fill="#010101" d="M130.1,131.8c0,0.4,0.3,0.7,0.7,0.7c0.9-0.1,1.4-0.7,1.4-1.7C131.2,130.9,130.1,130.8,130.1,131.8
	 M132.2,132.2c-0.3,0.5-0.7,0.9-1.5,0.9c-0.8,0-1.3-0.5-1.3-1.3c0-1.4,1.4-1.4,2.8-1.4c0.1-0.8-0.2-1.2-0.9-1.2
	c-0.5,0-0.9,0.2-0.9,0.7l-0.7-0.1c0.1-0.8,0.7-1.2,1.7-1.2c1,0,1.6,0.5,1.6,1.4v1.8c0,0.5,0.2,0.7,0.6,0.6v0.4
	C132.8,133.2,132.1,132.9,132.2,132.2z"/>
<path fill="#010101" d="M134.8,131.9c0,0.5,0.4,0.7,0.9,0.5v0.5c-0.7,0.2-1.6,0.1-1.6-0.9v-2.9h-0.5v-0.5h0.5l0.2-1h0.5v1h0.8v0.5
	h-0.8V131.9"/>
<path fill="#010101" d="M137.7,133.1c-2,0.1-1.2-2.6-1.4-4.4h0.7v2.7c0,0.7,0.2,1.1,0.9,1.1c1.6,0,1-2.3,1.1-3.8h0.7l0,4.3h-0.7
	c0-0.2,0-0.6,0-0.7C138.8,132.7,138.4,133,137.7,133.1"/>
<path fill="#010101" d="M143.3,129.8c-0.1-0.8-1.9-0.9-2,0c0.3,1.2,2.6,0.3,2.7,2c0.1,1.8-3.4,1.7-3.5,0.2l0.6-0.1
	c0.1,0.8,2.2,1,2.2,0c-0.2-1.3-2.5-0.3-2.7-2c-0.1-1.3,1.8-1.4,2.7-0.9c0.3,0.2,0.5,0.4,0.5,0.8"/>
<path fill="#010101" d="M145.3,129.2h-0.6l-0.1-1.8h0.7 M146.8,129.2h-0.6l-0.1-1.8h0.7L146.8,129.2z"/>
<path fill="#010101" d="M147.9,133v-0.8h0.8v0.8H147.9 M147.9,129.5v-0.8h0.8v0.8H147.9z"/>
<path fill="#010101" d="M150.4,129.2h-0.6l-0.1-1.8h0.7 M151.9,129.2h-0.6l-0.1-1.8h0.7L151.9,129.2z"/>
<path fill="#010101" d="M154.7,132.5c0.9,0,1-0.8,1-1.7c0-0.9-0.1-1.6-1-1.7c-0.9,0-1.1,0.7-1.1,1.7
	C153.5,131.9,153.8,132.5,154.7,132.5 M154.9,128.6c1.2,0,1.6,0.9,1.6,2.2s-0.4,2.2-1.6,2.3c-0.7,0-1.1-0.3-1.4-0.8l0,2.4h-0.7l0-6
	h0.7l0,0.7C153.8,128.9,154.2,128.6,154.9,128.6z"/>
<path fill="#010101" d="M160.2,130.4c0.1-1.4-1.7-1.7-2.2-0.6c-0.1,0.2-0.1,0.4-0.1,0.6H160.2 M159,128.6c1.4,0,1.9,0.9,1.9,2.4h-3
	c0,0.9,0.3,1.5,1.2,1.5c0.6,0,1-0.3,1.1-0.7l0.6,0.2c-0.2,0.6-0.8,1-1.7,1c-1.3,0-2-0.8-2-2.3C157.1,129.4,157.7,128.6,159,128.6z"
	/>
<path fill="#010101" d="M163.9,128.6c2-0.1,1.2,2.6,1.4,4.4h-0.7v-2.7c0-0.7-0.2-1.1-0.9-1.1c-1.6,0-1,2.3-1.1,3.8h-0.7l0-4.3h0.7
	c0,0.2,0,0.5,0,0.7C162.8,128.9,163.2,128.6,163.9,128.6"/>
<path fill="#010101" d="M167.9,129.2c-0.9,0-1,0.8-1,1.7c0,0.9,0.1,1.7,1,1.7c0.9,0,1.1-0.7,1.1-1.7
	C169,129.9,168.8,129.1,167.9,129.2 M167.7,128.6c0.7,0,1.1,0.3,1.4,0.7l0-2.3h0.7l0,5.9h-0.7c0-0.2,0-0.5-0.1-0.7
	c-0.2,0.5-0.6,0.8-1.3,0.8c-1.2,0-1.6-0.9-1.6-2.2C166.1,129.4,166.6,128.6,167.7,128.6z"/>
<path fill="#010101" d="M170.8,133v-4.3h0.7v4.3H170.8 M170.8,127.8v-0.7h0.7v0.7H170.8z"/>
<path fill="#010101" d="M174.7,128.6c2-0.1,1.2,2.6,1.4,4.4h-0.7v-2.7c0-0.7-0.2-1.1-0.9-1.1c-1.6,0-1,2.3-1.1,3.8h-0.7l0-4.3h0.7
	c0,0.2,0,0.5,0,0.7C173.6,128.9,174,128.6,174.7,128.6"/>
<path fill="#010101" d="M178.7,132.5c0.8,0,1.1-0.7,1.1-1.6c0-0.9-0.3-1.7-1.1-1.7c-0.9,0-1,0.8-1,1.7
	C177.6,131.8,177.8,132.5,178.7,132.5 M180.5,128.7c-0.2,2.8,0.9,6.6-2.5,5.9c-0.5-0.1-0.9-0.4-1-1l0.7-0.1c0.3,1.1,2.3,0.7,2-0.6
	v-0.7c-0.2,0.5-0.7,0.8-1.4,0.8c-1.2,0-1.5-0.9-1.5-2.2c0-1.3,0.4-2.2,1.6-2.2c0.7,0,1.1,0.4,1.3,0.8c0-0.2,0-0.5,0-0.7H180.5z"/>
<path fill="#010101" d="M182,129.2h-0.6l-0.1-1.8h0.7 M183.5,129.2h-0.6l-0.1-1.8h0.7L183.5,129.2z"/>
<path fill="#010101" d="M185.4,132.1c0,0.8,0,1.5-0.3,1.9h-0.5c0.2-0.3,0.4-0.6,0.4-1h-0.4v-0.9H185.4"/>
<path fill="#010101" d="M187.2,129.2h-0.6l-0.1-1.8h0.7 M188.6,129.2h-0.6l-0.1-1.8h0.7L188.6,129.2z"/>
<path fill="#010101" d="M191.1,132.5c0.9,0,1.1-0.7,1.1-1.7s-0.2-1.6-1.1-1.6c-0.9,0-1,0.8-1,1.7S190.2,132.5,191.1,132.5
	 M192.3,132.3c-0.2,0.5-0.7,0.8-1.4,0.8c-1.2,0-1.6-0.9-1.6-2.2c0-1.3,0.4-2.2,1.6-2.3c0.7,0,1.1,0.3,1.4,0.7c0-0.2,0-0.5,0-0.7h0.7
	l0,6h-0.7L192.3,132.3z"/>
<path fill="#010101" d="M194.9,131.9c0,0.5,0.4,0.7,0.9,0.5v0.5c-0.7,0.2-1.6,0.1-1.6-0.9v-2.9h-0.5v-0.5h0.5l0.2-1h0.5v1h0.8v0.5
	h-0.8V131.9"/>
<path fill="#010101" d="M199.8,128.7l-1.9,5c-0.3,0.6-0.8,1.1-1.8,0.9v-0.5c0.9,0.1,1.2-0.4,1.4-1.1l-1.7-4.3h0.8l1.3,3.5l1.2-3.5
	H199.8"/>
<path fill="#010101" d="M200.8,129.2h-0.6l-0.1-1.8h0.7 M202.3,129.2h-0.6l-0.1-1.8h0.7L202.3,129.2z"/>
<path fill="#010101" d="M203.4,133v-0.8h0.8v0.8H203.4 M203.4,129.5v-0.8h0.8v0.8H203.4z"/>
<polyline fill="#010101" points="205.5,133 205.5,132.4 207,132.4 207,128.1 205.7,129 205.7,128.3 207,127.4 207.7,127.4 
	207.7,132.4 209,132.4 209,133 205.5,133 "/>
<path fill="#010101" d="M211.7,132.5c1.1,0,1.2-1.1,1.2-2.3s-0.1-2.3-1.2-2.3c-1.1,0-1.2,1.1-1.2,2.3
	C210.5,131.4,210.6,132.5,211.7,132.5 M211.7,127.3c1.5,0,1.9,1.2,1.9,2.9s-0.5,2.9-1.9,2.9c-1.5,0-1.9-1.3-1.9-2.9
	C209.7,128.5,210.1,127.3,211.7,127.3z"/>
<path fill="#010101" d="M216.2,132.5c1.1,0,1.2-1.1,1.2-2.3s-0.1-2.3-1.2-2.3c-1.1,0-1.2,1.1-1.2,2.3
	C215,131.4,215.1,132.5,216.2,132.5 M216.2,127.3c1.5,0,1.9,1.2,1.9,2.9s-0.5,2.9-1.9,2.9c-1.5,0-1.9-1.3-1.9-2.9
	C214.2,128.5,214.6,127.3,216.2,127.3z"/>
<path fill="#010101" d="M220.7,132.5c1.1,0,1.2-1.1,1.2-2.3s-0.1-2.3-1.2-2.3c-1.1,0-1.2,1.1-1.2,2.3
	C219.5,131.4,219.6,132.5,220.7,132.5 M220.7,127.3c1.5,0,1.9,1.2,1.9,2.9s-0.5,2.9-1.9,2.9c-1.5,0-1.9-1.3-1.9-2.9
	C218.7,128.5,219.1,127.3,220.7,127.3z"/>
<path fill="#010101" d="M224.5,132.1c0,0.8,0,1.5-0.3,1.9h-0.5c0.2-0.3,0.4-0.6,0.4-1h-0.4v-0.9H224.5"/>
<path fill="#010101" d="M226.2,129.2h-0.6l-0.1-1.8h0.7 M227.6,129.2h-0.6l-0.1-1.8h0.7L227.6,129.2z"/>
<path fill="#010101" d="M229.4,131.9c0,0.5,0.4,0.7,0.9,0.5v0.5c-0.7,0.2-1.6,0.1-1.6-0.9v-2.9h-0.5v-0.5h0.5l0.2-1h0.5v1h0.8v0.5
	h-0.8V131.9"/>
<path fill="#010101" d="M230.8,133v-4.3h0.7v4.3H230.8 M230.8,127.8v-0.7h0.7v0.7H230.8z"/>
<path fill="#010101" d="M234.2,129.2c-0.9,0-1.1,0.7-1.1,1.6c0,0.9,0.2,1.7,1.1,1.7c0.5,0,0.9-0.3,1-0.9l0.7,0
	c-0.1,0.8-0.7,1.4-1.7,1.4c-1.3,0-1.7-0.9-1.8-2.2c-0.2-2.1,2.3-2.9,3.3-1.4c0.1,0.2,0.1,0.3,0.2,0.5l-0.7,0.1
	C235.1,129.5,234.8,129.2,234.2,129.2"/>
<polyline fill="#010101" points="239.3,133 237.9,131 237.4,131.5 237.4,133 236.7,133 236.7,127.1 237.4,127.1 237.4,130.8 
	239.2,128.7 240.1,128.7 238.3,130.6 240.2,133 239.3,133 "/>
<path fill="#010101" d="M243.6,130.4c0.1-1.4-1.7-1.7-2.2-0.6c-0.1,0.2-0.1,0.4-0.1,0.6H243.6 M242.4,128.6c1.4,0,1.9,0.9,1.9,2.4
	h-3c0,0.9,0.3,1.5,1.2,1.5c0.6,0,1-0.3,1.1-0.7l0.6,0.2c-0.2,0.6-0.8,1-1.7,1c-1.3,0-2-0.8-2-2.3
	C240.5,129.4,241.1,128.6,242.4,128.6z"/>
<path fill="#010101" d="M247.2,129.3c-1.8-0.4-1.2,2-1.3,3.7h-0.7l0-4.3h0.7c0,0.3,0,0.7,0,0.9c0.1-0.6,0.5-1.1,1.3-0.9V129.3"/>
<path fill="#010101" d="M248.3,129.2h-0.6l-0.1-1.8h0.7 M249.8,129.2h-0.6l-0.1-1.8h0.7L249.8,129.2z"/>
<path fill="#010101" d="M250.9,133v-0.8h0.8v0.8H250.9 M250.9,129.5v-0.8h0.8v0.8H250.9z"/>
<path fill="#010101" d="M253.4,129.2h-0.6l-0.1-1.8h0.7 M254.9,129.2h-0.6l-0.1-1.8h0.7L254.9,129.2z"/>
<path fill="#010101" d="M260.7,133l0-4.9c-0.5,1.7-1.2,3.3-1.8,4.9h-0.5l-1.8-4.9l0,4.9H256v-5.6h1l1.7,4.7c0.5-1.7,1.1-3.1,1.7-4.7
	h1v5.6H260.7"/>
<path fill="#010101" d="M266.2,128.7c-0.1-1.1-2.8-1.2-2.8,0c0.3,1.7,3.6,0.3,3.7,2.7c0.1,1.8-2.7,2-3.9,1.2c-0.4-0.2-0.6-0.6-0.7-1
	l0.7-0.2c0.1,1.3,3.2,1.4,3.2,0c0-1.8-3.5-0.3-3.6-2.7c-0.1-1.8,3.3-1.9,4-0.8c0.1,0.2,0.2,0.4,0.2,0.6"/>
<polyline fill="#010101" points="268.9,128 268.9,130.1 272,130.1 272,130.7 268.9,130.7 268.9,133 268.1,133 268.1,127.4 
	272,127.4 272,128 268.9,128 "/>
<polyline fill="#010101" points="275.2,128 275.2,133 274.5,133 274.5,128 272.5,128 272.5,127.4 277.1,127.4 277.1,128 275.2,128 
	"/>
<path fill="#010101" d="M278.3,129.2h-0.6l-0.1-1.8h0.7 M279.7,129.2h-0.6l-0.1-1.8h0.7L279.7,129.2z"/>
<path fill="#010101" d="M281.9,132.1c0,1.4,0.2,2.9-1.6,2.6v-0.5c1.8,0.3,0.1-2.9,1.7-3.3c-0.9-0.1-0.8-1.3-0.8-2.4
	c0-0.7-0.2-0.9-0.9-0.9v-0.5c1-0.1,1.6,0.2,1.6,1.2c0,1.1-0.3,2.4,0.9,2.4v0.5C282.1,131.2,281.8,131.5,281.9,132.1"/>
<path fill="#E6E6E5" d="M403,124.3c0-1.3,1-2.3,2.3-2.3h112.5c1.3,0,2.3,1,2.3,2.3v13.5c0,1.3-1,2.3-2.3,2.3H405.2
	c-1.3,0-2.3-1-2.3-2.3V124.3z"/>
<path fill="none" stroke="#010101" stroke-width="0.9" stroke-miterlimit="10" d="M403,124.3c0-1.3,1-2.3,2.3-2.3h112.5
	c1.3,0,2.3,1,2.3,2.3v13.5c0,1.3-1,2.3-2.3,2.3H405.2c-1.3,0-2.3-1-2.3-2.3V124.3z"/>
<path fill="#010101" d="M406.6,130.9c1.7,0.3-0.2,3.5,1.7,3.3v0.5c-1,0.1-1.6-0.2-1.6-1.2c0-1,0.2-2.4-0.9-2.4v-0.5
	c1.8,0.1-0.2-3.6,1.9-3.5h0.5v0.5C406.4,127.3,408.2,130.6,406.6,130.9"/>
<path fill="#010101" d="M409.4,129.2h-0.6l-0.1-1.8h0.7 M410.9,129.2h-0.6l-0.1-1.8h0.7L410.9,129.2z"/>
<path fill="#010101" d="M413.5,132.5c1,0,1.2-0.7,1.2-1.7c0-1-0.2-1.7-1.1-1.7s-1.2,0.7-1.2,1.7S412.6,132.5,413.5,132.5
	 M413.5,128.6c1.4,0,1.9,0.8,1.9,2.2c0,1.4-0.6,2.2-1.9,2.2c-1.3,0-1.9-0.9-1.9-2.2C411.6,129.4,412.2,128.6,413.5,128.6z"/>
<path fill="#010101" d="M418.3,129.3c-1.8-0.4-1.2,2-1.3,3.7h-0.7l0-4.3h0.7c0,0.3,0,0.7,0,0.9c0.1-0.6,0.5-1.1,1.3-0.9V129.3"/>
<path fill="#010101" d="M420.5,129.2c-0.9,0-1,0.8-1,1.7c0,0.9,0.1,1.7,1,1.7c0.9,0,1.1-0.7,1.1-1.7
	C421.7,129.9,421.5,129.1,420.5,129.2 M420.3,128.6c0.7,0,1.1,0.3,1.4,0.7l0-2.3h0.7l0,5.9h-0.7c0-0.2,0-0.5-0.1-0.7
	c-0.2,0.5-0.6,0.8-1.3,0.8c-1.2,0-1.6-0.9-1.6-2.2C418.8,129.4,419.3,128.6,420.3,128.6z"/>
<path fill="#010101" d="M426.4,130.4c0.1-1.4-1.7-1.7-2.2-0.6c-0.1,0.2-0.1,0.4-0.1,0.6H426.4 M425.2,128.6c1.4,0,1.9,0.9,1.9,2.4
	h-3c0,0.9,0.3,1.5,1.2,1.5c0.6,0,1-0.3,1.1-0.7l0.6,0.2c-0.2,0.6-0.8,1-1.7,1c-1.3,0-2-0.8-2-2.3
	C423.3,129.4,423.9,128.6,425.2,128.6z"/>
<path fill="#010101" d="M430,129.3c-1.8-0.4-1.2,2-1.3,3.7H428l0-4.3h0.7c0,0.3,0,0.7,0,0.9c0.1-0.6,0.5-1.1,1.3-0.9V129.3"/>
<path fill="#010101" d="M431.1,129.2h-0.6l-0.1-1.8h0.7 M432.6,129.2H432l-0.1-1.8h0.7L432.6,129.2z"/>
<path fill="#010101" d="M433.7,133v-0.8h0.8v0.8H433.7 M433.7,129.5v-0.8h0.8v0.8H433.7z"/>
<path fill="#010101" d="M438.1,130.1c0.7,0.1,1.3,0.5,1.3,1.3c0,2-3.1,2.1-3.7,0.7c-0.1-0.2-0.1-0.4-0.1-0.6l0.7-0.1
	c0.1,0.6,0.5,1,1.2,1c0.7,0,1.2-0.3,1.2-1c0-0.9-0.8-1-1.8-1v-0.6c0.9,0,1.6-0.1,1.6-0.9c0-0.6-0.4-1-1-1c-0.6,0-1.1,0.3-1.1,0.9
	l-0.7-0.1c0.1-0.9,0.8-1.4,1.8-1.4c1.1,0,1.8,0.5,1.8,1.5C439.2,129.6,438.8,130,438.1,130.1"/>
<path fill="#010101" d="M441.2,132.1c0,0.8,0,1.5-0.3,1.9h-0.5c0.2-0.3,0.4-0.6,0.4-1h-0.4v-0.9H441.2"/>
<path fill="#010101" d="M443,129.2h-0.6l-0.1-1.8h0.7 M444.4,129.2h-0.6l-0.1-1.8h0.7L444.4,129.2z"/>
<path fill="#010101" d="M447.9,129.8c-0.1-0.8-1.9-0.9-2,0c0.3,1.2,2.6,0.3,2.7,2c0.1,1.8-3.4,1.7-3.5,0.2l0.6-0.1
	c0.1,0.8,2.2,1,2.2,0c-0.2-1.3-2.5-0.3-2.7-2c-0.1-1.3,1.8-1.4,2.7-0.9c0.3,0.2,0.5,0.4,0.5,0.8"/>
<path fill="#010101" d="M450.2,131.9c0,0.5,0.4,0.7,0.9,0.5v0.5c-0.7,0.2-1.6,0.1-1.6-0.9v-2.9H449v-0.5h0.5l0.2-1h0.5v1h0.8v0.5
	h-0.8V131.9"/>
<path fill="#010101" d="M452.2,131.8c0,0.4,0.3,0.7,0.7,0.7c0.9-0.1,1.4-0.7,1.4-1.7C453.3,130.9,452.2,130.8,452.2,131.8
	 M454.3,132.2c-0.3,0.5-0.7,0.9-1.5,0.9c-0.8,0-1.3-0.5-1.3-1.3c0-1.4,1.4-1.4,2.8-1.4c0.1-0.8-0.2-1.2-0.9-1.2
	c-0.5,0-0.9,0.2-0.9,0.7l-0.7-0.1c0.1-0.8,0.7-1.2,1.7-1.2c1,0,1.6,0.5,1.6,1.4v1.8c0,0.5,0.2,0.7,0.6,0.6v0.4
	C454.9,133.2,454.3,132.9,454.3,132.2z"/>
<path fill="#010101" d="M457,131.9c0,0.5,0.4,0.7,0.9,0.5v0.5c-0.7,0.2-1.6,0.1-1.6-0.9v-2.9h-0.5v-0.5h0.5l0.2-1h0.5v1h0.8v0.5H457
	V131.9"/>
<path fill="#010101" d="M459.8,133.1c-2,0.1-1.2-2.6-1.4-4.4h0.7v2.7c0,0.7,0.2,1.1,0.9,1.1c1.6,0,1-2.3,1.1-3.8h0.7l0,4.3h-0.7
	c0-0.2,0-0.6,0-0.7C460.9,132.7,460.5,133,459.8,133.1"/>
<path fill="#010101" d="M465.4,129.8c-0.1-0.8-1.9-0.9-2,0c0.3,1.2,2.6,0.3,2.7,2c0.1,1.8-3.4,1.7-3.5,0.2l0.6-0.1
	c0.1,0.8,2.2,1,2.2,0c-0.2-1.3-2.5-0.3-2.7-2c-0.1-1.3,1.8-1.4,2.7-0.9c0.3,0.2,0.5,0.4,0.5,0.8"/>
<path fill="#010101" d="M467.4,129.2h-0.6l-0.1-1.8h0.7 M468.9,129.2h-0.6l-0.1-1.8h0.7L468.9,129.2z"/>
<path fill="#010101" d="M470,133v-0.8h0.8v0.8H470 M470,129.5v-0.8h0.8v0.8H470z"/>
<path fill="#010101" d="M472.5,129.2H472l-0.1-1.8h0.7 M474,129.2h-0.6l-0.1-1.8h0.7L474,129.2z"/>
<path fill="#010101" d="M476.8,132.5c0.9,0,1-0.8,1-1.7c0-0.9-0.1-1.6-1-1.7c-0.9,0-1.1,0.7-1.1,1.7
	C475.7,131.9,475.9,132.5,476.8,132.5 M477,128.6c1.2,0,1.6,0.9,1.6,2.2s-0.4,2.2-1.6,2.3c-0.7,0-1.1-0.3-1.3-0.8l0,2.4h-0.7l0-6
	h0.7l0,0.7C475.9,128.9,476.3,128.6,477,128.6z"/>
<path fill="#010101" d="M482.3,130.4c0.1-1.4-1.7-1.7-2.2-0.6c-0.1,0.2-0.1,0.4-0.1,0.6H482.3 M481.1,128.6c1.4,0,1.9,0.9,1.9,2.4
	h-3c0,0.9,0.3,1.5,1.2,1.5c0.6,0,1-0.3,1.1-0.7l0.6,0.2c-0.2,0.6-0.8,1-1.7,1c-1.3,0-2-0.8-2-2.3
	C479.3,129.4,479.8,128.6,481.1,128.6z"/>
<path fill="#010101" d="M486,128.6c2-0.1,1.2,2.6,1.4,4.4h-0.7v-2.7c0-0.7-0.2-1.1-0.9-1.1c-1.6,0-1,2.3-1.1,3.8H484l0-4.3h0.7
	c0,0.2,0,0.5,0,0.7C484.9,128.9,485.3,128.6,486,128.6"/>
<path fill="#010101" d="M490,129.2c-0.9,0-1,0.8-1,1.7c0,0.9,0.1,1.7,1,1.7c0.9,0,1.1-0.7,1.1-1.7
	C491.1,129.9,490.9,129.1,490,129.2 M489.8,128.6c0.7,0,1.1,0.3,1.3,0.7l0-2.3h0.7l0,5.9h-0.7c0-0.2,0-0.5-0.1-0.7
	c-0.2,0.5-0.6,0.8-1.3,0.8c-1.2,0-1.6-0.9-1.6-2.2C488.2,129.4,488.7,128.6,489.8,128.6z"/>
<path fill="#010101" d="M492.9,133v-4.3h0.7v4.3H492.9 M492.9,127.8v-0.7h0.7v0.7H492.9z"/>
<path fill="#010101" d="M496.8,128.6c2-0.1,1.2,2.6,1.4,4.4h-0.7v-2.7c0-0.7-0.2-1.1-0.9-1.1c-1.6,0-1,2.3-1.1,3.8h-0.7l0-4.3h0.7
	c0,0.2,0,0.5,0,0.7C495.7,128.9,496.1,128.6,496.8,128.6"/>
<path fill="#010101" d="M500.8,132.5c0.8,0,1.1-0.7,1.1-1.6c0-0.9-0.3-1.7-1.1-1.7c-0.9,0-1,0.8-1,1.7
	C499.7,131.8,499.9,132.5,500.8,132.5 M502.7,128.7c-0.2,2.8,0.9,6.6-2.5,5.9c-0.5-0.1-0.9-0.4-1-1l0.7-0.1c0.3,1.1,2.3,0.7,2-0.6
	v-0.7c-0.2,0.5-0.7,0.8-1.4,0.8c-1.2,0-1.5-0.9-1.5-2.2c0-1.3,0.4-2.2,1.6-2.2c0.7,0,1.1,0.4,1.3,0.8c0-0.2,0-0.5,0-0.7H502.7z"/>
<path fill="#010101" d="M504.2,129.2h-0.6l-0.1-1.8h0.7 M505.6,129.2h-0.6l-0.1-1.8h0.7L505.6,129.2z"/>
<path fill="#010101" d="M507.7,132.1c0,1.4,0.2,2.9-1.6,2.6v-0.5c1.8,0.3,0.1-2.9,1.7-3.3c-0.9-0.1-0.8-1.3-0.8-2.4
	c0-0.7-0.2-0.9-0.9-0.9v-0.5c1-0.1,1.6,0.2,1.6,1.2c0,1.1-0.3,2.4,0.9,2.4v0.5C508,131.2,507.7,131.5,507.7,132.1"/>
<polyline fill="none" stroke="#010101" stroke-width="0.9" stroke-miterlimit="10" points="70,122 70.1,118.9 70.3,115.9 70.7,113 
	71.2,110.1 71.8,107.3 72.6,104.7 73.4,102.2 74.3,99.8 75.3,97.6 76.4,95.6 77.5,93.6 78.6,91.9 79.8,90.3 81,88.7 82.2,87.4 
	83.5,86.1 84.8,84.9 86,83.8 87.3,82.9 88.7,82 90,81.1 91.4,80.4 92.8,79.7 94.2,79.2 95.6,78.6 97.1,78.2 98.6,77.8 100.2,77.5 
	101.8,77.3 103.5,77.1 105.2,77 106,77 "/>
<polygon fill="#010101" points="69.5,122 70,122 69.6,122 "/>
<polygon fill="#010101" points="106,77 99.8,79.7 99.4,75.6 "/>
<g>
	<polygon fill="none" points="104.5,77.1 99.9,76.1 100.2,79 	"/>
	<path fill="#010101" d="M99.5,80.4l6.5-2.9v-1L98.9,75L99.5,80.4z M104.5,77.1l-4.3,1.9l-0.3-2.9L104.5,77.1z"/>
</g>
<polyline fill="none" stroke="#010101" stroke-width="0.9" stroke-miterlimit="10" points="385.4,77 393.3,77.2 400.5,77.6 
	406.9,78.3 412.7,79.1 417.7,80.1 422.2,81.1 426.1,82.2 429.6,83.4 432.8,84.6 435.6,85.7 438.1,86.9 440.3,88.1 442.4,89.2 
	444.2,90.4 445.9,91.6 447.4,92.8 448.9,93.9 450.1,95.1 451.3,96.3 452.4,97.4 453.4,98.6 454.4,99.8 455.2,101 456.1,102.2 
	456.8,103.4 457.4,104.6 458.1,105.9 458.7,107.2 459.2,108.5 459.7,109.9 460.1,111.3 460.5,112.8 460.8,114.3 461,115.8 
	461.3,117.5 461.4,119.2 461.5,121.1 461.5,122 "/>
<polygon fill="#010101" points="385.5,76.5 385.5,77 385.5,76.6 "/>
<polygon fill="#010101" points="461.5,122 458.9,115.7 463.1,115.4 "/>
<g>
	<polygon fill="none" points="462.5,115.9 459.5,116.1 461.4,120.6 	"/>
	<path fill="#010101" d="M463.7,114.9l-5.4,0.4l2.8,6.7h1L463.7,114.9z M462.5,115.9l-1.1,4.6l-1.8-4.4L462.5,115.9z"/>
</g>
<path fill="#010101" d="M50.6,96.2c0.9,0,1-0.8,1-1.7c0-0.9-0.1-1.6-1-1.7c-0.9,0-1.1,0.7-1.1,1.7C49.4,95.5,49.7,96.2,50.6,96.2
	 M50.8,92.3c1.2,0,1.6,0.9,1.6,2.2s-0.4,2.2-1.6,2.3c-0.7,0-1.1-0.3-1.3-0.8l0,2.4h-0.7l0-6h0.7l0,0.7
	C49.7,92.5,50.1,92.3,50.8,92.3z"/>
<path fill="#010101" d="M54.6,96.7c-2,0.1-1.2-2.6-1.4-4.4h0.7V95c0,0.7,0.2,1.1,0.9,1.1c1.6,0,1-2.3,1.1-3.8h0.7l0,4.3H56
	c0-0.2,0-0.6,0-0.7C55.7,96.4,55.3,96.7,54.6,96.7"/>
<path fill="#010101" d="M59.6,96.2c0.9,0,1-0.8,1-1.7c0-0.9-0.1-1.7-1-1.7c-0.9,0-1.1,0.7-1.1,1.7C58.4,95.5,58.7,96.2,59.6,96.2
	 M59.8,92.3c1.2,0,1.6,0.9,1.6,2.2c0,1.5-0.5,2.3-1.6,2.3c-0.7,0-1.1-0.2-1.3-0.8l0,0.7h-0.7l0-5.9h0.7V93
	C58.7,92.5,59.1,92.3,59.8,92.3z"/>
<polyline fill="#010101" points="62.2,96.6 62.2,90.7 62.9,90.7 62.9,96.6 62.2,96.6 "/>
<path fill="#010101" d="M64,96.6v-4.3h0.7v4.3H64 M64,91.4v-0.7h0.7v0.7H64z"/>
<path fill="#010101" d="M68.3,93.4c-0.1-0.8-1.9-0.9-2,0c0.3,1.2,2.6,0.3,2.7,2c0.1,1.8-3.4,1.7-3.5,0.2l0.6-0.1
	c0.1,0.8,2.2,1,2.2,0c-0.2-1.3-2.5-0.3-2.7-2c-0.1-1.3,1.8-1.4,2.7-0.9c0.3,0.2,0.5,0.4,0.5,0.8"/>
<path fill="#010101" d="M71.7,92.8c-1.6,0-1,2.3-1.1,3.8h-0.7v-5.9h0.7l0,2.3c0.3-0.5,0.6-0.8,1.4-0.8c2,0,1.2,2.6,1.3,4.4h-0.7
	v-2.7C72.6,93.2,72.4,92.8,71.7,92.8"/>
<path fill="#010101" d="M457.8,88.3c-0.9,0-1,0.8-1,1.7c0,0.9,0.1,1.7,1,1.7c0.9,0,1.1-0.7,1.1-1.7C458.9,89,458.7,88.3,457.8,88.3
	 M457.6,87.8c0.7,0,1.1,0.3,1.4,0.7l0-2.3h0.7l0,5.9H459c0-0.2,0-0.5-0.1-0.7c-0.2,0.5-0.6,0.8-1.3,0.8c-1.2,0-1.6-0.9-1.6-2.2
	C456,88.5,456.5,87.8,457.6,87.8z"/>
<path fill="#010101" d="M463.6,89.6c0.1-1.4-1.7-1.7-2.2-0.6c-0.1,0.2-0.1,0.4-0.1,0.6H463.6 M462.4,87.8c1.4,0,1.9,0.9,1.9,2.4h-3
	c0,0.9,0.3,1.5,1.2,1.5c0.6,0,1-0.3,1.1-0.7l0.6,0.2c-0.2,0.6-0.8,1-1.7,1c-1.3,0-2-0.8-2-2.3C460.5,88.6,461.1,87.8,462.4,87.8z"/>
<polyline fill="#010101" points="465.2,92.1 465.2,86.2 465.9,86.2 465.9,92.1 465.2,92.1 "/>
<path fill="#010101" d="M467.8,91.1c0,0.5,0.4,0.7,0.9,0.5v0.5c-0.7,0.2-1.6,0.1-1.6-0.9v-2.9h-0.5v-0.5h0.5l0.2-1h0.5v1h0.8v0.5
	h-0.8V91.1"/>
<path fill="#010101" d="M469.8,90.9c0,0.4,0.3,0.7,0.7,0.7c0.9-0.1,1.4-0.7,1.4-1.7C470.9,90.1,469.8,89.9,469.8,90.9 M471.8,91.3
	c-0.3,0.5-0.7,0.9-1.5,0.9c-0.8,0-1.3-0.5-1.3-1.3c0-1.4,1.4-1.4,2.8-1.4c0.1-0.8-0.2-1.2-0.9-1.2c-0.5,0-0.9,0.2-0.9,0.7l-0.7-0.1
	c0.1-0.8,0.7-1.2,1.7-1.2c1,0,1.6,0.5,1.6,1.4V91c0,0.5,0.2,0.7,0.6,0.6v0.4C472.5,92.3,471.8,92.1,471.8,91.3z"/>
<polyline fill="#010101" points="473.1,93.7 473.1,93.2 477.8,93.2 477.8,93.7 473.1,93.7 "/>
<path fill="#010101" d="M480.7,88.9c-0.1-0.8-1.9-0.9-2,0c0.3,1.2,2.6,0.3,2.7,2c0.1,1.8-3.4,1.7-3.5,0.2l0.6-0.1
	c0.1,0.8,2.2,1,2.2,0c-0.2-1.3-2.5-0.3-2.7-2c-0.1-1.3,1.8-1.4,2.7-0.9c0.3,0.2,0.5,0.4,0.5,0.8"/>
<path fill="#010101" d="M483.6,92.2c-2,0.1-1.2-2.6-1.4-4.4h0.7v2.7c0,0.7,0.2,1.1,0.9,1.1c1.6,0,1-2.3,1.1-3.8h0.7l0,4.3H485
	c0-0.2,0-0.6,0-0.7C484.7,91.9,484.3,92.2,483.6,92.2"/>
<path fill="#010101" d="M488.6,91.7c0.9,0,1-0.8,1-1.7c0-0.9-0.1-1.7-1-1.7c-0.9,0-1.1,0.7-1.1,1.7C487.5,91,487.7,91.7,488.6,91.7
	 M488.8,87.8c1.2,0,1.6,0.9,1.6,2.2c0,1.5-0.5,2.3-1.6,2.3c-0.7,0-1.1-0.2-1.3-0.8l0,0.7h-0.7l0-5.9h0.7v2.3
	C487.7,88,488.1,87.8,488.8,87.8z"/>
<path fill="#010101" d="M493.8,88.9c-0.1-0.8-1.9-0.9-2,0c0.3,1.2,2.6,0.3,2.7,2c0.1,1.8-3.4,1.7-3.5,0.2l0.6-0.1
	c0.1,0.8,2.2,1,2.2,0c-0.2-1.3-2.5-0.3-2.7-2c-0.1-1.3,1.8-1.4,2.7-0.9c0.3,0.2,0.5,0.4,0.5,0.8"/>
<path fill="#010101" d="M496.9,88.3c-0.9,0-1.1,0.7-1.1,1.6c0,0.9,0.2,1.7,1.1,1.7c0.5,0,0.9-0.3,1-0.9l0.7,0
	c-0.1,0.8-0.7,1.4-1.7,1.4c-1.3,0-1.7-0.9-1.8-2.2c-0.2-2.1,2.3-2.9,3.3-1.4c0.1,0.2,0.1,0.3,0.2,0.5l-0.7,0.1
	C497.8,88.6,497.5,88.3,496.9,88.3"/>
<path fill="#010101" d="M501.4,88.5c-1.8-0.4-1.2,2-1.3,3.7h-0.7l0-4.3h0.7c0,0.3,0,0.7,0,0.9c0.1-0.6,0.5-1.1,1.3-0.9V88.5"/>
<path fill="#010101" d="M502,92.1v-4.3h0.7v4.3H502 M502,86.9v-0.7h0.7v0.7H502z"/>
<path fill="#010101" d="M505.7,91.7c0.9,0,1-0.8,1-1.7c0-0.9-0.1-1.7-1-1.7c-0.9,0-1.1,0.7-1.1,1.7C504.5,91,504.8,91.7,505.7,91.7
	 M505.9,87.8c1.2,0,1.6,0.9,1.6,2.2c0,1.5-0.5,2.3-1.6,2.3c-0.7,0-1.1-0.2-1.3-0.8l0,0.7h-0.7l0-5.9h0.7v2.3
	C504.8,88,505.2,87.8,505.9,87.8z"/>
<path fill="#010101" d="M511.2,89.6c0.1-1.4-1.7-1.7-2.2-0.6c-0.1,0.2-0.1,0.4-0.1,0.6H511.2 M510,87.8c1.4,0,1.9,0.9,1.9,2.4h-3
	c0,0.9,0.3,1.5,1.2,1.5c0.6,0,1-0.3,1.1-0.7l0.6,0.2c-0.2,0.6-0.8,1-1.7,1c-1.3,0-2-0.8-2-2.3C508.1,88.6,508.7,87.8,510,87.8z"/>
<g>
	<path fill="#010101" d="M251,84.1c0.9,0,1-0.8,1-1.7c0-0.9-0.1-1.6-1-1.7c-0.9,0-1.1,0.7-1.1,1.7C249.9,83.4,250.1,84.1,251,84.1
		 M251.2,80.2c1.2,0,1.6,0.9,1.6,2.2s-0.4,2.2-1.6,2.3c-0.7,0-1.1-0.3-1.4-0.8l0,2.4h-0.7l0-6h0.7l0,0.7
		C250.1,80.4,250.5,80.2,251.2,80.2z"/>
	<path fill="#010101" d="M256.5,82c0.1-1.4-1.7-1.7-2.2-0.6c-0.1,0.2-0.1,0.4-0.1,0.6H256.5 M255.3,80.2c1.4,0,1.9,0.9,1.9,2.4h-3
		c0,0.9,0.3,1.5,1.2,1.5c0.6,0,1-0.3,1.1-0.7l0.6,0.2c-0.2,0.6-0.8,1-1.7,1c-1.3,0-2-0.8-2-2.3C253.5,81,254,80.2,255.3,80.2z"/>
	<path fill="#010101" d="M260.2,80.2c2-0.1,1.2,2.6,1.4,4.4h-0.7v-2.7c0-0.7-0.2-1.1-0.9-1.1c-1.6,0-1,2.3-1.1,3.8h-0.7l0-4.3h0.7
		c0,0.2,0,0.5,0,0.7C259.1,80.5,259.5,80.2,260.2,80.2"/>
	<path fill="#010101" d="M264.2,80.7c-0.9,0-1,0.8-1,1.7c0,0.9,0.1,1.7,1,1.7c0.9,0,1.1-0.7,1.1-1.7
		C265.3,81.4,265.1,80.7,264.2,80.7 M264,80.2c0.7,0,1.1,0.3,1.4,0.7l0-2.3h0.7l0,5.9h-0.7c0-0.2,0-0.5-0.1-0.7
		c-0.2,0.5-0.6,0.8-1.3,0.8c-1.2,0-1.6-0.9-1.6-2.2C262.4,80.9,262.9,80.2,264,80.2z"/>
	<path fill="#010101" d="M267.1,84.5v-4.3h0.7v4.3H267.1 M267.1,79.3v-0.7h0.7v0.7H267.1z"/>
	<path fill="#010101" d="M271,80.2c2-0.1,1.2,2.6,1.4,4.4h-0.7v-2.7c0-0.7-0.2-1.1-0.9-1.1c-1.6,0-1,2.3-1.1,3.8h-0.7l0-4.3h0.7
		c0,0.2,0,0.5,0,0.7C269.9,80.5,270.3,80.2,271,80.2"/>
	<path fill="#010101" d="M275,84c0.8,0,1.1-0.7,1.1-1.6c0-0.9-0.3-1.7-1.1-1.7c-0.9,0-1,0.8-1,1.7C274,83.3,274.1,84,275,84
		 M276.9,80.2c-0.2,2.8,0.9,6.6-2.5,5.9c-0.5-0.1-0.9-0.4-1-1l0.7-0.1c0.3,1.1,2.3,0.7,2-0.6v-0.7c-0.2,0.5-0.7,0.8-1.4,0.8
		c-1.2,0-1.5-0.9-1.5-2.2c0-1.3,0.4-2.2,1.6-2.2c0.7,0,1.1,0.4,1.3,0.8c0-0.2,0-0.5,0-0.7H276.9z"/>
</g>
<line fill="none" stroke="#010101" stroke-width="0.75" stroke-miterlimit="10" x1="250" y1="76.7" x2="274" y2="77"/>
</svg>
