<?xml version="1.0" encoding="utf-8"?>
<!-- Generator: Adobe Illustrator 17.1.0, SVG Export Plug-In . SVG Version: 6.00 Build 0)  -->
<!DOCTYPE svg PUBLIC "-//W3C//DTD SVG 1.1 Tiny//EN" "http://www.w3.org/Graphics/SVG/1.1/DTD/svg11-tiny.dtd">
<svg version="1.1" baseProfile="tiny" id="Layer_1" xmlns="http://www.w3.org/2000/svg" xmlns:xlink="http://www.w3.org/1999/xlink"
	 x="0px" y="0px" width="296px" height="87px" viewBox="0 0 296 87" xml:space="preserve">
<path fill="#FFFFFF" d="M10,29.3c0-1.3,1-2.3,2.3-2.3h274.9c1.3,0,2.3,1,2.3,2.3v49.5c0,1.3-1,2.3-2.3,2.3H12.2C11,81,10,80,10,78.8
	V29.3z"/>
<path fill="none" stroke="#010101" stroke-width="0.9" stroke-miterlimit="10" d="M10,29.3c0-1.3,1-2.3,2.3-2.3h274.9
	c1.3,0,2.3,1,2.3,2.3v49.5c0,1.3-1,2.3-2.3,2.3H12.2C11,81,10,80,10,78.8V29.3z"/>
<path fill="#010101" d="M17.8,8.6c-0.2-2-5.1-2.2-5.2,0.1c0.6,3.1,6.6,0.6,6.8,5c0.1,3.2-5,3.6-7.3,2.3c-0.7-0.4-1.2-1.1-1.4-1.9
	l1.4-0.3c0.2,2.3,5.9,2.6,5.9,0c0-3.2-6.5-0.6-6.7-4.9c-0.2-3.4,6-3.5,7.5-1.4c0.2,0.3,0.3,0.7,0.5,1"/>
<path fill="#010101" d="M25.9,15.5c2.6,0,3.7-1.7,3.7-4.2c0-2.5-1.2-4.1-3.7-4.1c-2.5,0-3.7,1.6-3.7,4.1
	C22.2,13.8,23.4,15.4,25.9,15.5 M25.9,6c3.4,0,5.1,1.9,5.1,5.2c0,3.3-1.8,5.4-5.1,5.4c-3.4,0-5.1-2-5.1-5.4C20.8,7.9,22.5,6,25.9,6z
	"/>
<polyline fill="#010101" points="42.8,16.5 41.1,16.5 38.8,7.7 36.5,16.5 34.9,16.5 31.8,6.1 33.3,6.1 35.7,15.2 36.4,12.6 
	38.1,6.1 39.5,6.1 41.9,15.2 44.4,6.1 45.8,6.1 "/>
<path fill="#E6E6E5" d="M10,29.3c0-1.3,1-2.3,2.3-2.3h274.9c1.3,0,2.3,1,2.3,2.3v13.5c0,1.3-1,2.3-2.3,2.3H12.2C11,45,10,44,10,42.8
	V29.3z"/>
<path fill="none" stroke="#010101" stroke-width="0.9" stroke-miterlimit="10" d="M10,29.3c0-1.3,1-2.3,2.3-2.3h274.9
	c1.3,0,2.3,1,2.3,2.3v13.5c0,1.3-1,2.3-2.3,2.3H12.2C11,45,10,44,10,42.8V29.3z"/>
<path fill="#010101" d="M13.6,35.9c1.7,0.3-0.2,3.5,1.7,3.3v0.5c-1,0.1-1.6-0.2-1.6-1.2c0-1,0.2-2.4-0.9-2.4v-0.5
	c1.8,0.1-0.2-3.6,1.9-3.5h0.5v0.5C13.4,32.3,15.2,35.6,13.6,35.9"/>
<path fill="#010101" d="M16.4,34.2h-0.6l-0.1-1.8h0.7 M17.9,34.2h-0.6l-0.1-1.8h0.7L17.9,34.2z"/>
<path fill="#010101" d="M20.5,37.5c1,0,1.2-0.7,1.2-1.7c0-1-0.2-1.7-1.1-1.7c-1,0-1.2,0.7-1.2,1.7C19.3,36.8,19.6,37.5,20.5,37.5
	 M20.5,33.6c1.4,0,1.9,0.8,1.9,2.2c0,1.4-0.6,2.2-1.9,2.2s-1.9-0.9-1.9-2.2C18.6,34.4,19.2,33.6,20.5,33.6z"/>
<path fill="#010101" d="M25.3,34.3c-1.8-0.4-1.2,2-1.3,3.7h-0.7l0-4.3H24c0,0.3,0,0.7,0,0.9c0.1-0.6,0.5-1.1,1.3-0.9V34.3"/>
<path fill="#010101" d="M27.5,34.2c-0.9,0-1,0.8-1,1.7c0,0.9,0.1,1.7,1,1.7c0.9,0,1.1-0.7,1.1-1.7C28.7,34.9,28.5,34.1,27.5,34.2
	 M27.3,33.6c0.7,0,1.1,0.3,1.3,0.7l0-2.3h0.7l0,5.9h-0.7c0-0.2,0-0.5-0.1-0.7c-0.2,0.5-0.6,0.8-1.3,0.8c-1.2,0-1.6-0.9-1.6-2.2
	C25.8,34.4,26.3,33.6,27.3,33.6z"/>
<path fill="#010101" d="M33.4,35.4c0.1-1.3-1.7-1.7-2.2-0.6C31.1,35,31,35.2,31,35.4H33.4 M32.2,33.6c1.4,0,1.9,0.9,1.9,2.4h-3
	c0,0.9,0.3,1.5,1.2,1.5c0.6,0,1-0.3,1.1-0.7l0.6,0.2c-0.2,0.6-0.8,1-1.7,1c-1.3,0-2-0.8-2-2.3C30.3,34.4,30.9,33.6,32.2,33.6z"/>
<path fill="#010101" d="M37,34.3c-1.8-0.4-1.2,2-1.3,3.7H35l0-4.3h0.7c0,0.3,0,0.7,0,0.9c0.1-0.6,0.5-1.1,1.3-0.9V34.3"/>
<path fill="#010101" d="M38.1,34.2h-0.6l-0.1-1.8h0.7 M39.6,34.2H39l-0.1-1.8h0.7L39.6,34.2z"/>
<path fill="#010101" d="M40.7,38v-0.8h0.8V38H40.7 M40.7,34.5v-0.8h0.8v0.8H40.7z"/>
<polyline fill="#010101" points="42.8,38 42.8,37.4 44.3,37.4 44.3,33.1 43,34 43,33.3 44.3,32.4 45,32.4 45,37.4 46.3,37.4 
	46.3,38 42.8,38 "/>
<path fill="#010101" d="M48.3,37.1c0,0.8,0,1.5-0.3,1.9h-0.5c0.2-0.3,0.4-0.6,0.4-1h-0.4v-0.9H48.3"/>
<path fill="#010101" d="M50,34.2h-0.6l-0.1-1.8H50 M51.4,34.2h-0.6l-0.1-1.8h0.7L51.4,34.2z"/>
<path fill="#010101" d="M54,34.2c-0.9,0-1.1,0.7-1.1,1.6s0.2,1.7,1.1,1.7c0.5,0,0.9-0.3,1-0.9l0.7,0c-0.1,0.8-0.7,1.4-1.7,1.4
	c-1.3,0-1.7-0.9-1.8-2.2c-0.2-2.1,2.3-2.9,3.3-1.4c0.1,0.2,0.1,0.3,0.2,0.5L54.9,35C54.8,34.5,54.5,34.2,54,34.2"/>
<path fill="#010101" d="M57.8,38.1c-2,0.1-1.2-2.6-1.4-4.4h0.7v2.7c0,0.7,0.2,1.1,0.9,1.1c1.6,0,1-2.3,1.1-3.8h0.7l0,4.3h-0.7
	c0-0.2,0-0.6,0-0.7C58.9,37.7,58.5,38,57.8,38.1"/>
<path fill="#010101" d="M63.4,34.8c-0.1-0.8-1.9-0.9-2,0c0.3,1.2,2.6,0.3,2.7,2c0.1,1.8-3.4,1.7-3.5,0.2l0.6-0.1
	c0.1,0.8,2.2,1,2.2,0c-0.2-1.3-2.5-0.3-2.7-2c-0.1-1.3,1.8-1.4,2.7-0.9c0.3,0.2,0.5,0.4,0.5,0.8"/>
<path fill="#010101" d="M65.8,36.9c0,0.5,0.4,0.7,0.9,0.5V38c-0.7,0.2-1.6,0.1-1.6-0.9v-2.9h-0.5v-0.5h0.5l0.2-1h0.5v1h0.8v0.5h-0.8
	V36.9"/>
<path fill="#010101" d="M68.9,37.5c1,0,1.2-0.7,1.2-1.7c0-1-0.2-1.7-1.1-1.7s-1.2,0.7-1.2,1.7C67.8,36.8,68,37.5,68.9,37.5
	 M68.9,33.6c1.4,0,1.9,0.8,1.9,2.2c0,1.4-0.6,2.2-1.9,2.2S67,37.2,67,35.8C67,34.4,67.6,33.6,68.9,33.6z"/>
<path fill="#010101" d="M75.9,34.2c-1.5,0.1-0.9,2.4-1,3.8h-0.7v-2.7c0-0.7-0.1-1.1-0.8-1.1c-1.5,0.1-0.9,2.3-1,3.8h-0.7l0-4.3h0.7
	c0,0.2,0,0.5,0,0.7c0.2-1,2.2-1.1,2.4,0c0.2-0.5,0.6-0.8,1.3-0.8c1.9,0,1.1,2.7,1.2,4.4h-0.7v-2.7C76.7,34.6,76.6,34.2,75.9,34.2"/>
<path fill="#010101" d="M81.3,35.4c0.1-1.3-1.7-1.7-2.2-0.6C79.1,35,79,35.2,79,35.4H81.3 M80.2,33.6c1.4,0,1.9,0.9,1.9,2.4h-3
	c0,0.9,0.3,1.5,1.2,1.5c0.6,0,1-0.3,1.1-0.7l0.6,0.2c-0.2,0.6-0.8,1-1.7,1c-1.3,0-2-0.8-2-2.3C78.3,34.4,78.8,33.6,80.2,33.6z"/>
<path fill="#010101" d="M85,34.3c-1.8-0.4-1.2,2-1.3,3.7H83l0-4.3h0.7c0,0.3,0,0.7,0,0.9c0.1-0.6,0.5-1.1,1.3-0.9V34.3"/>
<path fill="#010101" d="M86.1,34.2h-0.6l-0.1-1.8h0.7 M87.5,34.2H87l-0.1-1.8h0.7L87.5,34.2z"/>
<path fill="#010101" d="M88.7,38v-0.8h0.8V38H88.7 M88.7,34.5v-0.8h0.8v0.8H88.7z"/>
<path fill="#010101" d="M91.2,34.2h-0.6l-0.1-1.8h0.7 M92.6,34.2h-0.6L92,32.4h0.7L92.6,34.2z"/>
<path fill="#010101" d="M96.5,32.4c-0.2,2.3,0.8,5.7-1.6,5.7c-1,0-1.5-0.6-1.7-1.5l0.7-0.1c0.1,0.6,0.4,0.9,1,1
	c0.6,0,0.9-0.5,0.9-1.1V33h-1.1v-0.6H96.5"/>
<path fill="#010101" d="M98.2,36.8c0,0.4,0.3,0.7,0.7,0.7c0.9-0.1,1.4-0.7,1.4-1.7C99.3,35.9,98.2,35.8,98.2,36.8 M100.3,37.2
	c-0.3,0.5-0.7,0.9-1.5,0.9c-0.8,0-1.3-0.5-1.3-1.3c0-1.4,1.4-1.4,2.8-1.4c0.1-0.8-0.2-1.2-0.9-1.2c-0.5,0-0.9,0.2-0.9,0.7l-0.7-0.1
	c0.1-0.8,0.7-1.2,1.7-1.2c1,0,1.6,0.5,1.6,1.4v1.8c0,0.5,0.2,0.7,0.6,0.6V38C100.9,38.2,100.2,37.9,100.3,37.2z"/>
<path fill="#010101" d="M103.8,34.2c-0.9,0-1.1,0.7-1.1,1.6s0.2,1.7,1.1,1.7c0.5,0,0.9-0.3,1-0.9l0.7,0c-0.1,0.8-0.7,1.4-1.7,1.4
	c-1.3,0-1.7-0.9-1.8-2.2c-0.2-2.1,2.3-2.9,3.3-1.4c0.1,0.2,0.1,0.3,0.2,0.5l-0.7,0.1C104.6,34.5,104.3,34.2,103.8,34.2"/>
<polyline fill="#010101" points="108.9,38 107.4,36 106.9,36.5 106.9,38 106.2,38 106.2,32.1 106.9,32.1 106.9,35.8 108.8,33.7 
	109.6,33.7 107.9,35.5 109.7,38 108.9,38 "/>
<path fill="#010101" d="M112.7,34.8c-0.1-0.8-1.9-0.9-2,0c0.3,1.2,2.6,0.3,2.7,2c0.1,1.8-3.4,1.7-3.5,0.2l0.6-0.1
	c0.1,0.8,2.2,1,2.2,0c-0.2-1.3-2.5-0.3-2.7-2c-0.1-1.3,1.8-1.4,2.7-0.9c0.3,0.2,0.5,0.4,0.5,0.8"/>
<path fill="#010101" d="M116,37.5c1,0,1.2-0.7,1.2-1.7c0-1-0.2-1.7-1.1-1.7s-1.2,0.7-1.2,1.7C114.8,36.8,115.1,37.5,116,37.5
	 M116,33.6c1.4,0,1.9,0.8,1.9,2.2c0,1.4-0.6,2.2-1.9,2.2s-1.9-0.9-1.9-2.2C114.1,34.4,114.7,33.6,116,33.6z"/>
<path fill="#010101" d="M120.9,33.6c2-0.1,1.2,2.6,1.4,4.4h-0.7v-2.7c0-0.7-0.2-1.1-0.9-1.1c-1.6,0-1,2.3-1.1,3.8h-0.7l0-4.3h0.7
	c0,0.2,0,0.5,0,0.7C119.8,33.9,120.2,33.6,120.9,33.6"/>
<path fill="#010101" d="M123.7,34.2h-0.6l-0.1-1.8h0.7 M125.2,34.2h-0.6l-0.1-1.8h0.7L125.2,34.2z"/>
<path fill="#010101" d="M127.1,37.1c0,0.8,0,1.5-0.3,1.9h-0.5c0.2-0.3,0.4-0.6,0.4-1h-0.4v-0.9H127.1"/>
<path fill="#010101" d="M128.8,34.2h-0.6l-0.1-1.8h0.7 M130.3,34.2h-0.6l-0.1-1.8h0.7L130.3,34.2z"/>
<path fill="#010101" d="M133.7,34.8c-0.1-0.8-1.9-0.9-2,0c0.3,1.2,2.6,0.3,2.7,2c0.1,1.8-3.4,1.7-3.5,0.2l0.6-0.1
	c0.1,0.8,2.2,1,2.2,0c-0.2-1.3-2.5-0.3-2.7-2c-0.1-1.3,1.8-1.4,2.7-0.9c0.3,0.2,0.5,0.4,0.5,0.8"/>
<path fill="#010101" d="M136.1,36.9c0,0.5,0.4,0.7,0.9,0.5V38c-0.7,0.2-1.6,0.1-1.6-0.9v-2.9h-0.5v-0.5h0.5l0.2-1h0.5v1h0.8v0.5
	h-0.8V36.9"/>
<path fill="#010101" d="M138.1,36.8c0,0.4,0.3,0.7,0.7,0.7c0.9-0.1,1.4-0.7,1.4-1.7C139.2,35.9,138.1,35.8,138.1,36.8 M140.2,37.2
	c-0.3,0.5-0.7,0.9-1.5,0.9c-0.8,0-1.3-0.5-1.3-1.3c0-1.4,1.4-1.4,2.8-1.4c0.1-0.8-0.2-1.2-0.9-1.2c-0.5,0-0.9,0.2-0.9,0.7l-0.7-0.1
	c0.1-0.8,0.7-1.2,1.7-1.2c1,0,1.6,0.5,1.6,1.4v1.8c0,0.5,0.2,0.7,0.6,0.6V38C140.8,38.2,140.1,37.9,140.2,37.2z"/>
<path fill="#010101" d="M142.8,36.9c0,0.5,0.4,0.7,0.9,0.5V38c-0.7,0.2-1.6,0.1-1.6-0.9v-2.9h-0.5v-0.5h0.5l0.2-1h0.5v1h0.8v0.5
	h-0.8V36.9"/>
<path fill="#010101" d="M145.7,38.1c-2,0.1-1.2-2.6-1.4-4.4h0.7v2.7c0,0.7,0.2,1.1,0.9,1.1c1.6,0,1-2.3,1.1-3.8h0.7l0,4.3H147
	c0-0.2,0-0.6,0-0.7C146.8,37.7,146.4,38,145.7,38.1"/>
<path fill="#010101" d="M151.3,34.8c-0.1-0.8-1.9-0.9-2,0c0.3,1.2,2.6,0.3,2.7,2c0.1,1.8-3.4,1.7-3.5,0.2l0.6-0.1
	c0.1,0.8,2.2,1,2.2,0c-0.2-1.3-2.5-0.3-2.7-2c-0.1-1.3,1.8-1.4,2.7-0.9c0.3,0.2,0.5,0.4,0.5,0.8"/>
<path fill="#010101" d="M153.3,34.2h-0.6l-0.1-1.8h0.7 M154.8,34.2h-0.6l-0.1-1.8h0.7L154.8,34.2z"/>
<path fill="#010101" d="M155.9,38v-0.8h0.8V38H155.9 M155.9,34.5v-0.8h0.8v0.8H155.9z"/>
<path fill="#010101" d="M158.4,34.2h-0.6l-0.1-1.8h0.7 M159.9,34.2h-0.6l-0.1-1.8h0.7L159.9,34.2z"/>
<path fill="#010101" d="M161.4,36.8c0,0.4,0.3,0.7,0.7,0.7c0.9-0.1,1.4-0.7,1.4-1.7C162.5,35.9,161.4,35.8,161.4,36.8 M163.4,37.2
	c-0.3,0.5-0.7,0.9-1.5,0.9c-0.8,0-1.3-0.5-1.3-1.3c0-1.4,1.4-1.4,2.8-1.4c0.1-0.8-0.2-1.2-0.9-1.2c-0.5,0-0.9,0.2-0.9,0.7l-0.7-0.1
	c0.1-0.8,0.7-1.2,1.7-1.2c1,0,1.6,0.5,1.6,1.4v1.8c0,0.5,0.2,0.7,0.6,0.6V38C164.1,38.2,163.4,37.9,163.4,37.2z"/>
<path fill="#010101" d="M166.9,34.2c-0.9,0-1.1,0.7-1.1,1.6s0.2,1.7,1.1,1.7c0.5,0,0.9-0.3,1-0.9l0.7,0c-0.1,0.8-0.7,1.4-1.7,1.4
	c-1.3,0-1.7-0.9-1.8-2.2c-0.2-2.1,2.3-2.9,3.3-1.4c0.1,0.2,0.1,0.3,0.2,0.5l-0.7,0.1C167.8,34.5,167.5,34.2,166.9,34.2"/>
<path fill="#010101" d="M170.2,36.9c0,0.5,0.4,0.7,0.9,0.5V38c-0.7,0.2-1.6,0.1-1.6-0.9v-2.9h-0.5v-0.5h0.5l0.2-1h0.5v1h0.8v0.5
	h-0.8V36.9"/>
<path fill="#010101" d="M171.6,38v-4.3h0.7V38H171.6 M171.6,32.8v-0.7h0.7v0.7H171.6z"/>
<polyline fill="#010101" points="175.3,38 174.4,38 172.9,33.7 173.6,33.7 174.9,37.4 176.1,33.7 176.9,33.7 "/>
<path fill="#010101" d="M180.3,35.4c0.1-1.3-1.7-1.7-2.2-0.6c-0.1,0.2-0.1,0.4-0.1,0.6H180.3 M179.2,33.6c1.4,0,1.9,0.9,1.9,2.4h-3
	c0,0.9,0.3,1.5,1.2,1.5c0.6,0,1-0.3,1.1-0.7l0.6,0.2c-0.2,0.6-0.8,1-1.7,1c-1.3,0-2-0.8-2-2.3C177.3,34.4,177.8,33.6,179.2,33.6z"/>
<path fill="#010101" d="M182.4,34.2h-0.6l-0.1-1.8h0.7 M183.9,34.2h-0.6l-0.1-1.8h0.7L183.9,34.2z"/>
<path fill="#010101" d="M185.8,37.1c0,0.8,0,1.5-0.3,1.9H185c0.2-0.3,0.4-0.6,0.4-1H185v-0.9H185.8"/>
<path fill="#010101" d="M187.5,34.2h-0.6l-0.1-1.8h0.7 M189,34.2h-0.6l-0.1-1.8h0.7L189,34.2z"/>
<path fill="#010101" d="M191.5,37.5c0.9,0,1.1-0.7,1.1-1.7c0-1-0.2-1.6-1.1-1.6c-0.9,0-1,0.8-1,1.7
	C190.4,36.7,190.6,37.5,191.5,37.5 M192.6,37.3c-0.2,0.5-0.7,0.8-1.4,0.8c-1.2,0-1.6-0.9-1.6-2.2c0-1.3,0.4-2.2,1.6-2.3
	c0.7,0,1.1,0.3,1.4,0.7c0-0.2,0-0.5,0-0.7h0.7l0,6h-0.7L192.6,37.3z"/>
<path fill="#010101" d="M195.2,36.9c0,0.5,0.4,0.7,0.9,0.5V38c-0.7,0.2-1.6,0.1-1.6-0.9v-2.9H194v-0.5h0.5l0.2-1h0.5v1h0.8v0.5h-0.8
	V36.9"/>
<path fill="#010101" d="M200.1,33.7l-1.9,5c-0.3,0.6-0.8,1.1-1.8,0.9v-0.5c0.9,0.1,1.2-0.5,1.4-1.1l-1.7-4.3h0.8l1.3,3.5l1.2-3.5
	H200.1"/>
<path fill="#010101" d="M201.2,34.2h-0.6l-0.1-1.8h0.7 M202.6,34.2h-0.6l-0.1-1.8h0.7L202.6,34.2z"/>
<path fill="#010101" d="M203.8,38v-0.8h0.8V38H203.8 M203.8,34.5v-0.8h0.8v0.8H203.8z"/>
<polyline fill="#010101" points="205.9,38 205.9,37.4 207.3,37.4 207.3,33.1 206.1,34 206.1,33.3 207.4,32.4 208,32.4 208,37.4 
	209.4,37.4 209.4,38 205.9,38 "/>
<path fill="#010101" d="M212,37.5c1.1,0,1.2-1.1,1.2-2.3s-0.1-2.3-1.2-2.3c-1.1,0-1.2,1.1-1.2,2.3C210.8,36.4,210.9,37.5,212,37.5
	 M212,32.3c1.5,0,1.9,1.2,1.9,2.9s-0.5,2.9-1.9,2.9c-1.5,0-1.9-1.3-1.9-2.9C210.1,33.5,210.5,32.3,212,32.3z"/>
<path fill="#010101" d="M216.5,37.5c1.1,0,1.2-1.1,1.2-2.3s-0.1-2.3-1.2-2.3c-1.1,0-1.2,1.1-1.2,2.3
	C215.3,36.4,215.4,37.5,216.5,37.5 M216.5,32.3c1.5,0,1.9,1.2,1.9,2.9s-0.5,2.9-1.9,2.9c-1.5,0-1.9-1.3-1.9-2.9
	C214.6,33.5,215,32.3,216.5,32.3z"/>
<path fill="#010101" d="M220.3,37.1c0,0.8,0,1.5-0.3,1.9h-0.5c0.2-0.3,0.4-0.6,0.4-1h-0.4v-0.9H220.3"/>
<path fill="#010101" d="M222,34.2h-0.6l-0.1-1.8h0.7 M223.5,34.2h-0.6l-0.1-1.8h0.7L223.5,34.2z"/>
<path fill="#010101" d="M225.2,36.9c0,0.5,0.4,0.7,0.9,0.5V38c-0.7,0.2-1.6,0.1-1.6-0.9v-2.9H224v-0.5h0.5l0.2-1h0.5v1h0.8v0.5h-0.8
	V36.9"/>
<path fill="#010101" d="M226.7,38v-4.3h0.7V38H226.7 M226.7,32.8v-0.7h0.7v0.7H226.7z"/>
<path fill="#010101" d="M230.1,34.2c-0.9,0-1.1,0.7-1.1,1.6s0.2,1.7,1.1,1.7c0.5,0,0.9-0.3,1-0.9l0.7,0c-0.1,0.8-0.7,1.4-1.7,1.4
	c-1.3,0-1.7-0.9-1.8-2.2c-0.2-2.1,2.3-2.9,3.3-1.4c0.1,0.2,0.1,0.3,0.2,0.5L231,35C230.9,34.5,230.6,34.2,230.1,34.2"/>
<polyline fill="#010101" points="235.2,38 233.7,36 233.2,36.5 233.2,38 232.5,38 232.5,32.1 233.2,32.1 233.2,35.8 235.1,33.7 
	235.9,33.7 234.2,35.5 236,38 235.2,38 "/>
<path fill="#010101" d="M239.4,35.4c0.1-1.3-1.7-1.7-2.2-0.6c-0.1,0.2-0.1,0.4-0.1,0.6H239.4 M238.3,33.6c1.4,0,1.9,0.9,1.9,2.4h-3
	c0,0.9,0.3,1.5,1.2,1.5c0.6,0,1-0.3,1.1-0.7l0.6,0.2c-0.2,0.6-0.8,1-1.7,1c-1.3,0-2-0.8-2-2.3C236.4,34.4,236.9,33.6,238.3,33.6z"/>
<path fill="#010101" d="M243.1,34.3c-1.8-0.4-1.2,2-1.3,3.7h-0.7l0-4.3h0.7c0,0.3,0,0.7,0,0.9c0.1-0.6,0.5-1.1,1.3-0.9V34.3"/>
<path fill="#010101" d="M244.2,34.2h-0.6l-0.1-1.8h0.7 M245.6,34.2h-0.6l-0.1-1.8h0.7L245.6,34.2z"/>
<path fill="#010101" d="M246.8,38v-0.8h0.8V38H246.8 M246.8,34.5v-0.8h0.8v0.8H246.8z"/>
<path fill="#010101" d="M249.3,34.2h-0.6l-0.1-1.8h0.7 M250.7,34.2h-0.6l-0.1-1.8h0.7L250.7,34.2z"/>
<polyline fill="#010101" points="251.9,38 251.9,32.4 252.7,32.4 252.7,38 251.9,38 "/>
<path fill="#010101" d="M254.8,37.4c1.2,0,2.8,0.3,2.8-1c0-1.3-1.6-0.9-2.8-1V37.4 M254.8,34.8c1.1,0,2.5,0.2,2.5-0.9
	c0-1.1-1.4-0.8-2.5-0.8V34.8z M257,35c0.8,0.1,1.4,0.5,1.4,1.4c0,2-2.4,1.5-4.3,1.6v-5.6c1.7,0.1,4-0.4,4,1.3
	C258.1,34.5,257.6,34.9,257,35z"/>
<path fill="#010101" d="M264.2,38l0-4.9c-0.5,1.7-1.2,3.3-1.8,4.9h-0.5l-1.8-4.9l0,4.9h-0.7v-5.6h1l1.7,4.7c0.5-1.7,1.1-3.2,1.7-4.7
	h1V38H264.2"/>
<path fill="#010101" d="M266.5,34.2H266l-0.1-1.8h0.7 M268,34.2h-0.6l-0.1-1.8h0.7L268,34.2z"/>
<path fill="#010101" d="M270.1,37.1c0,1.4,0.2,2.9-1.6,2.6v-0.5c1.8,0.3,0.1-2.9,1.7-3.3c-0.9-0.1-0.8-1.3-0.8-2.4
	c0-0.7-0.2-0.9-0.9-0.9v-0.5c1-0.1,1.6,0.2,1.6,1.2c0,1.1-0.3,2.4,0.9,2.4v0.5C270.4,36.2,270.1,36.5,270.1,37.1"/>
<path fill="#E6E6E5" d="M10,47.3c0-1.3,1-2.3,2.3-2.3h274.9c1.3,0,2.3,1,2.3,2.3v13.5c0,1.3-1,2.3-2.3,2.3H12.2C11,63,10,62,10,60.8
	V47.3z"/>
<path fill="none" stroke="#010101" stroke-width="0.9" stroke-miterlimit="10" d="M10,47.3c0-1.3,1-2.3,2.3-2.3h274.9
	c1.3,0,2.3,1,2.3,2.3v13.5c0,1.3-1,2.3-2.3,2.3H12.2C11,63,10,62,10,60.8V47.3z"/>
<path fill="#010101" d="M13.6,53.9c1.7,0.3-0.2,3.5,1.7,3.3v0.5c-1,0.1-1.6-0.2-1.6-1.2c0-1,0.2-2.4-0.9-2.4v-0.5
	c1.8,0.1-0.2-3.6,1.9-3.5h0.5v0.5C13.4,50.3,15.2,53.6,13.6,53.9"/>
<path fill="#010101" d="M16.4,52.2h-0.6l-0.1-1.8h0.7 M17.9,52.2h-0.6l-0.1-1.8h0.7L17.9,52.2z"/>
<path fill="#010101" d="M20.5,55.5c1,0,1.2-0.7,1.2-1.7c0-1-0.2-1.7-1.1-1.7c-1,0-1.2,0.7-1.2,1.7C19.3,54.8,19.6,55.5,20.5,55.5
	 M20.5,51.6c1.4,0,1.9,0.8,1.9,2.2c0,1.4-0.6,2.2-1.9,2.2s-1.9-0.9-1.9-2.2C18.6,52.4,19.2,51.6,20.5,51.6z"/>
<path fill="#010101" d="M25.3,52.3c-1.8-0.4-1.2,2-1.3,3.7h-0.7l0-4.3H24c0,0.3,0,0.7,0,0.9c0.1-0.6,0.5-1.1,1.3-0.9V52.3"/>
<path fill="#010101" d="M27.5,52.2c-0.9,0-1,0.8-1,1.7c0,0.9,0.1,1.7,1,1.7c0.9,0,1.1-0.7,1.1-1.7C28.7,52.9,28.5,52.1,27.5,52.2
	 M27.3,51.6c0.7,0,1.1,0.3,1.3,0.7l0-2.3h0.7l0,5.9h-0.7c0-0.2,0-0.5-0.1-0.7c-0.2,0.5-0.6,0.8-1.3,0.8c-1.2,0-1.6-0.9-1.6-2.2
	C25.8,52.4,26.3,51.6,27.3,51.6z"/>
<path fill="#010101" d="M33.4,53.4c0.1-1.3-1.7-1.7-2.2-0.6C31.1,53,31,53.2,31,53.4H33.4 M32.2,51.6c1.4,0,1.9,0.9,1.9,2.4h-3
	c0,0.9,0.3,1.5,1.2,1.5c0.6,0,1-0.3,1.1-0.7l0.6,0.2c-0.2,0.6-0.8,1-1.7,1c-1.3,0-2-0.8-2-2.3C30.3,52.4,30.9,51.6,32.2,51.6z"/>
<path fill="#010101" d="M37,52.3c-1.8-0.4-1.2,2-1.3,3.7H35l0-4.3h0.7c0,0.3,0,0.7,0,0.9c0.1-0.6,0.5-1.1,1.3-0.9V52.3"/>
<path fill="#010101" d="M38.1,52.2h-0.6l-0.1-1.8h0.7 M39.6,52.2H39l-0.1-1.8h0.7L39.6,52.2z"/>
<path fill="#010101" d="M40.7,56v-0.8h0.8V56H40.7 M40.7,52.5v-0.8h0.8v0.8H40.7z"/>
<path fill="#010101" d="M44.5,50.3c1.8-0.2,2.1,2,1,3l-1.4,1.2c-0.2,0.2-0.5,0.5-0.7,0.8h2.9V56h-3.7c0-2.2,2.9-2.1,2.9-4.1
	c0-0.6-0.4-1-1-1s-1,0.3-1.1,0.9l-0.7-0.1C42.8,50.9,43.4,50.4,44.5,50.3"/>
<path fill="#010101" d="M48.3,55.1c0,0.8,0,1.5-0.3,1.9h-0.5c0.2-0.3,0.4-0.6,0.4-1h-0.4v-0.9H48.3"/>
<path fill="#010101" d="M50,52.2h-0.6l-0.1-1.8H50 M51.4,52.2h-0.6l-0.1-1.8h0.7L51.4,52.2z"/>
<path fill="#010101" d="M54,52.2c-0.9,0-1.1,0.7-1.1,1.6s0.2,1.7,1.1,1.7c0.5,0,0.9-0.3,1-0.9l0.7,0c-0.1,0.8-0.7,1.4-1.7,1.4
	c-1.3,0-1.7-0.9-1.8-2.2c-0.2-2.1,2.3-2.9,3.3-1.4c0.1,0.2,0.1,0.3,0.2,0.5L54.9,53C54.8,52.5,54.5,52.2,54,52.2"/>
<path fill="#010101" d="M57.8,56.1c-2,0.1-1.2-2.6-1.4-4.4h0.7v2.7c0,0.7,0.2,1.1,0.9,1.1c1.6,0,1-2.3,1.1-3.8h0.7l0,4.3h-0.7
	c0-0.2,0-0.6,0-0.7C58.9,55.7,58.5,56,57.8,56.1"/>
<path fill="#010101" d="M63.4,52.8c-0.1-0.8-1.9-0.9-2,0c0.3,1.2,2.6,0.3,2.7,2c0.1,1.8-3.4,1.7-3.5,0.2l0.6-0.1
	c0.1,0.8,2.2,1,2.2,0c-0.2-1.3-2.5-0.3-2.7-2c-0.1-1.3,1.8-1.4,2.7-0.9c0.3,0.2,0.5,0.4,0.5,0.8"/>
<path fill="#010101" d="M65.8,54.9c0,0.5,0.4,0.7,0.9,0.5V56c-0.7,0.2-1.6,0.1-1.6-0.9v-2.9h-0.5v-0.5h0.5l0.2-1h0.5v1h0.8v0.5h-0.8
	V54.9"/>
<path fill="#010101" d="M68.9,55.5c1,0,1.2-0.7,1.2-1.7c0-1-0.2-1.7-1.1-1.7s-1.2,0.7-1.2,1.7C67.8,54.8,68,55.5,68.9,55.5
	 M68.9,51.6c1.4,0,1.9,0.8,1.9,2.2c0,1.4-0.6,2.2-1.9,2.2S67,55.2,67,53.8C67,52.4,67.6,51.6,68.9,51.6z"/>
<path fill="#010101" d="M75.9,52.2c-1.5,0.1-0.9,2.4-1,3.8h-0.7v-2.7c0-0.7-0.1-1.1-0.8-1.1c-1.5,0.1-0.9,2.3-1,3.8h-0.7l0-4.3h0.7
	c0,0.2,0,0.5,0,0.7c0.2-1,2.2-1.1,2.4,0c0.2-0.5,0.6-0.8,1.3-0.8c1.9,0,1.1,2.7,1.2,4.4h-0.7v-2.7C76.7,52.6,76.6,52.2,75.9,52.2"/>
<path fill="#010101" d="M81.3,53.4c0.1-1.3-1.7-1.7-2.2-0.6C79.1,53,79,53.2,79,53.4H81.3 M80.2,51.6c1.4,0,1.9,0.9,1.9,2.4h-3
	c0,0.9,0.3,1.5,1.2,1.5c0.6,0,1-0.3,1.1-0.7l0.6,0.2c-0.2,0.6-0.8,1-1.7,1c-1.3,0-2-0.8-2-2.3C78.3,52.4,78.8,51.6,80.2,51.6z"/>
<path fill="#010101" d="M85,52.3c-1.8-0.4-1.2,2-1.3,3.7H83l0-4.3h0.7c0,0.3,0,0.7,0,0.9c0.1-0.6,0.5-1.1,1.3-0.9V52.3"/>
<path fill="#010101" d="M86.1,52.2h-0.6l-0.1-1.8h0.7 M87.5,52.2H87l-0.1-1.8h0.7L87.5,52.2z"/>
<path fill="#010101" d="M88.7,56v-0.8h0.8V56H88.7 M88.7,52.5v-0.8h0.8v0.8H88.7z"/>
<path fill="#010101" d="M91.2,52.2h-0.6l-0.1-1.8h0.7 M92.6,52.2h-0.6L92,50.4h0.7L92.6,52.2z"/>
<path fill="#010101" d="M94.5,53.2c1.3,0,2.8,0.2,2.8-1.1c0-1.3-1.5-1.1-2.8-1.1V53.2 M93.7,50.4c2,0,4.3-0.3,4.3,1.7
	c0,1.8-1.7,1.8-3.6,1.7V56h-0.7V50.4z"/>
<path fill="#010101" d="M99.5,54.8c0,0.4,0.3,0.7,0.7,0.7c0.9-0.1,1.4-0.7,1.4-1.7C100.6,53.9,99.5,53.8,99.5,54.8 M101.6,55.2
	c-0.3,0.5-0.7,0.9-1.5,0.9c-0.8,0-1.3-0.5-1.3-1.3c0-1.4,1.4-1.4,2.8-1.4c0.1-0.8-0.2-1.2-0.9-1.2c-0.5,0-0.9,0.2-0.9,0.7L99,52.8
	c0.1-0.8,0.7-1.2,1.7-1.2c1,0,1.6,0.5,1.6,1.4v1.8c0,0.5,0.2,0.7,0.6,0.6V56C102.2,56.2,101.6,55.9,101.6,55.2z"/>
<path fill="#010101" d="M104.3,54.9c0,0.5,0.4,0.7,0.9,0.5V56c-0.7,0.2-1.6,0.1-1.6-0.9v-2.9h-0.5v-0.5h0.5l0.2-1h0.5v1h0.8v0.5
	h-0.8V54.9"/>
<path fill="#010101" d="M107.8,52.3c-1.8-0.4-1.2,2-1.3,3.7h-0.7l0-4.3h0.7c0,0.3,0,0.7,0,0.9c0.1-0.6,0.5-1.1,1.3-0.9V52.3"/>
<path fill="#010101" d="M108.4,56v-4.3h0.7V56H108.4 M108.4,50.8v-0.7h0.7v0.7H108.4z"/>
<path fill="#010101" d="M111.8,52.2c-0.9,0-1.1,0.7-1.1,1.6s0.2,1.7,1.1,1.7c0.5,0,0.9-0.3,1-0.9l0.7,0c-0.1,0.8-0.7,1.4-1.7,1.4
	c-1.3,0-1.7-0.9-1.8-2.2c-0.2-2.1,2.3-2.9,3.3-1.4c0.1,0.2,0.1,0.3,0.2,0.5l-0.7,0.1C112.6,52.5,112.4,52.2,111.8,52.2"/>
<polyline fill="#010101" points="116.9,56 115.5,54 115,54.5 115,56 114.2,56 114.2,50.1 115,50.1 115,53.8 116.8,51.7 117.7,51.7 
	115.9,53.5 117.8,56 116.9,56 "/>
<path fill="#010101" d="M118.7,52.2h-0.6l-0.1-1.8h0.7 M120.2,52.2h-0.6l-0.1-1.8h0.7L120.2,52.2z"/>
<path fill="#010101" d="M122.1,55.1c0,0.8,0,1.5-0.3,1.9h-0.5c0.2-0.3,0.4-0.6,0.4-1h-0.4v-0.9H122.1"/>
<path fill="#010101" d="M123.8,52.2h-0.6l-0.1-1.8h0.7 M125.3,52.2h-0.6l-0.1-1.8h0.7L125.3,52.2z"/>
<path fill="#010101" d="M128.8,52.8c-0.1-0.8-1.9-0.9-2,0c0.3,1.2,2.6,0.3,2.7,2c0.1,1.8-3.4,1.7-3.5,0.2l0.6-0.1
	c0.1,0.8,2.2,1,2.2,0c-0.2-1.3-2.5-0.3-2.7-2c-0.1-1.3,1.8-1.4,2.7-0.9c0.3,0.2,0.5,0.4,0.5,0.8"/>
<path fill="#010101" d="M131.1,54.9c0,0.5,0.4,0.7,0.9,0.5V56c-0.7,0.2-1.6,0.1-1.6-0.9v-2.9h-0.5v-0.5h0.5l0.2-1h0.5v1h0.8v0.5
	h-0.8V54.9"/>
<path fill="#010101" d="M133.1,54.8c0,0.4,0.3,0.7,0.7,0.7c0.9-0.1,1.4-0.7,1.4-1.7C134.2,53.9,133.1,53.8,133.1,54.8 M135.2,55.2
	c-0.3,0.5-0.7,0.9-1.5,0.9c-0.8,0-1.3-0.5-1.3-1.3c0-1.4,1.4-1.4,2.8-1.4c0.1-0.8-0.2-1.2-0.9-1.2c-0.5,0-0.9,0.2-0.9,0.7l-0.7-0.1
	c0.1-0.8,0.7-1.2,1.7-1.2c1,0,1.6,0.5,1.6,1.4v1.8c0,0.5,0.2,0.7,0.6,0.6V56C135.8,56.2,135.1,55.9,135.2,55.2z"/>
<path fill="#010101" d="M137.8,54.9c0,0.5,0.4,0.7,0.9,0.5V56c-0.7,0.2-1.6,0.1-1.6-0.9v-2.9h-0.5v-0.5h0.5l0.2-1h0.5v1h0.8v0.5
	h-0.8V54.9"/>
<path fill="#010101" d="M140.7,56.1c-2,0.1-1.2-2.6-1.4-4.4h0.7v2.7c0,0.7,0.2,1.1,0.9,1.1c1.6,0,1-2.3,1.1-3.8h0.7l0,4.3h-0.7
	c0-0.2,0-0.6,0-0.7C141.8,55.7,141.4,56,140.7,56.1"/>
<path fill="#010101" d="M146.3,52.8c-0.1-0.8-1.9-0.9-2,0c0.3,1.2,2.6,0.3,2.7,2c0.1,1.8-3.4,1.7-3.5,0.2l0.6-0.1
	c0.1,0.8,2.2,1,2.2,0c-0.2-1.3-2.5-0.3-2.7-2c-0.1-1.3,1.8-1.4,2.7-0.9c0.3,0.2,0.5,0.4,0.5,0.8"/>
<path fill="#010101" d="M148.3,52.2h-0.6l-0.1-1.8h0.7 M149.8,52.2h-0.6l-0.1-1.8h0.7L149.8,52.2z"/>
<path fill="#010101" d="M150.9,56v-0.8h0.8V56H150.9 M150.9,52.5v-0.8h0.8v0.8H150.9z"/>
<path fill="#010101" d="M153.4,52.2h-0.6l-0.1-1.8h0.7 M154.9,52.2h-0.6l-0.1-1.8h0.7L154.9,52.2z"/>
<path fill="#010101" d="M156.4,54.8c0,0.4,0.3,0.7,0.7,0.7c0.9-0.1,1.4-0.7,1.4-1.7C157.5,53.9,156.4,53.8,156.4,54.8 M158.5,55.2
	c-0.3,0.5-0.7,0.9-1.5,0.9c-0.8,0-1.3-0.5-1.3-1.3c0-1.4,1.4-1.4,2.8-1.4c0.1-0.8-0.2-1.2-0.9-1.2c-0.5,0-0.9,0.2-0.9,0.7l-0.7-0.1
	c0.1-0.8,0.7-1.2,1.7-1.2c1,0,1.6,0.5,1.6,1.4v1.8c0,0.5,0.2,0.7,0.6,0.6V56C159.1,56.2,158.4,55.9,158.5,55.2z"/>
<path fill="#010101" d="M161.9,52.2c-0.9,0-1.1,0.7-1.1,1.6s0.2,1.7,1.1,1.7c0.5,0,0.9-0.3,1-0.9l0.7,0c-0.1,0.8-0.7,1.4-1.7,1.4
	c-1.3,0-1.7-0.9-1.8-2.2c-0.2-2.1,2.3-2.9,3.3-1.4c0.1,0.2,0.1,0.3,0.2,0.5l-0.7,0.1C162.8,52.5,162.5,52.2,161.9,52.2"/>
<path fill="#010101" d="M165.2,54.9c0,0.5,0.4,0.7,0.9,0.5V56c-0.7,0.2-1.6,0.1-1.6-0.9v-2.9h-0.5v-0.5h0.5l0.2-1h0.5v1h0.8v0.5
	h-0.8V54.9"/>
<path fill="#010101" d="M166.6,56v-4.3h0.7V56H166.6 M166.6,50.8v-0.7h0.7v0.7H166.6z"/>
<polyline fill="#010101" points="170.3,56 169.4,56 167.9,51.7 168.6,51.7 169.9,55.4 171.1,51.7 171.9,51.7 "/>
<path fill="#010101" d="M175.3,53.4c0.1-1.3-1.7-1.7-2.2-0.6c-0.1,0.2-0.1,0.4-0.1,0.6H175.3 M174.2,51.6c1.4,0,1.9,0.9,1.9,2.4h-3
	c0,0.9,0.3,1.5,1.2,1.5c0.6,0,1-0.3,1.1-0.7l0.6,0.2c-0.2,0.6-0.8,1-1.7,1c-1.3,0-2-0.8-2-2.3C172.3,52.4,172.8,51.6,174.2,51.6z"/>
<path fill="#010101" d="M177.4,52.2h-0.6l-0.1-1.8h0.7 M178.9,52.2h-0.6l-0.1-1.8h0.7L178.9,52.2z"/>
<path fill="#010101" d="M180.8,55.1c0,0.8,0,1.5-0.3,1.9H180c0.2-0.3,0.4-0.6,0.4-1H180v-0.9H180.8"/>
<path fill="#010101" d="M182.5,52.2h-0.6l-0.1-1.8h0.7 M184,52.2h-0.6l-0.1-1.8h0.7L184,52.2z"/>
<path fill="#010101" d="M186.5,55.5c0.9,0,1.1-0.7,1.1-1.7c0-1-0.2-1.6-1.1-1.6c-0.9,0-1,0.8-1,1.7
	C185.5,54.7,185.6,55.5,186.5,55.5 M187.6,55.3c-0.2,0.5-0.7,0.8-1.4,0.8c-1.2,0-1.6-0.9-1.6-2.2c0-1.3,0.4-2.2,1.6-2.3
	c0.7,0,1.1,0.3,1.4,0.7c0-0.2,0-0.5,0-0.7h0.7l0,6h-0.7L187.6,55.3z"/>
<path fill="#010101" d="M190.2,54.9c0,0.5,0.4,0.7,0.9,0.5V56c-0.7,0.2-1.6,0.1-1.6-0.9v-2.9H189v-0.5h0.5l0.2-1h0.5v1h0.8v0.5h-0.8
	V54.9"/>
<path fill="#010101" d="M195.2,51.7l-1.9,5c-0.3,0.6-0.8,1.1-1.8,0.9v-0.5c0.9,0.1,1.2-0.5,1.4-1.1l-1.7-4.3h0.8l1.3,3.5l1.2-3.5
	H195.2"/>
<path fill="#010101" d="M196.2,52.2h-0.6l-0.1-1.8h0.7 M197.6,52.2h-0.6l-0.1-1.8h0.7L197.6,52.2z"/>
<path fill="#010101" d="M198.8,56v-0.8h0.8V56H198.8 M198.8,52.5v-0.8h0.8v0.8H198.8z"/>
<polyline fill="#010101" points="200.9,56 200.9,55.4 202.3,55.4 202.3,51.1 201.1,52 201.1,51.3 202.4,50.4 203,50.4 203,55.4 
	204.4,55.4 204.4,56 200.9,56 "/>
<path fill="#010101" d="M207,55.5c1.1,0,1.2-1.1,1.2-2.3s-0.1-2.3-1.2-2.3c-1.1,0-1.2,1.1-1.2,2.3C205.8,54.4,205.9,55.5,207,55.5
	 M207.1,50.3c1.5,0,1.9,1.2,1.9,2.9s-0.5,2.9-1.9,2.9c-1.5,0-1.9-1.3-1.9-2.9C205.1,51.5,205.5,50.3,207.1,50.3z"/>
<path fill="#010101" d="M211.5,55.5c1.1,0,1.2-1.1,1.2-2.3s-0.1-2.3-1.2-2.3c-1.1,0-1.2,1.1-1.2,2.3
	C210.3,54.4,210.4,55.5,211.5,55.5 M211.6,50.3c1.5,0,1.9,1.2,1.9,2.9s-0.5,2.9-1.9,2.9c-1.5,0-1.9-1.3-1.9-2.9
	C209.6,51.5,210,50.3,211.6,50.3z"/>
<path fill="#010101" d="M215.3,55.1c0,0.8,0,1.5-0.3,1.9h-0.5c0.2-0.3,0.4-0.6,0.4-1h-0.4v-0.9H215.3"/>
<path fill="#010101" d="M217,52.2h-0.6l-0.1-1.8h0.7 M218.5,52.2h-0.6l-0.1-1.8h0.7L218.5,52.2z"/>
<path fill="#010101" d="M220.2,54.9c0,0.5,0.4,0.7,0.9,0.5V56c-0.7,0.2-1.6,0.1-1.6-0.9v-2.9H219v-0.5h0.5l0.2-1h0.5v1h0.8v0.5h-0.8
	V54.9"/>
<path fill="#010101" d="M221.7,56v-4.3h0.7V56H221.7 M221.7,50.8v-0.7h0.7v0.7H221.7z"/>
<path fill="#010101" d="M225.1,52.2c-0.9,0-1.1,0.7-1.1,1.6s0.2,1.7,1.1,1.7c0.5,0,0.9-0.3,1-0.9l0.7,0c-0.1,0.8-0.7,1.4-1.7,1.4
	c-1.3,0-1.7-0.9-1.8-2.2c-0.2-2.1,2.3-2.9,3.3-1.4c0.1,0.2,0.1,0.3,0.2,0.5L226,53C225.9,52.5,225.6,52.2,225.1,52.2"/>
<polyline fill="#010101" points="230.2,56 228.7,54 228.2,54.5 228.2,56 227.5,56 227.5,50.1 228.2,50.1 228.2,53.8 230.1,51.7 
	230.9,51.7 229.2,53.5 231,56 230.2,56 "/>
<path fill="#010101" d="M234.4,53.4c0.1-1.3-1.7-1.7-2.2-0.6c-0.1,0.2-0.1,0.4-0.1,0.6H234.4 M233.3,51.6c1.4,0,1.9,0.9,1.9,2.4h-3
	c0,0.9,0.3,1.5,1.2,1.5c0.6,0,1-0.3,1.1-0.7l0.6,0.2c-0.2,0.6-0.8,1-1.7,1c-1.3,0-2-0.8-2-2.3C231.4,52.4,231.9,51.6,233.3,51.6z"/>
<path fill="#010101" d="M238.1,52.3c-1.8-0.4-1.2,2-1.3,3.7h-0.7l0-4.3h0.7c0,0.3,0,0.7,0,0.9c0.1-0.6,0.5-1.1,1.3-0.9V52.3"/>
<path fill="#010101" d="M239.2,52.2h-0.6l-0.1-1.8h0.7 M240.6,52.2h-0.6l-0.1-1.8h0.7L240.6,52.2z"/>
<path fill="#010101" d="M241.8,56v-0.8h0.8V56H241.8 M241.8,52.5v-0.8h0.8v0.8H241.8z"/>
<path fill="#010101" d="M244.3,52.2h-0.6l-0.1-1.8h0.7 M245.8,52.2h-0.6l-0.1-1.8h0.7L245.8,52.2z"/>
<polyline fill="#010101" points="250.6,56 250.6,53.4 247.6,53.4 247.6,56 246.8,56 246.8,50.4 247.6,50.4 247.6,52.8 250.6,52.8 
	250.6,50.4 251.4,50.4 251.4,56 250.6,56 "/>
<path fill="#010101" d="M253.4,53.2c1.3,0,2.8,0.2,2.8-1.1c0-1.3-1.5-1.1-2.8-1.1V53.2 M252.7,50.4c2,0,4.3-0.3,4.3,1.7
	c0,1.8-1.7,1.8-3.6,1.7V56h-0.7V50.4z"/>
<path fill="#010101" d="M260.5,55.4c1.4,0,2-0.9,2-2.3c0-1.4-0.7-2.2-2-2.2c-1.4,0-2,0.9-2,2.2C258.5,54.5,259.2,55.4,260.5,55.4
	 M260.5,50.3c1.8,0,2.8,1,2.8,2.8c0,1.6-0.8,2.6-2.3,2.8c0.2,0.7,0.7,1.1,1.6,0.9v0.5c-1.2,0.4-2.1-0.3-2.3-1.4
	c-1.6-0.1-2.5-1.1-2.5-2.9C257.8,51.4,258.7,50.3,260.5,50.3z"/>
<path fill="#010101" d="M264.7,52.2h-0.6l-0.1-1.8h0.7 M266.1,52.2h-0.6l-0.1-1.8h0.7L266.1,52.2z"/>
<path fill="#010101" d="M268.3,55.1c0,1.4,0.2,2.9-1.6,2.6v-0.5c1.8,0.3,0.1-2.9,1.7-3.3c-0.9-0.1-0.8-1.3-0.8-2.4
	c0-0.7-0.2-0.9-0.9-0.9v-0.5c1-0.1,1.6,0.2,1.6,1.2c0,1.1-0.3,2.4,0.9,2.4v0.5C268.5,54.2,268.2,54.5,268.3,55.1"/>
<path fill="#E6E6E5" d="M10,65.3c0-1.3,1-2.3,2.3-2.3h274.9c1.3,0,2.3,1,2.3,2.3v13.5c0,1.3-1,2.3-2.3,2.3H12.2C11,81,10,80,10,78.8
	V65.3z"/>
<path fill="none" stroke="#010101" stroke-width="0.9" stroke-miterlimit="10" d="M10,65.3c0-1.3,1-2.3,2.3-2.3h274.9
	c1.3,0,2.3,1,2.3,2.3v13.5c0,1.3-1,2.3-2.3,2.3H12.2C11,81,10,80,10,78.8V65.3z"/>
<path fill="#010101" d="M13.6,71.9c1.7,0.3-0.2,3.5,1.7,3.3v0.5c-1,0.1-1.6-0.2-1.6-1.2c0-1,0.2-2.4-0.9-2.4v-0.5
	c1.8,0.1-0.2-3.6,1.9-3.5h0.5v0.5C13.4,68.3,15.2,71.6,13.6,71.9"/>
<path fill="#010101" d="M16.4,70.2h-0.6l-0.1-1.8h0.7 M17.9,70.2h-0.6l-0.1-1.8h0.7L17.9,70.2z"/>
<path fill="#010101" d="M20.5,73.5c1,0,1.2-0.7,1.2-1.7c0-1-0.2-1.7-1.1-1.7c-1,0-1.2,0.7-1.2,1.7C19.3,72.8,19.6,73.5,20.5,73.5
	 M20.5,69.6c1.4,0,1.9,0.8,1.9,2.2c0,1.4-0.6,2.2-1.9,2.2s-1.9-0.9-1.9-2.2C18.6,70.4,19.2,69.6,20.5,69.6z"/>
<path fill="#010101" d="M25.3,70.3c-1.8-0.4-1.2,2-1.3,3.7h-0.7l0-4.3H24c0,0.3,0,0.7,0,0.9c0.1-0.6,0.5-1.1,1.3-0.9V70.3"/>
<path fill="#010101" d="M27.5,70.2c-0.9,0-1,0.8-1,1.7c0,0.9,0.1,1.7,1,1.7c0.9,0,1.1-0.7,1.1-1.7C28.7,70.9,28.5,70.1,27.5,70.2
	 M27.3,69.6c0.7,0,1.1,0.3,1.3,0.7l0-2.3h0.7l0,5.9h-0.7c0-0.2,0-0.5-0.1-0.7c-0.2,0.5-0.6,0.8-1.3,0.8c-1.2,0-1.6-0.9-1.6-2.2
	C25.8,70.4,26.3,69.6,27.3,69.6z"/>
<path fill="#010101" d="M33.4,71.4c0.1-1.3-1.7-1.7-2.2-0.6C31.1,71,31,71.2,31,71.4H33.4 M32.2,69.6c1.4,0,1.9,0.9,1.9,2.4h-3
	c0,0.9,0.3,1.5,1.2,1.5c0.6,0,1-0.3,1.1-0.7l0.6,0.2c-0.2,0.6-0.8,1-1.7,1c-1.3,0-2-0.8-2-2.3C30.3,70.4,30.9,69.6,32.2,69.6z"/>
<path fill="#010101" d="M37,70.3c-1.8-0.4-1.2,2-1.3,3.7H35l0-4.3h0.7c0,0.3,0,0.7,0,0.9c0.1-0.6,0.5-1.1,1.3-0.9V70.3"/>
<path fill="#010101" d="M38.1,70.2h-0.6l-0.1-1.8h0.7 M39.6,70.2H39l-0.1-1.8h0.7L39.6,70.2z"/>
<path fill="#010101" d="M40.7,74v-0.8h0.8V74H40.7 M40.7,70.5v-0.8h0.8v0.8H40.7z"/>
<path fill="#010101" d="M45.1,71.1c0.7,0.1,1.3,0.5,1.3,1.3c0,2-3.1,2.1-3.7,0.7c-0.1-0.2-0.1-0.4-0.1-0.6l0.7-0.1
	c0.1,0.6,0.5,1,1.2,1c0.7,0,1.2-0.3,1.2-1c0-0.9-0.8-1-1.8-1v-0.6c0.9,0,1.6-0.1,1.6-0.9c0-0.6-0.4-1-1-1c-0.6,0-1.1,0.3-1.1,0.9
	l-0.7-0.1c0.1-0.9,0.8-1.4,1.8-1.4c1.1,0,1.8,0.5,1.8,1.5C46.2,70.6,45.8,71,45.1,71.1"/>
<path fill="#010101" d="M48.3,73.1c0,0.8,0,1.5-0.3,1.9h-0.5c0.2-0.3,0.4-0.6,0.4-1h-0.4v-0.9H48.3"/>
<path fill="#010101" d="M50,70.2h-0.6l-0.1-1.8H50 M51.4,70.2h-0.6l-0.1-1.8h0.7L51.4,70.2z"/>
<path fill="#010101" d="M54,70.2c-0.9,0-1.1,0.7-1.1,1.6s0.2,1.7,1.1,1.7c0.5,0,0.9-0.3,1-0.9l0.7,0c-0.1,0.8-0.7,1.4-1.7,1.4
	c-1.3,0-1.7-0.9-1.8-2.2c-0.2-2.1,2.3-2.9,3.3-1.4c0.1,0.2,0.1,0.3,0.2,0.5L54.9,71C54.8,70.5,54.5,70.2,54,70.2"/>
<path fill="#010101" d="M57.8,74.1c-2,0.1-1.2-2.6-1.4-4.4h0.7v2.7c0,0.7,0.2,1.1,0.9,1.1c1.6,0,1-2.3,1.1-3.8h0.7l0,4.3h-0.7
	c0-0.2,0-0.6,0-0.7C58.9,73.7,58.5,74,57.8,74.1"/>
<path fill="#010101" d="M63.4,70.8c-0.1-0.8-1.9-0.9-2,0c0.3,1.2,2.6,0.3,2.7,2c0.1,1.8-3.4,1.7-3.5,0.2l0.6-0.1
	c0.1,0.8,2.2,1,2.2,0c-0.2-1.3-2.5-0.3-2.7-2c-0.1-1.3,1.8-1.4,2.7-0.9c0.3,0.2,0.5,0.4,0.5,0.8"/>
<path fill="#010101" d="M65.8,72.9c0,0.5,0.4,0.7,0.9,0.5V74c-0.7,0.2-1.6,0.1-1.6-0.9v-2.9h-0.5v-0.5h0.5l0.2-1h0.5v1h0.8v0.5h-0.8
	V72.9"/>
<path fill="#010101" d="M68.9,73.5c1,0,1.2-0.7,1.2-1.7c0-1-0.2-1.7-1.1-1.7s-1.2,0.7-1.2,1.7C67.8,72.8,68,73.5,68.9,73.5
	 M68.9,69.6c1.4,0,1.9,0.8,1.9,2.2c0,1.4-0.6,2.2-1.9,2.2S67,73.2,67,71.8C67,70.4,67.6,69.6,68.9,69.6z"/>
<path fill="#010101" d="M75.9,70.2c-1.5,0.1-0.9,2.4-1,3.8h-0.7v-2.7c0-0.7-0.1-1.1-0.8-1.1c-1.5,0.1-0.9,2.3-1,3.8h-0.7l0-4.3h0.7
	c0,0.2,0,0.5,0,0.7c0.2-1,2.2-1.1,2.4,0c0.2-0.5,0.6-0.8,1.3-0.8c1.9,0,1.1,2.7,1.2,4.4h-0.7v-2.7C76.7,70.6,76.6,70.2,75.9,70.2"/>
<path fill="#010101" d="M81.3,71.4c0.1-1.3-1.7-1.7-2.2-0.6C79.1,71,79,71.2,79,71.4H81.3 M80.2,69.6c1.4,0,1.9,0.9,1.9,2.4h-3
	c0,0.9,0.3,1.5,1.2,1.5c0.6,0,1-0.3,1.1-0.7l0.6,0.2c-0.2,0.6-0.8,1-1.7,1c-1.3,0-2-0.8-2-2.3C78.3,70.4,78.8,69.6,80.2,69.6z"/>
<path fill="#010101" d="M85,70.3c-1.8-0.4-1.2,2-1.3,3.7H83l0-4.3h0.7c0,0.3,0,0.7,0,0.9c0.1-0.6,0.5-1.1,1.3-0.9V70.3"/>
<path fill="#010101" d="M86.1,70.2h-0.6l-0.1-1.8h0.7 M87.5,70.2H87l-0.1-1.8h0.7L87.5,70.2z"/>
<path fill="#010101" d="M88.7,74v-0.8h0.8V74H88.7 M88.7,70.5v-0.8h0.8v0.8H88.7z"/>
<path fill="#010101" d="M91.2,70.2h-0.6l-0.1-1.8h0.7 M92.6,70.2h-0.6L92,68.4h0.7L92.6,70.2z"/>
<path fill="#010101" d="M94.5,71.2c1.3,0,2.8,0.2,2.8-1.1c0-1.3-1.5-1.1-2.8-1.1V71.2 M93.7,68.4c2,0,4.3-0.3,4.3,1.7
	c0,1.8-1.7,1.8-3.6,1.7V74h-0.7V68.4z"/>
<path fill="#010101" d="M99.5,72.8c0,0.4,0.3,0.7,0.7,0.7c0.9-0.1,1.4-0.7,1.4-1.7C100.6,71.9,99.5,71.8,99.5,72.8 M101.6,73.2
	c-0.3,0.5-0.7,0.9-1.5,0.9c-0.8,0-1.3-0.5-1.3-1.3c0-1.4,1.4-1.4,2.8-1.4c0.1-0.8-0.2-1.2-0.9-1.2c-0.5,0-0.9,0.2-0.9,0.7L99,70.8
	c0.1-0.8,0.7-1.2,1.7-1.2c1,0,1.6,0.5,1.6,1.4v1.8c0,0.5,0.2,0.7,0.6,0.6V74C102.2,74.2,101.6,73.9,101.6,73.2z"/>
<path fill="#010101" d="M104.3,72.9c0,0.5,0.4,0.7,0.9,0.5V74c-0.7,0.2-1.6,0.1-1.6-0.9v-2.9h-0.5v-0.5h0.5l0.2-1h0.5v1h0.8v0.5
	h-0.8V72.9"/>
<path fill="#010101" d="M107.8,70.3c-1.8-0.4-1.2,2-1.3,3.7h-0.7l0-4.3h0.7c0,0.3,0,0.7,0,0.9c0.1-0.6,0.5-1.1,1.3-0.9V70.3"/>
<path fill="#010101" d="M108.4,74v-4.3h0.7V74H108.4 M108.4,68.8v-0.7h0.7v0.7H108.4z"/>
<path fill="#010101" d="M111.8,70.2c-0.9,0-1.1,0.7-1.1,1.6s0.2,1.7,1.1,1.7c0.5,0,0.9-0.3,1-0.9l0.7,0c-0.1,0.8-0.7,1.4-1.7,1.4
	c-1.3,0-1.7-0.9-1.8-2.2c-0.2-2.1,2.3-2.9,3.3-1.4c0.1,0.2,0.1,0.3,0.2,0.5l-0.7,0.1C112.6,70.5,112.4,70.2,111.8,70.2"/>
<polyline fill="#010101" points="116.9,74 115.5,72 115,72.5 115,74 114.2,74 114.2,68.1 115,68.1 115,71.8 116.8,69.7 117.7,69.7 
	115.9,71.5 117.8,74 116.9,74 "/>
<path fill="#010101" d="M118.7,70.2h-0.6l-0.1-1.8h0.7 M120.2,70.2h-0.6l-0.1-1.8h0.7L120.2,70.2z"/>
<path fill="#010101" d="M122.1,73.1c0,0.8,0,1.5-0.3,1.9h-0.5c0.2-0.3,0.4-0.6,0.4-1h-0.4v-0.9H122.1"/>
<path fill="#010101" d="M123.8,70.2h-0.6l-0.1-1.8h0.7 M125.3,70.2h-0.6l-0.1-1.8h0.7L125.3,70.2z"/>
<path fill="#010101" d="M128.8,70.8c-0.1-0.8-1.9-0.9-2,0c0.3,1.2,2.6,0.3,2.7,2c0.1,1.8-3.4,1.7-3.5,0.2l0.6-0.1
	c0.1,0.8,2.2,1,2.2,0c-0.2-1.3-2.5-0.3-2.7-2c-0.1-1.3,1.8-1.4,2.7-0.9c0.3,0.2,0.5,0.4,0.5,0.8"/>
<path fill="#010101" d="M131.1,72.9c0,0.5,0.4,0.7,0.9,0.5V74c-0.7,0.2-1.6,0.1-1.6-0.9v-2.9h-0.5v-0.5h0.5l0.2-1h0.5v1h0.8v0.5
	h-0.8V72.9"/>
<path fill="#010101" d="M133.1,72.8c0,0.4,0.3,0.7,0.7,0.7c0.9-0.1,1.4-0.7,1.4-1.7C134.2,71.9,133.1,71.8,133.1,72.8 M135.2,73.2
	c-0.3,0.5-0.7,0.9-1.5,0.9c-0.8,0-1.3-0.5-1.3-1.3c0-1.4,1.4-1.4,2.8-1.4c0.1-0.8-0.2-1.2-0.9-1.2c-0.5,0-0.9,0.2-0.9,0.7l-0.7-0.1
	c0.1-0.8,0.7-1.2,1.7-1.2c1,0,1.6,0.5,1.6,1.4v1.8c0,0.5,0.2,0.7,0.6,0.6V74C135.8,74.2,135.1,73.9,135.2,73.2z"/>
<path fill="#010101" d="M137.8,72.9c0,0.5,0.4,0.7,0.9,0.5V74c-0.7,0.2-1.6,0.1-1.6-0.9v-2.9h-0.5v-0.5h0.5l0.2-1h0.5v1h0.8v0.5
	h-0.8V72.9"/>
<path fill="#010101" d="M140.7,74.1c-2,0.1-1.2-2.6-1.4-4.4h0.7v2.7c0,0.7,0.2,1.1,0.9,1.1c1.6,0,1-2.3,1.1-3.8h0.7l0,4.3h-0.7
	c0-0.2,0-0.6,0-0.7C141.8,73.7,141.4,74,140.7,74.1"/>
<path fill="#010101" d="M146.3,70.8c-0.1-0.8-1.9-0.9-2,0c0.3,1.2,2.6,0.3,2.7,2c0.1,1.8-3.4,1.7-3.5,0.2l0.6-0.1
	c0.1,0.8,2.2,1,2.2,0c-0.2-1.3-2.5-0.3-2.7-2c-0.1-1.3,1.8-1.4,2.7-0.9c0.3,0.2,0.5,0.4,0.5,0.8"/>
<path fill="#010101" d="M148.3,70.2h-0.6l-0.1-1.8h0.7 M149.8,70.2h-0.6l-0.1-1.8h0.7L149.8,70.2z"/>
<path fill="#010101" d="M150.9,74v-0.8h0.8V74H150.9 M150.9,70.5v-0.8h0.8v0.8H150.9z"/>
<path fill="#010101" d="M153.4,70.2h-0.6l-0.1-1.8h0.7 M154.9,70.2h-0.6l-0.1-1.8h0.7L154.9,70.2z"/>
<path fill="#010101" d="M156.4,72.8c0,0.4,0.3,0.7,0.7,0.7c0.9-0.1,1.4-0.7,1.4-1.7C157.5,71.9,156.4,71.8,156.4,72.8 M158.5,73.2
	c-0.3,0.5-0.7,0.9-1.5,0.9c-0.8,0-1.3-0.5-1.3-1.3c0-1.4,1.4-1.4,2.8-1.4c0.1-0.8-0.2-1.2-0.9-1.2c-0.5,0-0.9,0.2-0.9,0.7l-0.7-0.1
	c0.1-0.8,0.7-1.2,1.7-1.2c1,0,1.6,0.5,1.6,1.4v1.8c0,0.5,0.2,0.7,0.6,0.6V74C159.1,74.2,158.4,73.9,158.5,73.2z"/>
<path fill="#010101" d="M161.9,70.2c-0.9,0-1.1,0.7-1.1,1.6s0.2,1.7,1.1,1.7c0.5,0,0.9-0.3,1-0.9l0.7,0c-0.1,0.8-0.7,1.4-1.7,1.4
	c-1.3,0-1.7-0.9-1.8-2.2c-0.2-2.1,2.3-2.9,3.3-1.4c0.1,0.2,0.1,0.3,0.2,0.5l-0.7,0.1C162.8,70.5,162.5,70.2,161.9,70.2"/>
<path fill="#010101" d="M165.2,72.9c0,0.5,0.4,0.7,0.9,0.5V74c-0.7,0.2-1.6,0.1-1.6-0.9v-2.9h-0.5v-0.5h0.5l0.2-1h0.5v1h0.8v0.5
	h-0.8V72.9"/>
<path fill="#010101" d="M166.6,74v-4.3h0.7V74H166.6 M166.6,68.8v-0.7h0.7v0.7H166.6z"/>
<polyline fill="#010101" points="170.3,74 169.4,74 167.9,69.7 168.6,69.7 169.9,73.4 171.1,69.7 171.9,69.7 "/>
<path fill="#010101" d="M175.3,71.4c0.1-1.3-1.7-1.7-2.2-0.6c-0.1,0.2-0.1,0.4-0.1,0.6H175.3 M174.2,69.6c1.4,0,1.9,0.9,1.9,2.4h-3
	c0,0.9,0.3,1.5,1.2,1.5c0.6,0,1-0.3,1.1-0.7l0.6,0.2c-0.2,0.6-0.8,1-1.7,1c-1.3,0-2-0.8-2-2.3C172.3,70.4,172.8,69.6,174.2,69.6z"/>
<path fill="#010101" d="M177.4,70.2h-0.6l-0.1-1.8h0.7 M178.9,70.2h-0.6l-0.1-1.8h0.7L178.9,70.2z"/>
<path fill="#010101" d="M180.8,73.1c0,0.8,0,1.5-0.3,1.9H180c0.2-0.3,0.4-0.6,0.4-1H180v-0.9H180.8"/>
<path fill="#010101" d="M182.5,70.2h-0.6l-0.1-1.8h0.7 M184,70.2h-0.6l-0.1-1.8h0.7L184,70.2z"/>
<path fill="#010101" d="M186.5,73.5c0.9,0,1.1-0.7,1.1-1.7c0-1-0.2-1.6-1.1-1.6c-0.9,0-1,0.8-1,1.7
	C185.5,72.7,185.6,73.5,186.5,73.5 M187.6,73.3c-0.2,0.5-0.7,0.8-1.4,0.8c-1.2,0-1.6-0.9-1.6-2.2c0-1.3,0.4-2.2,1.6-2.3
	c0.7,0,1.1,0.3,1.4,0.7c0-0.2,0-0.5,0-0.7h0.7l0,6h-0.7L187.6,73.3z"/>
<path fill="#010101" d="M190.2,72.9c0,0.5,0.4,0.7,0.9,0.5V74c-0.7,0.2-1.6,0.1-1.6-0.9v-2.9H189v-0.5h0.5l0.2-1h0.5v1h0.8v0.5h-0.8
	V72.9"/>
<path fill="#010101" d="M195.2,69.7l-1.9,5c-0.3,0.6-0.8,1.1-1.8,0.9v-0.5c0.9,0.1,1.2-0.5,1.4-1.1l-1.7-4.3h0.8l1.3,3.5l1.2-3.5
	H195.2"/>
<path fill="#010101" d="M196.2,70.2h-0.6l-0.1-1.8h0.7 M197.6,70.2h-0.6l-0.1-1.8h0.7L197.6,70.2z"/>
<path fill="#010101" d="M198.8,74v-0.8h0.8V74H198.8 M198.8,70.5v-0.8h0.8v0.8H198.8z"/>
<polyline fill="#010101" points="200.9,74 200.9,73.4 202.3,73.4 202.3,69.1 201.1,70 201.1,69.3 202.4,68.4 203,68.4 203,73.4 
	204.4,73.4 204.4,74 200.9,74 "/>
<path fill="#010101" d="M207,73.5c1.1,0,1.2-1.1,1.2-2.3s-0.1-2.3-1.2-2.3c-1.1,0-1.2,1.1-1.2,2.3C205.8,72.4,205.9,73.5,207,73.5
	 M207.1,68.3c1.5,0,1.9,1.2,1.9,2.9s-0.5,2.9-1.9,2.9c-1.5,0-1.9-1.3-1.9-2.9C205.1,69.5,205.5,68.3,207.1,68.3z"/>
<path fill="#010101" d="M211.5,73.5c1.1,0,1.2-1.1,1.2-2.3s-0.1-2.3-1.2-2.3c-1.1,0-1.2,1.1-1.2,2.3
	C210.3,72.4,210.4,73.5,211.5,73.5 M211.6,68.3c1.5,0,1.9,1.2,1.9,2.9s-0.5,2.9-1.9,2.9c-1.5,0-1.9-1.3-1.9-2.9
	C209.6,69.5,210,68.3,211.6,68.3z"/>
<path fill="#010101" d="M216,73.5c1.1,0,1.2-1.1,1.2-2.3s-0.1-2.3-1.2-2.3c-1.1,0-1.2,1.1-1.2,2.3C214.8,72.4,214.9,73.5,216,73.5
	 M216.1,68.3c1.5,0,1.9,1.2,1.9,2.9s-0.5,2.9-1.9,2.9c-1.5,0-1.9-1.3-1.9-2.9C214.1,69.5,214.5,68.3,216.1,68.3z"/>
<path fill="#010101" d="M219.8,73.1c0,0.8,0,1.5-0.3,1.9H219c0.2-0.3,0.4-0.6,0.4-1H219v-0.9H219.8"/>
<path fill="#010101" d="M221.5,70.2H221l-0.1-1.8h0.7 M223,70.2h-0.6l-0.1-1.8h0.7L223,70.2z"/>
<path fill="#010101" d="M224.7,72.9c0,0.5,0.4,0.7,0.9,0.5V74c-0.7,0.2-1.6,0.1-1.6-0.9v-2.9h-0.5v-0.5h0.5l0.2-1h0.5v1h0.8v0.5
	h-0.8V72.9"/>
<path fill="#010101" d="M226.2,74v-4.3h0.7V74H226.2 M226.2,68.8v-0.7h0.7v0.7H226.2z"/>
<path fill="#010101" d="M229.6,70.2c-0.9,0-1.1,0.7-1.1,1.6s0.2,1.7,1.1,1.7c0.5,0,0.9-0.3,1-0.9l0.7,0c-0.1,0.8-0.7,1.4-1.7,1.4
	c-1.3,0-1.7-0.9-1.8-2.2c-0.2-2.1,2.3-2.9,3.3-1.4c0.1,0.2,0.1,0.3,0.2,0.5l-0.7,0.1C230.4,70.5,230.1,70.2,229.6,70.2"/>
<polyline fill="#010101" points="234.7,74 233.2,72 232.7,72.5 232.7,74 232,74 232,68.1 232.7,68.1 232.7,71.8 234.6,69.7 
	235.4,69.7 233.7,71.5 235.5,74 234.7,74 "/>
<path fill="#010101" d="M238.9,71.4c0.1-1.3-1.7-1.7-2.2-0.6c-0.1,0.2-0.1,0.4-0.1,0.6H238.9 M237.8,69.6c1.4,0,1.9,0.9,1.9,2.4h-3
	c0,0.9,0.3,1.5,1.2,1.5c0.6,0,1-0.3,1.1-0.7l0.6,0.2c-0.2,0.6-0.8,1-1.7,1c-1.3,0-2-0.8-2-2.3C235.9,70.4,236.4,69.6,237.8,69.6z"/>
<path fill="#010101" d="M242.6,70.3c-1.8-0.4-1.2,2-1.3,3.7h-0.7l0-4.3h0.7c0,0.3,0,0.7,0,0.9c0.1-0.6,0.5-1.1,1.3-0.9V70.3"/>
<path fill="#010101" d="M243.7,70.2h-0.6l-0.1-1.8h0.7 M245.1,70.2h-0.6l-0.1-1.8h0.7L245.1,70.2z"/>
<path fill="#010101" d="M246.3,74v-0.8h0.8V74H246.3 M246.3,70.5v-0.8h0.8v0.8H246.3z"/>
<path fill="#010101" d="M248.8,70.2h-0.6l-0.1-1.8h0.7 M250.3,70.2h-0.6l-0.1-1.8h0.7L250.3,70.2z"/>
<path fill="#010101" d="M256.1,74l0-4.9c-0.5,1.7-1.2,3.3-1.8,4.9h-0.5l-1.8-4.9l0,4.9h-0.7v-5.6h1l1.7,4.7c0.5-1.7,1.1-3.2,1.7-4.7
	h1V74H256.1"/>
<path fill="#010101" d="M261.5,69.7c-0.1-1.1-2.8-1.2-2.8,0c0.3,1.7,3.6,0.3,3.7,2.7c0.1,1.8-2.7,2-3.9,1.2c-0.4-0.2-0.6-0.6-0.7-1
	l0.7-0.2c0.1,1.3,3.2,1.4,3.2,0c0-1.8-3.5-0.3-3.6-2.7c-0.1-1.8,3.3-1.9,4-0.8c0.1,0.2,0.2,0.4,0.2,0.6"/>
<polyline fill="#010101" points="264.2,69 264.2,71.1 267.3,71.1 267.3,71.7 264.2,71.7 264.2,74 263.5,74 263.5,68.4 267.4,68.4 
	267.4,69 264.2,69 "/>
<polyline fill="#010101" points="270.6,69 270.6,74 269.8,74 269.8,69 267.9,69 267.9,68.4 272.5,68.4 272.5,69 270.6,69 "/>
<path fill="#010101" d="M273.6,70.2h-0.6l-0.1-1.8h0.7 M275.1,70.2h-0.6l-0.1-1.8h0.7L275.1,70.2z"/>
<path fill="#010101" d="M277.2,73.1c0,1.4,0.2,2.9-1.6,2.6v-0.5c1.8,0.3,0.1-2.9,1.7-3.3c-0.9-0.1-0.8-1.3-0.8-2.4
	c0-0.7-0.2-0.9-0.9-0.9v-0.5c1-0.1,1.6,0.2,1.6,1.2c0,1.1-0.3,2.4,0.9,2.4v0.5C277.5,72.2,277.2,72.5,277.2,73.1"/>
</svg>
