<?xml version="1.0" encoding="utf-8"?>
<!-- Generator: Adobe Illustrator 17.0.0, SVG Export Plug-In . SVG Version: 6.00 Build 0)  -->
<!DOCTYPE svg PUBLIC "-//W3C//DTD SVG 1.0//EN" "http://www.w3.org/TR/2001/REC-SVG-20010904/DTD/svg10.dtd">
<svg version="1.0" id="Layer_1" xmlns="http://www.w3.org/2000/svg" xmlns:xlink="http://www.w3.org/1999/xlink" x="0px" y="0px"
	 width="293px" height="199px" viewBox="0 0 293 199" enable-background="new 0 0 293 199" xml:space="preserve">
<path fill="#FFFFFF" d="M109.5,11.25c0-1.35,0.9-2.25,2.25-2.25h67.5c0.9,0,2.25,0.9,2.25,2.25v49.5c0,0.9-1.35,2.25-2.25,2.25
	h-67.5c-1.35,0-2.25-1.35-2.25-2.25V11.25z"/>
<path fill="none" stroke="#000000" stroke-width="0.9" stroke-miterlimit="10" d="M109.5,11.25c0-1.35,0.9-2.25,2.25-2.25h67.5
	c0.9,0,2.25,0.9,2.25,2.25v49.5c0,0.9-1.35,2.25-2.25,2.25h-67.5c-1.35,0-2.25-1.35-2.25-2.25V11.25z"/>
<path d="M125.812,18.698c-0.112-1.08-2.767-1.215-2.79,0.045c0.315,1.688,3.555,0.315,3.667,2.677
	c0.068,1.755-2.723,1.958-3.938,1.237c-0.383-0.225-0.63-0.585-0.742-1.035l0.742-0.158c0.113,1.26,3.173,1.418,3.173-0.022
	c0-1.755-3.488-0.315-3.645-2.655c-0.112-1.845,3.263-1.89,4.027-0.765c0.113,0.158,0.18,0.36,0.248,0.563"/>
<path d="M131.077,18.675l-1.935,4.972c-0.315,0.63-0.833,1.148-1.823,0.945v-0.54c0.878,0.135,1.193-0.45,1.44-1.125l-1.688-4.253
	h0.765l1.283,3.51l1.215-3.51H131.077"/>
<path d="M133.732,18.585c2.003-0.09,1.193,2.61,1.35,4.365h-0.72v-2.722c0-0.698-0.18-1.102-0.878-1.08
	c-1.62,0.045-0.99,2.295-1.103,3.802h-0.72l-0.022-4.275h0.675c0.022,0.225-0.023,0.54,0.045,0.72
	C132.607,18.9,133.012,18.608,133.732,18.585"/>
<path d="M137.76,19.148c-0.9,0-1.08,0.742-1.08,1.643s0.202,1.688,1.08,1.688c0.54,0,0.923-0.315,0.967-0.855l0.72,0.045
	c-0.135,0.833-0.697,1.372-1.665,1.372c-1.328,0-1.71-0.922-1.845-2.227c-0.225-2.093,2.272-2.948,3.307-1.44
	c0.09,0.157,0.112,0.315,0.158,0.495l-0.72,0.068C138.592,19.463,138.322,19.148,137.76,19.148"/>
<path d="M142.035,19.148c-1.62,0-0.99,2.295-1.103,3.802h-0.72v-5.872h0.72l-0.022,2.318c0.27-0.472,0.63-0.81,1.372-0.81
	c2.003,0,1.193,2.61,1.35,4.365h-0.72v-2.722C142.957,19.508,142.732,19.125,142.035,19.148"/>
<path d="M146.715,19.283c-1.755-0.36-1.192,2.047-1.283,3.667h-0.72l-0.022-4.275h0.675c0.022,0.27-0.023,0.652,0.045,0.878
	c0.135-0.607,0.518-1.102,1.305-0.922V19.283"/>
<path d="M149.055,22.5c0.99,0.022,1.193-0.698,1.193-1.688c0-0.968-0.18-1.688-1.147-1.688s-1.193,0.72-1.193,1.688
	C147.907,21.78,148.132,22.478,149.055,22.5 M149.077,18.585c1.395-0.022,1.913,0.833,1.913,2.228
	c0.023,1.417-0.607,2.227-1.935,2.227c-1.327,0-1.867-0.878-1.89-2.227C147.165,19.328,147.795,18.585,149.077,18.585z"/>
<path d="M153.96,18.585c2.003-0.09,1.193,2.61,1.35,4.365h-0.72v-2.722c0-0.698-0.18-1.102-0.878-1.08
	c-1.62,0.045-0.99,2.295-1.103,3.802h-0.72l-0.022-4.275h0.675c0.022,0.225-0.023,0.54,0.045,0.72
	C152.835,18.9,153.24,18.608,153.96,18.585"/>
<path d="M158.055,22.5c0.99,0.022,1.193-0.698,1.193-1.688c0-0.968-0.18-1.688-1.147-1.688s-1.193,0.72-1.193,1.688
	C156.907,21.78,157.132,22.478,158.055,22.5 M158.077,18.585c1.395-0.022,1.913,0.833,1.913,2.228
	c0.023,1.417-0.607,2.227-1.935,2.227c-1.327,0-1.867-0.878-1.89-2.227C156.165,19.328,156.795,18.585,158.077,18.585z"/>
<path d="M162.217,23.04c-2.003,0.09-1.215-2.61-1.372-4.365h0.72v2.7c0,0.698,0.158,1.125,0.878,1.102
	c1.62-0.045,1.012-2.273,1.125-3.802h0.697l0.023,4.275h-0.675c-0.022-0.225,0.023-0.562-0.045-0.742
	C163.32,22.703,162.937,23.018,162.217,23.04"/>
<path d="M167.865,19.733c-0.068-0.765-1.935-0.855-1.957,0c0.337,1.193,2.587,0.27,2.677,2.025c0.09,1.755-3.375,1.665-3.533,0.18
	l0.63-0.112c0.09,0.81,2.182,1.012,2.205,0c-0.225-1.26-2.543-0.338-2.655-2.025c-0.09-1.283,1.845-1.417,2.745-0.945
	c0.27,0.158,0.473,0.427,0.54,0.787"/>
<path d="M126.667,29.498c1.35-0.045,3.082,0.292,3.082-1.057c0-1.372-1.8-0.945-3.082-1.013V29.498 M130.492,28.418
	c-0.023,0.922-0.518,1.44-1.35,1.575l1.575,2.407h-0.855l-1.462-2.317h-1.733V32.4h-0.742v-5.58
	C127.905,26.888,130.537,26.348,130.492,28.418z"/>
<path d="M134.497,29.858c0.135-1.35-1.71-1.732-2.182-0.63c-0.068,0.158-0.135,0.383-0.135,0.63H134.497 M133.327,28.035
	c1.418,0,1.935,0.945,1.89,2.385h-3.038c0,0.9,0.315,1.508,1.193,1.53c0.585,0.022,0.967-0.27,1.103-0.653l0.63,0.18
	c-0.247,0.63-0.833,1.013-1.733,1.013c-1.305,0-1.98-0.833-1.957-2.25C131.438,28.868,132,28.035,133.327,28.035z"/>
<path d="M137.985,31.95c0.9,0,1.013-0.765,1.013-1.688c0-0.923-0.135-1.643-1.013-1.665c-0.945,0-1.147,0.72-1.147,1.71
	C136.837,31.275,137.063,31.95,137.985,31.95 M138.165,28.035c1.237,0.023,1.575,0.923,1.575,2.205c0,1.283-0.36,2.205-1.575,2.25
	c-0.698,0-1.103-0.292-1.35-0.765l0.022,2.362h-0.72l-0.022-5.962h0.698l0.045,0.675C137.063,28.328,137.467,28.035,138.165,28.035z
	"/>
<polyline points="140.617,32.4 140.617,26.528 141.337,26.528 141.337,32.4 140.617,32.4 "/>
<path d="M142.395,32.4v-4.275h0.72V32.4H142.395 M142.395,27.203v-0.675h0.72v0.675H142.395z"/>
<path d="M145.792,28.598c-0.9,0-1.08,0.742-1.08,1.643s0.202,1.688,1.08,1.688c0.54,0,0.923-0.315,0.967-0.855l0.72,0.045
	c-0.135,0.833-0.697,1.372-1.665,1.372c-1.328,0-1.71-0.922-1.845-2.227c-0.225-2.093,2.272-2.948,3.307-1.44
	c0.09,0.157,0.112,0.315,0.158,0.495l-0.72,0.068C146.625,28.913,146.355,28.598,145.792,28.598"/>
<path d="M148.762,31.208c0,0.45,0.27,0.742,0.72,0.742c0.922-0.068,1.418-0.653,1.35-1.665
	C149.865,30.33,148.762,30.173,148.762,31.208 M150.855,31.59c-0.337,0.473-0.698,0.923-1.53,0.9
	c-0.81-0.023-1.305-0.472-1.305-1.282c-0.023-1.44,1.417-1.418,2.813-1.418c0.068-0.787-0.203-1.215-0.923-1.215
	c-0.54,0.022-0.922,0.157-0.945,0.698l-0.742-0.068c0.113-0.833,0.742-1.17,1.71-1.17c1.013,0,1.62,0.45,1.62,1.44v1.845
	c-0.023,0.45,0.158,0.72,0.63,0.607v0.45C151.485,32.58,150.81,32.333,150.855,31.59z"/>
<path d="M153.51,31.343c-0.045,0.54,0.405,0.653,0.855,0.495v0.54c-0.743,0.225-1.575,0.112-1.575-0.878v-2.857h-0.495v-0.518h0.54
	l0.202-0.968h0.473v0.968h0.788v0.518h-0.788V31.343"/>
<path d="M154.972,32.4v-4.275h0.72V32.4H154.972 M154.972,27.203v-0.675h0.72v0.675H154.972z"/>
<path d="M158.437,31.95c0.99,0.022,1.193-0.698,1.193-1.688c0-0.968-0.18-1.688-1.147-1.688s-1.193,0.72-1.193,1.688
	C157.29,31.23,157.515,31.928,158.437,31.95 M158.46,28.035c1.395-0.022,1.913,0.833,1.913,2.228
	c0.023,1.417-0.607,2.227-1.935,2.227c-1.327,0-1.867-0.878-1.89-2.227C156.547,28.778,157.177,28.035,158.46,28.035z"/>
<path d="M163.342,28.035c2.003-0.09,1.193,2.61,1.35,4.365h-0.72v-2.722c0-0.698-0.18-1.102-0.878-1.08
	c-1.62,0.045-0.99,2.295-1.103,3.802h-0.72l-0.022-4.275h0.675c0.022,0.225-0.023,0.54,0.045,0.72
	C162.217,28.35,162.622,28.058,163.342,28.035"/>
<path d="M131.167,41.693c1.238-0.045,2.79,0.315,2.79-1.013c0-1.26-1.575-0.945-2.79-0.99V41.693 M131.167,39.105
	c1.125-0.023,2.475,0.202,2.475-0.945c0-1.057-1.418-0.81-2.475-0.833V39.105z M133.35,39.353c0.788,0.112,1.372,0.517,1.372,1.372
	c0,1.957-2.385,1.53-4.297,1.575v-5.58c1.71,0.068,3.982-0.383,3.982,1.35C134.407,38.813,133.98,39.195,133.35,39.353z"/>
<path d="M138.57,39.758c0.135-1.35-1.71-1.732-2.182-0.63c-0.068,0.158-0.135,0.383-0.135,0.63H138.57 M137.4,37.935
	c1.418,0,1.935,0.945,1.89,2.385h-3.038c0,0.9,0.315,1.508,1.193,1.53c0.585,0.022,0.967-0.27,1.103-0.653l0.63,0.18
	c-0.247,0.63-0.833,1.013-1.733,1.013c-1.305,0-1.98-0.833-1.957-2.25C135.51,38.768,136.072,37.935,137.4,37.935z"/>
<path d="M140.977,41.242c-0.045,0.54,0.405,0.653,0.855,0.495v0.54c-0.743,0.225-1.575,0.112-1.575-0.878v-2.857h-0.495v-0.518h0.54
	l0.202-0.968h0.473v0.968h0.788v0.518h-0.788V41.242"/>
<polyline points="146.535,42.3 145.725,42.3 144.825,38.61 143.902,42.3 143.092,42.3 141.877,38.025 142.597,38.025 
	143.475,41.715 144.442,38.025 145.207,38.025 146.13,41.715 147.075,38.025 147.772,38.025 "/>
<path d="M151.147,39.758c0.135-1.35-1.71-1.732-2.182-0.63c-0.068,0.158-0.135,0.383-0.135,0.63H151.147 M149.977,37.935
	c1.418,0,1.935,0.945,1.89,2.385h-3.038c0,0.9,0.315,1.508,1.193,1.53c0.585,0.022,0.967-0.27,1.103-0.653l0.63,0.18
	c-0.247,0.63-0.833,1.013-1.733,1.013c-1.305,0-1.98-0.833-1.957-2.25C148.087,38.768,148.65,37.935,149.977,37.935z"/>
<path d="M155.647,39.758c0.135-1.35-1.71-1.732-2.182-0.63c-0.068,0.158-0.135,0.383-0.135,0.63H155.647 M154.477,37.935
	c1.418,0,1.935,0.945,1.89,2.385h-3.038c0,0.9,0.315,1.508,1.193,1.53c0.585,0.022,0.967-0.27,1.103-0.653l0.63,0.18
	c-0.247,0.63-0.833,1.013-1.733,1.013c-1.305,0-1.98-0.833-1.957-2.25C152.587,38.768,153.15,37.935,154.477,37.935z"/>
<path d="M159.36,37.935c2.003-0.09,1.193,2.61,1.35,4.365h-0.72v-2.722c0-0.698-0.18-1.102-0.878-1.08
	c-1.62,0.045-0.99,2.295-1.103,3.802h-0.72l-0.022-4.275h0.675c0.022,0.225-0.023,0.54,0.045,0.72
	C158.235,38.25,158.64,37.958,159.36,37.935"/>
<polyline points="128.692,52.2 128.692,46.62 129.457,46.62 129.457,52.2 128.692,52.2 "/>
<path d="M132.832,47.835c2.003-0.09,1.193,2.61,1.35,4.365h-0.72v-2.722c0-0.698-0.18-1.102-0.878-1.08
	c-1.62,0.045-0.99,2.295-1.103,3.802h-0.72l-0.022-4.275h0.675c0.022,0.225-0.023,0.54,0.045,0.72
	C131.707,48.15,132.112,47.858,132.832,47.835"/>
<path d="M137.737,48.983c-0.068-0.765-1.935-0.855-1.957,0c0.337,1.193,2.587,0.27,2.677,2.025c0.09,1.755-3.375,1.665-3.533,0.18
	l0.63-0.112c0.09,0.81,2.182,1.012,2.205,0c-0.225-1.26-2.543-0.338-2.655-2.025c-0.09-1.283,1.845-1.417,2.745-0.945
	c0.27,0.158,0.473,0.427,0.54,0.787"/>
<path d="M140.077,51.143c-0.045,0.54,0.405,0.653,0.855,0.495v0.54c-0.743,0.225-1.575,0.112-1.575-0.878v-2.857h-0.495v-0.518h0.54
	l0.202-0.968h0.473v0.968h0.788v0.518h-0.788V51.143"/>
<path d="M142.08,51.008c0,0.45,0.27,0.742,0.72,0.742c0.922-0.068,1.418-0.653,1.35-1.665
	C143.182,50.13,142.08,49.973,142.08,51.008 M144.172,51.39c-0.337,0.473-0.698,0.923-1.53,0.9c-0.81-0.023-1.305-0.472-1.305-1.282
	c-0.023-1.44,1.417-1.418,2.813-1.418c0.068-0.787-0.203-1.215-0.923-1.215c-0.54,0.022-0.922,0.157-0.945,0.698l-0.742-0.068
	c0.113-0.833,0.742-1.17,1.71-1.17c1.013,0,1.62,0.45,1.62,1.44v1.845c-0.023,0.45,0.158,0.72,0.63,0.607v0.45
	C144.802,52.38,144.127,52.133,144.172,51.39z"/>
<path d="M148.132,47.835c2.003-0.09,1.193,2.61,1.35,4.365h-0.72v-2.722c0-0.698-0.18-1.102-0.878-1.08
	c-1.62,0.045-0.99,2.295-1.103,3.802h-0.72l-0.022-4.275h0.675c0.022,0.225-0.023,0.54,0.045,0.72
	C147.007,48.15,147.412,47.858,148.132,47.835"/>
<path d="M152.16,48.398c-0.9,0-1.08,0.742-1.08,1.643s0.202,1.688,1.08,1.688c0.54,0,0.923-0.315,0.967-0.855l0.72,0.045
	c-0.135,0.833-0.697,1.372-1.665,1.372c-1.328,0-1.71-0.922-1.845-2.227c-0.225-2.093,2.272-2.948,3.307-1.44
	c0.09,0.157,0.112,0.315,0.158,0.495l-0.72,0.068C152.992,48.713,152.722,48.398,152.16,48.398"/>
<path d="M157.47,49.658c0.135-1.35-1.71-1.732-2.182-0.63c-0.068,0.158-0.135,0.383-0.135,0.63H157.47 M156.3,47.835
	c1.418,0,1.935,0.945,1.89,2.385h-3.038c0,0.9,0.315,1.508,1.193,1.53c0.585,0.022,0.967-0.27,1.103-0.653l0.63,0.18
	c-0.247,0.63-0.833,1.013-1.733,1.013c-1.305,0-1.98-0.833-1.957-2.25C154.41,48.668,154.972,47.835,156.3,47.835z"/>
<path d="M161.587,48.983c-0.068-0.765-1.935-0.855-1.957,0c0.337,1.193,2.587,0.27,2.677,2.025c0.09,1.755-3.375,1.665-3.533,0.18
	l0.63-0.112c0.09,0.81,2.182,1.012,2.205,0c-0.225-1.26-2.543-0.338-2.655-2.025c-0.09-1.283,1.845-1.417,2.745-0.945
	c0.27,0.158,0.473,0.427,0.54,0.787"/>
<path fill="none" stroke="#000000" stroke-width="0.9" stroke-miterlimit="10" d="M10.5,110.25c0-1.35,0.9-2.25,2.25-2.25h94.5
	c0.9,0,2.25,0.9,2.25,2.25v76.5c0,0.9-1.35,2.25-2.25,2.25h-94.5c-1.35,0-2.25-1.35-2.25-2.25V110.25z"/>
<path d="M52.057,143.573L51,140.805c-0.27,1.013-0.698,1.845-1.035,2.768H52.057 M52.912,145.8l-0.63-1.62H49.74l-0.63,1.62h-0.788
	l2.273-5.58h0.855l2.227,5.58H52.912z"/>
<path d="M59.1,145.8l0.045-4.905c-0.518,1.71-1.215,3.263-1.8,4.905h-0.518l-1.822-4.905l0.023,4.905h-0.653v-5.58h0.99l1.732,4.747
	c0.473-1.688,1.148-3.15,1.71-4.747h0.967v5.58H59.1"/>
<path d="M61.845,143.033c1.283,0,2.79,0.247,2.79-1.125c0-1.328-1.53-1.057-2.79-1.08V143.033 M61.102,140.22
	c1.958,0.022,4.298-0.338,4.298,1.688c0,1.755-1.732,1.8-3.555,1.71v2.182h-0.743V140.22z"/>
<path d="M69.99,141.548c-0.113-1.08-2.768-1.215-2.79,0.045c0.315,1.688,3.555,0.315,3.667,2.677
	c0.068,1.755-2.723,1.958-3.938,1.237c-0.383-0.225-0.63-0.585-0.743-1.035l0.743-0.158c0.113,1.26,3.173,1.418,3.173-0.022
	c0-1.755-3.488-0.315-3.645-2.655c-0.113-1.845,3.262-1.89,4.027-0.765c0.113,0.158,0.18,0.36,0.248,0.563"/>
<polyline points="45.442,155.7 45.442,150.12 46.207,150.12 46.207,155.7 45.442,155.7 "/>
<path d="M49.582,151.335c2.003-0.09,1.193,2.61,1.35,4.365h-0.72v-2.722c0-0.698-0.18-1.102-0.878-1.08
	c-1.62,0.045-0.99,2.295-1.103,3.802h-0.72l-0.022-4.275h0.675c0.022,0.225-0.023,0.54,0.045,0.72
	C48.457,151.65,48.862,151.358,49.582,151.335"/>
<path d="M54.487,152.483c-0.068-0.765-1.935-0.855-1.958,0c0.338,1.193,2.588,0.27,2.678,2.025c0.09,1.755-3.375,1.665-3.533,0.18
	l0.63-0.112c0.09,0.81,2.182,1.012,2.205,0c-0.225-1.26-2.543-0.338-2.655-2.025c-0.09-1.283,1.845-1.417,2.745-0.945
	c0.27,0.158,0.473,0.427,0.54,0.787"/>
<path d="M56.827,154.643c-0.045,0.54,0.405,0.653,0.855,0.495v0.54c-0.743,0.225-1.575,0.112-1.575-0.878v-2.857h-0.495v-0.518h0.54
	l0.202-0.968h0.473v0.968h0.787v0.518h-0.787V154.643"/>
<path d="M58.83,154.508c0,0.45,0.27,0.742,0.72,0.742c0.923-0.068,1.418-0.653,1.35-1.665
	C59.932,153.63,58.83,153.473,58.83,154.508 M60.922,154.89c-0.337,0.473-0.697,0.923-1.53,0.9c-0.81-0.023-1.305-0.472-1.305-1.282
	c-0.023-1.44,1.417-1.418,2.813-1.418c0.068-0.787-0.202-1.215-0.923-1.215c-0.54,0.022-0.923,0.157-0.945,0.698l-0.742-0.068
	c0.113-0.833,0.742-1.17,1.71-1.17c1.013,0,1.62,0.45,1.62,1.44v1.845c-0.023,0.45,0.158,0.72,0.63,0.607v0.45
	C61.552,155.88,60.877,155.633,60.922,154.89z"/>
<path d="M64.882,151.335c2.003-0.09,1.193,2.61,1.35,4.365h-0.72v-2.722c0-0.698-0.18-1.102-0.878-1.08
	c-1.62,0.045-0.99,2.295-1.103,3.802h-0.72l-0.022-4.275h0.675c0.022,0.225-0.023,0.54,0.045,0.72
	C63.757,151.65,64.162,151.358,64.882,151.335"/>
<path d="M68.91,151.898c-0.9,0-1.08,0.742-1.08,1.643s0.202,1.688,1.08,1.688c0.54,0,0.923-0.315,0.967-0.855l0.72,0.045
	c-0.135,0.833-0.697,1.372-1.665,1.372c-1.327,0-1.71-0.922-1.845-2.227c-0.225-2.093,2.272-2.948,3.307-1.44
	c0.09,0.157,0.113,0.315,0.158,0.495l-0.72,0.068C69.742,152.213,69.472,151.898,68.91,151.898"/>
<path d="M74.22,153.158c0.135-1.35-1.71-1.732-2.183-0.63c-0.067,0.158-0.135,0.383-0.135,0.63H74.22 M73.05,151.335
	c1.418,0,1.935,0.945,1.89,2.385h-3.038c0,0.9,0.315,1.508,1.193,1.53c0.585,0.022,0.967-0.27,1.102-0.653l0.63,0.18
	c-0.247,0.63-0.833,1.013-1.732,1.013c-1.305,0-1.98-0.833-1.958-2.25C71.16,152.168,71.722,151.335,73.05,151.335z"/>
<polyline points="58.357,165.15 58.357,164.543 59.797,164.543 59.797,160.268 58.537,161.145 58.537,160.493 59.842,159.57 
	60.495,159.57 60.495,164.543 61.867,164.543 61.867,165.15 58.357,165.15 "/>
<path fill="none" stroke="#000000" stroke-width="0.9" stroke-miterlimit="10" d="M181.5,110.25c0-1.35,0.9-2.25,2.25-2.25h94.5
	c0.9,0,2.25,0.9,2.25,2.25v76.5c0,0.9-1.35,2.25-2.25,2.25h-94.5c-1.35,0-2.25-1.35-2.25-2.25V110.25z"/>
<path d="M227.557,143.573l-1.057-2.768c-0.27,1.013-0.698,1.845-1.035,2.768H227.557 M228.412,145.8l-0.63-1.62h-2.543l-0.63,1.62
	h-0.788l2.272-5.58h0.855l2.227,5.58H228.412z"/>
<path d="M234.6,145.8l0.045-4.905c-0.517,1.71-1.215,3.263-1.8,4.905h-0.518l-1.822-4.905l0.022,4.905h-0.652v-5.58h0.99
	l1.733,4.747c0.473-1.688,1.147-3.15,1.71-4.747h0.967v5.58H234.6"/>
<path d="M237.345,143.033c1.283,0,2.79,0.247,2.79-1.125c0-1.328-1.53-1.057-2.79-1.08V143.033 M236.602,140.22
	c1.957,0.022,4.297-0.338,4.297,1.688c0,1.755-1.732,1.8-3.555,1.71v2.182h-0.742V140.22z"/>
<path d="M245.49,141.548c-0.112-1.08-2.767-1.215-2.79,0.045c0.315,1.688,3.555,0.315,3.667,2.677
	c0.068,1.755-2.723,1.958-3.938,1.237c-0.383-0.225-0.63-0.585-0.742-1.035l0.742-0.158c0.113,1.26,3.173,1.418,3.173-0.022
	c0-1.755-3.488-0.315-3.645-2.655c-0.112-1.845,3.263-1.89,4.027-0.765c0.113,0.158,0.18,0.36,0.248,0.563"/>
<polyline points="220.942,155.7 220.942,150.12 221.707,150.12 221.707,155.7 220.942,155.7 "/>
<path d="M225.082,151.335c2.003-0.09,1.193,2.61,1.35,4.365h-0.72v-2.722c0-0.698-0.18-1.102-0.878-1.08
	c-1.62,0.045-0.99,2.295-1.103,3.802h-0.72l-0.022-4.275h0.675c0.022,0.225-0.023,0.54,0.045,0.72
	C223.957,151.65,224.362,151.358,225.082,151.335"/>
<path d="M229.987,152.483c-0.068-0.765-1.935-0.855-1.957,0c0.337,1.193,2.587,0.27,2.677,2.025c0.09,1.755-3.375,1.665-3.533,0.18
	l0.63-0.112c0.09,0.81,2.182,1.012,2.205,0c-0.225-1.26-2.543-0.338-2.655-2.025c-0.09-1.283,1.845-1.417,2.745-0.945
	c0.27,0.158,0.473,0.427,0.54,0.787"/>
<path d="M232.327,154.643c-0.045,0.54,0.405,0.653,0.855,0.495v0.54c-0.743,0.225-1.575,0.112-1.575-0.878v-2.857h-0.495v-0.518
	h0.54l0.202-0.968h0.473v0.968h0.788v0.518h-0.788V154.643"/>
<path d="M234.33,154.508c0,0.45,0.27,0.742,0.72,0.742c0.922-0.068,1.418-0.653,1.35-1.665
	C235.432,153.63,234.33,153.473,234.33,154.508 M236.422,154.89c-0.337,0.473-0.698,0.923-1.53,0.9
	c-0.81-0.023-1.305-0.472-1.305-1.282c-0.023-1.44,1.417-1.418,2.813-1.418c0.068-0.787-0.203-1.215-0.923-1.215
	c-0.54,0.022-0.922,0.157-0.945,0.698l-0.742-0.068c0.113-0.833,0.742-1.17,1.71-1.17c1.013,0,1.62,0.45,1.62,1.44v1.845
	c-0.023,0.45,0.158,0.72,0.63,0.607v0.45C237.052,155.88,236.377,155.633,236.422,154.89z"/>
<path d="M240.382,151.335c2.003-0.09,1.193,2.61,1.35,4.365h-0.72v-2.722c0-0.698-0.18-1.102-0.878-1.08
	c-1.62,0.045-0.99,2.295-1.103,3.802h-0.72l-0.022-4.275h0.675c0.022,0.225-0.023,0.54,0.045,0.72
	C239.257,151.65,239.662,151.358,240.382,151.335"/>
<path d="M244.41,151.898c-0.9,0-1.08,0.742-1.08,1.643s0.202,1.688,1.08,1.688c0.54,0,0.923-0.315,0.967-0.855l0.72,0.045
	c-0.135,0.833-0.697,1.372-1.665,1.372c-1.328,0-1.71-0.922-1.845-2.227c-0.225-2.093,2.272-2.948,3.307-1.44
	c0.09,0.157,0.112,0.315,0.158,0.495l-0.72,0.068C245.242,152.213,244.972,151.898,244.41,151.898"/>
<path d="M249.72,153.158c0.135-1.35-1.71-1.732-2.182-0.63c-0.068,0.158-0.135,0.383-0.135,0.63H249.72 M248.55,151.335
	c1.418,0,1.935,0.945,1.89,2.385h-3.038c0,0.9,0.315,1.508,1.193,1.53c0.585,0.022,0.967-0.27,1.103-0.653l0.63,0.18
	c-0.247,0.63-0.833,1.013-1.733,1.013c-1.305,0-1.98-0.833-1.957-2.25C246.66,152.168,247.222,151.335,248.55,151.335z"/>
<path d="M235.522,159.503c1.845-0.158,2.092,1.958,0.967,2.97l-1.395,1.238c-0.247,0.247-0.517,0.495-0.652,0.832h2.902v0.607h-3.69
	c0.045-2.227,2.88-2.115,2.88-4.095c0-0.63-0.36-0.967-1.012-0.967s-1.035,0.337-1.103,0.922l-0.72-0.068
	C233.835,160.02,234.465,159.593,235.522,159.503"/>
<path fill="none" stroke="#000000" stroke-width="0.9" stroke-miterlimit="10" d="M109.5,126c33.75,0,33.75,0,67.5,0"/>
<polygon points="177,126 170.25,127.8 170.25,123.75 "/>
<polygon fill="none" stroke="#000000" stroke-width="0.9" stroke-miterlimit="10" points="177,126 170.25,127.8 170.25,123.75 "/>
<path fill="none" stroke="#000000" stroke-width="0.9" stroke-miterlimit="10" d="M181.5,171c-36,0-36,0-72,0"/>
<polygon points="109.5,171 115.8,168.75 115.8,172.8 "/>
<polygon fill="none" stroke="#000000" stroke-width="0.9" stroke-miterlimit="10" points="109.5,171 115.8,168.75 115.8,172.8 "/>
<path d="M128.733,122.4v-2.633h0.444v2.633H128.733 M128.733,119.198v-0.416h0.444v0.416H128.733z"/>
<path d="M132.406,120.058c-0.929,0.042-0.527,1.455-0.61,2.342h-0.43v-1.677c0-0.402-0.069-0.693-0.485-0.665
	c-0.915,0.055-0.527,1.441-0.61,2.342h-0.43l-0.014-2.633h0.416c0.014,0.139-0.014,0.333,0.028,0.444
	c0.139-0.61,1.372-0.693,1.483,0c0.152-0.291,0.374-0.485,0.804-0.499c1.178-0.028,0.651,1.649,0.762,2.689h-0.43v-1.677
	C132.891,120.321,132.821,120.044,132.406,120.058"/>
<path d="M135.122,122.123c0.554,0,0.624-0.471,0.624-1.039c0-0.568-0.083-1.012-0.624-1.026c-0.582,0-0.707,0.443-0.707,1.053
	C134.415,121.707,134.554,122.123,135.122,122.123 M135.233,119.711c0.762,0.014,0.97,0.568,0.97,1.358
	c0,0.79-0.222,1.358-0.97,1.386c-0.43,0-0.679-0.18-0.832-0.471l0.014,1.455h-0.444l-0.014-3.673h0.43l0.028,0.416
	C134.554,119.891,134.803,119.711,135.233,119.711z"/>
<path d="M137.783,122.123c0.61,0.014,0.735-0.43,0.735-1.039c0-0.596-0.111-1.039-0.707-1.039s-0.735,0.443-0.735,1.039
	C137.076,121.679,137.215,122.109,137.783,122.123 M137.797,119.711c0.859-0.014,1.178,0.513,1.178,1.372
	c0.014,0.873-0.374,1.372-1.192,1.372c-0.818,0-1.15-0.541-1.164-1.372C136.619,120.169,137.007,119.711,137.797,119.711z"/>
<path d="M140.763,120.141c-1.081-0.222-0.735,1.261-0.79,2.259h-0.444l-0.014-2.633h0.416c0.014,0.166-0.014,0.402,0.028,0.541
	c0.083-0.374,0.319-0.679,0.804-0.568V120.141"/>
<path d="M141.65,121.749c-0.028,0.333,0.249,0.402,0.527,0.305v0.333c-0.457,0.139-0.97,0.069-0.97-0.541v-1.76h-0.305v-0.319h0.333
	l0.125-0.596h0.291v0.596h0.485v0.319h-0.485V121.749"/>
<path d="M142.884,121.665c0,0.277,0.166,0.457,0.444,0.457c0.568-0.042,0.873-0.402,0.832-1.026
	C143.563,121.125,142.884,121.028,142.884,121.665 M144.173,121.901c-0.208,0.291-0.43,0.568-0.942,0.554
	c-0.499-0.014-0.804-0.291-0.804-0.79c-0.014-0.887,0.873-0.873,1.733-0.873c0.042-0.485-0.125-0.748-0.568-0.748
	c-0.333,0.014-0.568,0.097-0.582,0.43l-0.457-0.042c0.069-0.513,0.457-0.721,1.053-0.721c0.624,0,0.998,0.277,0.998,0.887v1.137
	c-0.014,0.277,0.097,0.443,0.388,0.374v0.277C144.561,122.511,144.145,122.358,144.173,121.901z"/>
<path d="M146.612,119.711c1.234-0.055,0.735,1.608,0.832,2.689H147v-1.677c0-0.43-0.111-0.679-0.541-0.665
	c-0.998,0.028-0.61,1.414-0.679,2.342h-0.444l-0.014-2.633h0.416c0.014,0.139-0.014,0.333,0.028,0.444
	C145.919,119.905,146.168,119.725,146.612,119.711"/>
<path d="M148.58,121.749c-0.028,0.333,0.249,0.402,0.527,0.305v0.333c-0.457,0.139-0.97,0.069-0.97-0.541v-1.76h-0.305v-0.319h0.333
	l0.125-0.596h0.291v0.596h0.485v0.319h-0.485V121.749"/>
<polyline points="149.079,123.398 149.079,123.079 151.976,123.079 151.976,123.398 149.079,123.398 "/>
<path d="M152.738,121.749c-0.028,0.333,0.249,0.402,0.527,0.305v0.333c-0.457,0.139-0.97,0.069-0.97-0.541v-1.76h-0.305v-0.319
	h0.333l0.125-0.596h0.291v0.596h0.485v0.319h-0.485V121.749"/>
<path d="M154.679,122.123c0.61,0.014,0.735-0.43,0.735-1.039c0-0.596-0.111-1.039-0.707-1.039s-0.735,0.443-0.735,1.039
	C153.972,121.679,154.11,122.109,154.679,122.123 M154.692,119.711c0.859-0.014,1.178,0.513,1.178,1.372
	c0.014,0.873-0.374,1.372-1.192,1.372c-0.818,0-1.15-0.541-1.164-1.372C153.514,120.169,153.902,119.711,154.692,119.711z"/>
<path d="M157.561,122.123c0.554,0,0.624-0.471,0.624-1.039c0-0.568-0.083-1.012-0.624-1.026c-0.582,0-0.707,0.443-0.707,1.053
	C156.855,121.707,156.993,122.123,157.561,122.123 M157.672,119.711c0.762,0.014,0.97,0.568,0.97,1.358
	c0,0.79-0.222,1.358-0.97,1.386c-0.43,0-0.679-0.18-0.832-0.471l0.014,1.455h-0.444l-0.014-3.673h0.43l0.028,0.416
	C156.993,119.891,157.243,119.711,157.672,119.711z"/>
<path d="M159.183,122.4v-2.633h0.444v2.633H159.183 M159.183,119.198v-0.416h0.444v0.416H159.183z"/>
<path d="M161.276,120.058c-0.554,0-0.665,0.457-0.665,1.012c0,0.554,0.125,1.039,0.665,1.039c0.333,0,0.568-0.194,0.596-0.527
	l0.444,0.028c-0.083,0.513-0.43,0.845-1.026,0.845c-0.818,0-1.053-0.568-1.137-1.372c-0.139-1.289,1.4-1.816,2.037-0.887
	c0.055,0.097,0.069,0.194,0.097,0.305l-0.444,0.042C161.789,120.252,161.622,120.058,161.276,120.058"/>
<path d="M128.733,167.4v-2.633h0.444v2.633H128.733 M128.733,164.198v-0.416h0.444v0.416H128.733z"/>
<path d="M132.406,165.058c-0.929,0.042-0.527,1.455-0.61,2.342h-0.43v-1.677c0-0.402-0.069-0.693-0.485-0.665
	c-0.915,0.055-0.527,1.441-0.61,2.342h-0.43l-0.014-2.633h0.416c0.014,0.139-0.014,0.333,0.028,0.444
	c0.139-0.61,1.372-0.693,1.483,0c0.152-0.291,0.374-0.485,0.804-0.499c1.178-0.028,0.651,1.649,0.762,2.689h-0.43v-1.677
	C132.891,165.321,132.821,165.044,132.406,165.058"/>
<path d="M135.122,167.123c0.554,0,0.624-0.471,0.624-1.039c0-0.568-0.083-1.012-0.624-1.026c-0.582,0-0.707,0.443-0.707,1.053
	C134.415,166.707,134.554,167.123,135.122,167.123 M135.233,164.711c0.762,0.014,0.97,0.568,0.97,1.358
	c0,0.79-0.222,1.358-0.97,1.386c-0.43,0-0.679-0.18-0.832-0.471l0.014,1.455h-0.444l-0.014-3.673h0.43l0.028,0.416
	C134.554,164.891,134.803,164.711,135.233,164.711z"/>
<path d="M137.783,167.123c0.61,0.014,0.735-0.43,0.735-1.039c0-0.596-0.111-1.039-0.707-1.039s-0.735,0.443-0.735,1.039
	C137.076,166.679,137.215,167.109,137.783,167.123 M137.797,164.711c0.859-0.014,1.178,0.513,1.178,1.372
	c0.014,0.873-0.374,1.372-1.192,1.372c-0.818,0-1.15-0.541-1.164-1.372C136.619,165.169,137.007,164.711,137.797,164.711z"/>
<path d="M140.763,165.141c-1.081-0.222-0.735,1.261-0.79,2.259h-0.444l-0.014-2.633h0.416c0.014,0.166-0.014,0.402,0.028,0.541
	c0.083-0.374,0.319-0.679,0.804-0.568V165.141"/>
<path d="M141.65,166.749c-0.028,0.333,0.249,0.402,0.527,0.305v0.333c-0.457,0.139-0.97,0.069-0.97-0.541v-1.76h-0.305v-0.319h0.333
	l0.125-0.596h0.291v0.596h0.485v0.319h-0.485V166.749"/>
<path d="M142.884,166.665c0,0.277,0.166,0.457,0.444,0.457c0.568-0.042,0.873-0.402,0.832-1.026
	C143.563,166.125,142.884,166.028,142.884,166.665 M144.173,166.901c-0.208,0.291-0.43,0.568-0.942,0.554
	c-0.499-0.014-0.804-0.291-0.804-0.79c-0.014-0.887,0.873-0.873,1.733-0.873c0.042-0.485-0.125-0.748-0.568-0.748
	c-0.333,0.014-0.568,0.097-0.582,0.43l-0.457-0.042c0.069-0.513,0.457-0.721,1.053-0.721c0.624,0,0.998,0.277,0.998,0.887v1.137
	c-0.014,0.277,0.097,0.443,0.388,0.374v0.277C144.561,167.511,144.145,167.358,144.173,166.901z"/>
<path d="M146.612,164.711c1.234-0.055,0.735,1.608,0.832,2.689H147v-1.677c0-0.43-0.111-0.679-0.541-0.665
	c-0.998,0.028-0.61,1.414-0.679,2.342h-0.444l-0.014-2.633h0.416c0.014,0.139-0.014,0.333,0.028,0.444
	C145.919,164.905,146.168,164.725,146.612,164.711"/>
<path d="M148.58,166.749c-0.028,0.333,0.249,0.402,0.527,0.305v0.333c-0.457,0.139-0.97,0.069-0.97-0.541v-1.76h-0.305v-0.319h0.333
	l0.125-0.596h0.291v0.596h0.485v0.319h-0.485V166.749"/>
<polyline points="149.079,168.398 149.079,168.079 151.976,168.079 151.976,168.398 149.079,168.398 "/>
<path d="M152.738,166.749c-0.028,0.333,0.249,0.402,0.527,0.305v0.333c-0.457,0.139-0.97,0.069-0.97-0.541v-1.76h-0.305v-0.319
	h0.333l0.125-0.596h0.291v0.596h0.485v0.319h-0.485V166.749"/>
<path d="M154.679,167.123c0.61,0.014,0.735-0.43,0.735-1.039c0-0.596-0.111-1.039-0.707-1.039s-0.735,0.443-0.735,1.039
	C153.972,166.679,154.11,167.109,154.679,167.123 M154.692,164.711c0.859-0.014,1.178,0.513,1.178,1.372
	c0.014,0.873-0.374,1.372-1.192,1.372c-0.818,0-1.15-0.541-1.164-1.372C153.514,165.169,153.902,164.711,154.692,164.711z"/>
<path d="M157.561,167.123c0.554,0,0.624-0.471,0.624-1.039c0-0.568-0.083-1.012-0.624-1.026c-0.582,0-0.707,0.443-0.707,1.053
	C156.855,166.707,156.993,167.123,157.561,167.123 M157.672,164.711c0.762,0.014,0.97,0.568,0.97,1.358
	c0,0.79-0.222,1.358-0.97,1.386c-0.43,0-0.679-0.18-0.832-0.471l0.014,1.455h-0.444l-0.014-3.673h0.43l0.028,0.416
	C156.993,164.891,157.243,164.711,157.672,164.711z"/>
<path d="M159.183,167.4v-2.633h0.444v2.633H159.183 M159.183,164.198v-0.416h0.444v0.416H159.183z"/>
<path d="M161.276,165.058c-0.554,0-0.665,0.457-0.665,1.012c0,0.554,0.125,1.039,0.665,1.039c0.333,0,0.568-0.194,0.596-0.527
	l0.444,0.028c-0.083,0.513-0.43,0.845-1.026,0.845c-0.818,0-1.053-0.568-1.137-1.372c-0.139-1.289,1.4-1.816,2.037-0.887
	c0.055,0.097,0.069,0.194,0.097,0.305l-0.444,0.042C161.789,165.252,161.622,165.058,161.276,165.058"/>
</svg>
