<svg xmlns="http://www.w3.org/2000/svg" xmlns:xlink="http://www.w3.org/1999/xlink" width="1190" height="640"><g transform="translate(-90 -60)"><path d="M730 180h340v210H730z" stroke="#000" stroke-width="2" fill="#fff"/><use xlink:href="#a" transform="matrix(1,0,0,1,735,185) translate(58.150000000000006 103.60000000000001)"/><use xlink:href="#b" transform="matrix(1,0,0,1,735,185) translate(135.95000000000002 103.60000000000001)"/><use xlink:href="#c" transform="matrix(1,0,0,1,735,185) translate(186.9 103.60000000000001)"/><path d="M110 180h340v210H110z" stroke="#000" stroke-width="2" fill="#fff"/><use xlink:href="#a" transform="matrix(1,0,0,1,115,185) translate(58.150000000000006 103.60000000000001)"/><use xlink:href="#b" transform="matrix(1,0,0,1,115,185) translate(135.95000000000002 103.60000000000001)"/><use xlink:href="#c" transform="matrix(1,0,0,1,115,185) translate(186.9 103.60000000000001)"/><path d="M360 640h160v40H360z" stroke="#000" stroke-width="2" fill="#fff"/><use xlink:href="#d" transform="matrix(1,0,0,1,365,645) translate(37.775 18.6)"/><use xlink:href="#e" transform="matrix(1,0,0,1,365,645) translate(92.225 18.6)"/><path d="M1100 400h160v40h-160z" stroke="#000" stroke-width="2" fill="#fff"/><use xlink:href="#d" transform="matrix(1,0,0,1,1105,405) translate(37.775 18.6)"/><use xlink:href="#e" transform="matrix(1,0,0,1,1105,405) translate(92.225 18.6)"/><path d="M820 340h160v40H820z" stroke="#000" stroke-width="2" fill="#fff"/><use xlink:href="#f" transform="matrix(1,0,0,1,825,345) translate(37.775 18.6)"/><use xlink:href="#e" transform="matrix(1,0,0,1,825,345) translate(92.225 18.6)"/><path d="M820 460h160v40H820z" stroke="#000" stroke-width="2" fill="#fff"/><use xlink:href="#g" transform="matrix(1,0,0,1,825,465) translate(37.775 18.6)"/><use xlink:href="#e" transform="matrix(1,0,0,1,825,465) translate(92.225 18.6)"/><path d="M820 400h160v40H820z" stroke="#000" stroke-width="2" fill="#fff"/><use xlink:href="#d" transform="matrix(1,0,0,1,825,405) translate(37.775 18.6)"/><use xlink:href="#e" transform="matrix(1,0,0,1,825,405) translate(92.225 18.6)"/><path d="M820 520h160v40H820z" stroke="#000" stroke-width="2" fill="#fff"/><use xlink:href="#h" transform="matrix(1,0,0,1,825,525) translate(37.775 18.6)"/><use xlink:href="#e" transform="matrix(1,0,0,1,825,525) translate(92.225 18.6)"/><path d="M440 640v-40h-80" stroke="#000" stroke-width="2" fill="none"/><path d="M374.27 604.64L360 600l14.27-4.64z"/><path d="M375.27 606L360 601.06v-2.1l15.27-4.96zm-12.03-6l10.03 3.26v-6.52z"/><path d="M1100 420H981" stroke="#000" stroke-width="2" fill="none"/><path d="M995.27 424.64L981 420l14.27-4.64z"/><path d="M996.27 426L980 420.74v-1.46l16.27-5.28zm-12.03-6l10.03 3.26v-6.52z"/><path d="M160 80h240v60H160z" fill="none"/><use xlink:href="#i" transform="matrix(1,0,0,1,165,85) translate(47.07499999999999 28.6)"/><use xlink:href="#j" transform="matrix(1,0,0,1,165,85) translate(132.925 28.6)"/><use xlink:href="#k" transform="matrix(1,0,0,1,165,85) translate(142.925 28.6)"/><path d="M780 80h240v60H780z" fill="none"/><use xlink:href="#i" transform="matrix(1,0,0,1,785,85) translate(46.150000000000006 28.6)"/><use xlink:href="#j" transform="matrix(1,0,0,1,785,85) translate(132 28.6)"/><use xlink:href="#l" transform="matrix(1,0,0,1,785,85) translate(142 28.6)"/><path d="M200 460h160v40H200z" stroke="#000" stroke-width="2" fill="#fff"/><g><use xlink:href="#g" transform="matrix(1,0,0,1,205,465) translate(37.775 18.6)"/><use xlink:href="#e" transform="matrix(1,0,0,1,205,465) translate(92.225 18.6)"/></g><path d="M200 400h160v40H200z" stroke="#000" stroke-width="2" fill="#fff"/><g><use xlink:href="#d" transform="matrix(1,0,0,1,205,405) translate(37.775 18.6)"/><use xlink:href="#e" transform="matrix(1,0,0,1,205,405) translate(92.225 18.6)"/></g><path d="M200 520h160v40H200z" stroke="#000" stroke-width="2" fill="#fff"/><g><use xlink:href="#h" transform="matrix(1,0,0,1,205,525) translate(37.775 18.6)"/><use xlink:href="#e" transform="matrix(1,0,0,1,205,525) translate(92.225 18.6)"/></g><path d="M200 340h160v40H200z" stroke="#000" stroke-width="2" fill="#fff"/><g><use xlink:href="#f" transform="matrix(1,0,0,1,205,345) translate(37.775 18.6)"/><use xlink:href="#e" transform="matrix(1,0,0,1,205,345) translate(92.225 18.6)"/></g><path d="M200 580h160v40H200z" fill="#fff"/><path d="M201 580c0 .55-.45 1-1 1s-1-.45-1-1 .45-1 1-1 1 .45 1 1zm8 0c0 .55-.45 1-1 1s-1-.45-1-1 .45-1 1-1 1 .45 1 1zm8 0c0 .55-.45 1-1 1s-1-.45-1-1 .45-1 1-1 1 .45 1 1zm8 0c0 .55-.45 1-1 1s-1-.45-1-1 .45-1 1-1 1 .45 1 1zm8 0c0 .55-.45 1-1 1s-1-.45-1-1 .45-1 1-1 1 .45 1 1zm8 0c0 .55-.45 1-1 1s-1-.45-1-1 .45-1 1-1 1 .45 1 1zm8 0c0 .55-.45 1-1 1s-1-.45-1-1 .45-1 1-1 1 .45 1 1zm8 0c0 .55-.45 1-1 1s-1-.45-1-1 .45-1 1-1 1 .45 1 1zm8 0c0 .55-.45 1-1 1s-1-.45-1-1 .45-1 1-1 1 .45 1 1zm8 0c0 .55-.45 1-1 1s-1-.45-1-1 .45-1 1-1 1 .45 1 1zm8 0c0 .55-.45 1-1 1s-1-.45-1-1 .45-1 1-1 1 .45 1 1zm8 0c0 .55-.45 1-1 1s-1-.45-1-1 .45-1 1-1 1 .45 1 1zm8 0c0 .55-.45 1-1 1s-1-.45-1-1 .45-1 1-1 1 .45 1 1zm8 0c0 .55-.45 1-1 1s-1-.45-1-1 .45-1 1-1 1 .45 1 1zm8 0c0 .55-.45 1-1 1s-1-.45-1-1 .45-1 1-1 1 .45 1 1zm8 0c0 .55-.45 1-1 1s-1-.45-1-1 .45-1 1-1 1 .45 1 1zm8 0c0 .55-.45 1-1 1s-1-.45-1-1 .45-1 1-1 1 .45 1 1zm8 0c0 .55-.45 1-1 1s-1-.45-1-1 .45-1 1-1 1 .45 1 1zm8 0c0 .55-.45 1-1 1s-1-.45-1-1 .45-1 1-1 1 .45 1 1zm8 0c0 .55-.45 1-1 1s-1-.45-1-1 .45-1 1-1 1 .45 1 1zm8 0c0 .55-.45 1-1 1s-1-.45-1-1 .45-1 1-1 1 .45 1 1zm0 8c0 .55-.45 1-1 1s-1-.45-1-1 .45-1 1-1 1 .45 1 1zm0 8c0 .55-.45 1-1 1s-1-.45-1-1 .45-1 1-1 1 .45 1 1zm0 8c0 .55-.45 1-1 1s-1-.45-1-1 .45-1 1-1 1 .45 1 1zm0 8c0 .55-.45 1-1 1s-1-.45-1-1 .45-1 1-1 1 .45 1 1zm0 8c0 .55-.45 1-1 1s-1-.45-1-1 .45-1 1-1 1 .45 1 1zm-8 0c0 .55-.45 1-1 1s-1-.45-1-1 .45-1 1-1 1 .45 1 1zm-8 0c0 .55-.45 1-1 1s-1-.45-1-1 .45-1 1-1 1 .45 1 1zm-8 0c0 .55-.45 1-1 1s-1-.45-1-1 .45-1 1-1 1 .45 1 1zm-8 0c0 .55-.45 1-1 1s-1-.45-1-1 .45-1 1-1 1 .45 1 1zm-8 0c0 .55-.45 1-1 1s-1-.45-1-1 .45-1 1-1 1 .45 1 1zm-8 0c0 .55-.45 1-1 1s-1-.45-1-1 .45-1 1-1 1 .45 1 1zm-8 0c0 .55-.45 1-1 1s-1-.45-1-1 .45-1 1-1 1 .45 1 1zm-8 0c0 .55-.45 1-1 1s-1-.45-1-1 .45-1 1-1 1 .45 1 1zm-8 0c0 .55-.45 1-1 1s-1-.45-1-1 .45-1 1-1 1 .45 1 1zm-8 0c0 .55-.45 1-1 1s-1-.45-1-1 .45-1 1-1 1 .45 1 1zm-8 0c0 .55-.45 1-1 1s-1-.45-1-1 .45-1 1-1 1 .45 1 1zm-8 0c0 .55-.45 1-1 1s-1-.45-1-1 .45-1 1-1 1 .45 1 1zm-8 0c0 .55-.45 1-1 1s-1-.45-1-1 .45-1 1-1 1 .45 1 1zm-8 0c0 .55-.45 1-1 1s-1-.45-1-1 .45-1 1-1 1 .45 1 1zm-8 0c0 .55-.45 1-1 1s-1-.45-1-1 .45-1 1-1 1 .45 1 1zm-8 0c0 .55-.45 1-1 1s-1-.45-1-1 .45-1 1-1 1 .45 1 1zm-8 0c0 .55-.45 1-1 1s-1-.45-1-1 .45-1 1-1 1 .45 1 1zm-8 0c0 .55-.45 1-1 1s-1-.45-1-1 .45-1 1-1 1 .45 1 1zm-8 0c0 .55-.45 1-1 1s-1-.45-1-1 .45-1 1-1 1 .45 1 1zm-8 0c0 .55-.45 1-1 1s-1-.45-1-1 .45-1 1-1 1 .45 1 1zm0-8c0 .55-.45 1-1 1s-1-.45-1-1 .45-1 1-1 1 .45 1 1zm0-8c0 .55-.45 1-1 1s-1-.45-1-1 .45-1 1-1 1 .45 1 1zm0-8c0 .55-.45 1-1 1s-1-.45-1-1 .45-1 1-1 1 .45 1 1zm0-8c0 .55-.45 1-1 1s-1-.45-1-1 .45-1 1-1 1 .45 1 1z" fill="#999"/><g><use xlink:href="#m" transform="matrix(1,0,0,1,205,585) translate(37.775 18.6)"/><use xlink:href="#n" transform="matrix(1,0,0,1,205,585) translate(92.225 18.6)"/></g><defs><path d="M212-179c-10-28-35-45-73-45-59 0-87 40-87 99 0 60 29 101 89 101 43 0 62-24 78-52l27 14C228-24 195 4 139 4 59 4 22-46 18-125c-6-104 99-153 187-111 19 9 31 26 39 46" id="o"/><path d="M84 4C-5 8 30-112 23-190h32v120c0 31 7 50 39 49 72-2 45-101 50-169h31l1 190h-30c-1-10 1-25-2-33-11 22-28 36-60 37" id="p"/><path d="M114-163C36-179 61-72 57 0H25l-1-190h30c1 12-1 29 2 39 6-27 23-49 58-41v29" id="q"/><path d="M100-194c63 0 86 42 84 106H49c0 40 14 67 53 68 26 1 43-12 49-29l28 8c-11 28-37 45-77 45C44 4 14-33 15-96c1-61 26-98 85-98zm52 81c6-60-76-77-97-28-3 7-6 17-6 28h103" id="r"/><path d="M117-194c89-4 53 116 60 194h-32v-121c0-31-8-49-39-48C34-167 62-67 57 0H25l-1-190h30c1 10-1 24 2 32 11-22 29-35 61-36" id="s"/><path d="M59-47c-2 24 18 29 38 22v24C64 9 27 4 27-40v-127H5v-23h24l9-43h21v43h35v23H59v120" id="t"/><path d="M24 0v-261h32V0H24" id="u"/><path d="M179-190L93 31C79 59 56 82 12 73V49c39 6 53-20 64-50L1-190h34L92-34l54-156h33" id="v"/><g id="a"><use transform="matrix(0.05,0,0,0.05,0,0)" xlink:href="#o"/><use transform="matrix(0.05,0,0,0.05,12.950000000000001,0)" xlink:href="#p"/><use transform="matrix(0.05,0,0,0.05,22.950000000000003,0)" xlink:href="#q"/><use transform="matrix(0.05,0,0,0.05,28.900000000000002,0)" xlink:href="#q"/><use transform="matrix(0.05,0,0,0.05,34.85,0)" xlink:href="#r"/><use transform="matrix(0.05,0,0,0.05,44.85,0)" xlink:href="#s"/><use transform="matrix(0.05,0,0,0.05,54.85,0)" xlink:href="#t"/><use transform="matrix(0.05,0,0,0.05,59.85,0)" xlink:href="#u"/><use transform="matrix(0.05,0,0,0.05,63.800000000000004,0)" xlink:href="#v"/></g><path d="M160-131c35 5 61 23 61 61C221 17 115-2 30 0v-248c76 3 177-17 177 60 0 33-19 50-47 57zm-97-11c50-1 110 9 110-42 0-47-63-36-110-37v79zm0 115c55-2 124 14 124-45 0-56-70-42-124-44v89" id="w"/><path d="M24-231v-30h32v30H24zM24 0v-190h32V0H24" id="x"/><path d="M177-190C167-65 218 103 67 71c-23-6-38-20-44-43l32-5c15 47 100 32 89-28v-30C133-14 115 1 83 1 29 1 15-40 15-95c0-56 16-97 71-98 29-1 48 16 59 35 1-10 0-23 2-32h30zM94-22c36 0 50-32 50-73 0-42-14-75-50-75-39 0-46 34-46 75s6 73 46 73" id="y"/><g id="b"><use transform="matrix(0.05,0,0,0.05,0,0)" xlink:href="#w"/><use transform="matrix(0.05,0,0,0.05,12,0)" xlink:href="#r"/><use transform="matrix(0.05,0,0,0.05,22,0)" xlink:href="#x"/><use transform="matrix(0.05,0,0,0.05,25.950000000000003,0)" xlink:href="#s"/><use transform="matrix(0.05,0,0,0.05,35.95,0)" xlink:href="#y"/></g><path d="M30-248c87 1 191-15 191 75 0 78-77 80-158 76V0H30v-248zm33 125c57 0 124 11 124-50 0-59-68-47-124-48v98" id="z"/><path d="M100-194c62-1 85 37 85 99 1 63-27 99-86 99S16-35 15-95c0-66 28-99 85-99zM99-20c44 1 53-31 53-75 0-43-8-75-51-75s-53 32-53 75 10 74 51 75" id="A"/><path d="M96-169c-40 0-48 33-48 73s9 75 48 75c24 0 41-14 43-38l32 2c-6 37-31 61-74 61-59 0-76-41-82-99-10-93 101-131 147-64 4 7 5 14 7 22l-32 3c-4-21-16-35-41-35" id="B"/><path d="M135-143c-3-34-86-38-87 0 15 53 115 12 119 90S17 21 10-45l28-5c4 36 97 45 98 0-10-56-113-15-118-90-4-57 82-63 122-42 12 7 21 19 24 35" id="C"/><path d="M85-194c31 0 48 13 60 33l-1-100h32l1 261h-30c-2-10 0-23-3-31C134-8 116 4 85 4 32 4 16-35 15-94c0-66 23-100 70-100zm9 24c-40 0-46 34-46 75 0 40 6 74 45 74 42 0 51-32 51-76 0-42-9-74-50-73" id="D"/><g id="c"><use transform="matrix(0.05,0,0,0.05,0,0)" xlink:href="#z"/><use transform="matrix(0.05,0,0,0.05,12,0)" xlink:href="#q"/><use transform="matrix(0.05,0,0,0.05,17.95,0)" xlink:href="#A"/><use transform="matrix(0.05,0,0,0.05,27.950000000000003,0)" xlink:href="#B"/><use transform="matrix(0.05,0,0,0.05,36.95,0)" xlink:href="#r"/><use transform="matrix(0.05,0,0,0.05,46.95,0)" xlink:href="#C"/><use transform="matrix(0.05,0,0,0.05,55.95,0)" xlink:href="#C"/><use transform="matrix(0.05,0,0,0.05,64.95,0)" xlink:href="#r"/><use transform="matrix(0.05,0,0,0.05,74.95,0)" xlink:href="#D"/></g><path d="M18-150v-26h174v26H18zm0 90v-26h174v26H18" id="E"/><path d="M101-251c82-7 93 87 43 132L82-64C71-53 59-42 53-27h129V0H18c2-99 128-94 128-182 0-28-16-43-45-43s-46 15-49 41l-32-3c6-41 34-60 81-64" id="F"/><path d="M126-127c33 6 58 20 58 59 0 88-139 92-164 29-3-8-5-16-6-25l32-3c6 27 21 44 54 44 32 0 52-15 52-46 0-38-36-46-79-43v-28c39 1 72-4 72-42 0-27-17-43-46-43-28 0-47 15-49 41l-32-3c6-42 35-63 81-64 48-1 79 21 79 65 0 36-21 52-52 59" id="G"/><path d="M68-38c1 34 0 65-14 84H32c9-13 17-26 17-46H33v-38h35" id="H"/><g id="d"><use transform="matrix(0.05,0,0,0.05,0,0)" xlink:href="#x"/><use transform="matrix(0.05,0,0,0.05,3.95,0)" xlink:href="#D"/><use transform="matrix(0.05,0,0,0.05,13.949999999999998,0)" xlink:href="#E"/><use transform="matrix(0.05,0,0,0.05,24.45,0)" xlink:href="#F"/><use transform="matrix(0.05,0,0,0.05,34.45,0)" xlink:href="#G"/><use transform="matrix(0.05,0,0,0.05,44.45,0)" xlink:href="#H"/></g><path d="M33 0v-38h34V0H33" id="I"/><g id="e"><use transform="matrix(0.05,0,0,0.05,0,0)" xlink:href="#I"/><use transform="matrix(0.05,0,0,0.05,5,0)" xlink:href="#I"/><use transform="matrix(0.05,0,0,0.05,10,0)" xlink:href="#I"/><use transform="matrix(0.05,0,0,0.05,15,0)" xlink:href="#I"/></g><path d="M155-56V0h-30v-56H8v-25l114-167h33v167h35v25h-35zm-30-156c-27 46-58 90-88 131h88v-131" id="J"/><g id="f"><use transform="matrix(0.05,0,0,0.05,0,0)" xlink:href="#x"/><use transform="matrix(0.05,0,0,0.05,3.95,0)" xlink:href="#D"/><use transform="matrix(0.05,0,0,0.05,13.949999999999998,0)" xlink:href="#E"/><use transform="matrix(0.05,0,0,0.05,24.45,0)" xlink:href="#J"/><use transform="matrix(0.05,0,0,0.05,34.45,0)" xlink:href="#F"/><use transform="matrix(0.05,0,0,0.05,44.45,0)" xlink:href="#H"/></g><path d="M27 0v-27h64v-190l-56 39v-29l58-41h29v221h61V0H27" id="K"/><g id="g"><use transform="matrix(0.05,0,0,0.05,0,0)" xlink:href="#x"/><use transform="matrix(0.05,0,0,0.05,3.95,0)" xlink:href="#D"/><use transform="matrix(0.05,0,0,0.05,13.949999999999998,0)" xlink:href="#E"/><use transform="matrix(0.05,0,0,0.05,24.45,0)" xlink:href="#K"/><use transform="matrix(0.05,0,0,0.05,34.45,0)" xlink:href="#G"/><use transform="matrix(0.05,0,0,0.05,44.45,0)" xlink:href="#H"/></g><path d="M64 0c3-98 48-159 88-221H18v-27h164v26C143-157 98-101 97 0H64" id="L"/><g id="h"><use transform="matrix(0.05,0,0,0.05,0,0)" xlink:href="#x"/><use transform="matrix(0.05,0,0,0.05,3.95,0)" xlink:href="#D"/><use transform="matrix(0.05,0,0,0.05,13.949999999999998,0)" xlink:href="#E"/><use transform="matrix(0.05,0,0,0.05,24.45,0)" xlink:href="#K"/><use transform="matrix(0.05,0,0,0.05,34.45,0)" xlink:href="#L"/><use transform="matrix(0.05,0,0,0.05,44.45,0)" xlink:href="#H"/></g><path d="M101-234c-31-9-42 10-38 44h38v23H63V0H32v-167H5v-23h27c-7-52 17-82 69-68v24" id="M"/><path d="M141-36C126-15 110 5 73 4 37 3 15-17 15-53c-1-64 63-63 125-63 3-35-9-54-41-54-24 1-41 7-42 31l-33-3c5-37 33-52 76-52 45 0 72 20 72 64v82c-1 20 7 32 28 27v20c-31 9-61-2-59-35zM48-53c0 20 12 33 32 33 41-3 63-29 60-74-43 2-92-5-92 41" id="N"/><g id="i"><use transform="matrix(0.05,0,0,0.05,0,0)" xlink:href="#o"/><use transform="matrix(0.05,0,0,0.05,12.950000000000001,0)" xlink:href="#A"/><use transform="matrix(0.05,0,0,0.05,22.950000000000003,0)" xlink:href="#s"/><use transform="matrix(0.05,0,0,0.05,32.95,0)" xlink:href="#M"/><use transform="matrix(0.05,0,0,0.05,37.95,0)" xlink:href="#u"/><use transform="matrix(0.05,0,0,0.05,41.900000000000006,0)" xlink:href="#N"/><use transform="matrix(0.05,0,0,0.05,51.900000000000006,0)" xlink:href="#t"/><use transform="matrix(0.05,0,0,0.05,56.900000000000006,0)" xlink:href="#x"/><use transform="matrix(0.05,0,0,0.05,60.85,0)" xlink:href="#A"/><use transform="matrix(0.05,0,0,0.05,70.85000000000001,0)" xlink:href="#s"/></g><path d="M33-154v-36h34v36H33zM33 0v-36h34V0H33" id="O"/><use transform="matrix(0.05,0,0,0.05,0,0)" xlink:href="#O" id="j"/><g id="k"><use transform="matrix(0.05,0,0,0.05,0,0)" xlink:href="#s"/><use transform="matrix(0.05,0,0,0.05,10,0)" xlink:href="#A"/><use transform="matrix(0.05,0,0,0.05,20,0)" xlink:href="#s"/><use transform="matrix(0.05,0,0,0.05,30,0)" xlink:href="#r"/></g><g id="l"><use transform="matrix(0.05,0,0,0.05,0,0)" xlink:href="#x"/><use transform="matrix(0.05,0,0,0.05,3.95,0)" xlink:href="#s"/><use transform="matrix(0.05,0,0,0.05,13.949999999999998,0)" xlink:href="#u"/><use transform="matrix(0.05,0,0,0.05,17.9,0)" xlink:href="#x"/><use transform="matrix(0.05,0,0,0.05,21.849999999999998,0)" xlink:href="#s"/><use transform="matrix(0.05,0,0,0.05,31.849999999999994,0)" xlink:href="#r"/></g><path fill="#666" d="M24-231v-30h32v30H24zM24 0v-190h32V0H24" id="P"/><path fill="#666" d="M85-194c31 0 48 13 60 33l-1-100h32l1 261h-30c-2-10 0-23-3-31C134-8 116 4 85 4 32 4 16-35 15-94c0-66 23-100 70-100zm9 24c-40 0-46 34-46 75 0 40 6 74 45 74 42 0 51-32 51-76 0-42-9-74-50-73" id="Q"/><path fill="#666" d="M18-150v-26h174v26H18zm0 90v-26h174v26H18" id="R"/><path fill="#666" d="M101-251c82-7 93 87 43 132L82-64C71-53 59-42 53-27h129V0H18c2-99 128-94 128-182 0-28-16-43-45-43s-46 15-49 41l-32-3c6-41 34-60 81-64" id="S"/><path fill="#666" d="M126-127c33 6 58 20 58 59 0 88-139 92-164 29-3-8-5-16-6-25l32-3c6 27 21 44 54 44 32 0 52-15 52-46 0-38-36-46-79-43v-28c39 1 72-4 72-42 0-27-17-43-46-43-28 0-47 15-49 41l-32-3c6-42 35-63 81-64 48-1 79 21 79 65 0 36-21 52-52 59" id="T"/><path fill="#666" d="M68-38c1 34 0 65-14 84H32c9-13 17-26 17-46H33v-38h35" id="U"/><g id="m"><use transform="matrix(0.05,0,0,0.05,0,0)" xlink:href="#P"/><use transform="matrix(0.05,0,0,0.05,3.95,0)" xlink:href="#Q"/><use transform="matrix(0.05,0,0,0.05,13.949999999999998,0)" xlink:href="#R"/><use transform="matrix(0.05,0,0,0.05,24.45,0)" xlink:href="#S"/><use transform="matrix(0.05,0,0,0.05,34.45,0)" xlink:href="#T"/><use transform="matrix(0.05,0,0,0.05,44.45,0)" xlink:href="#U"/></g><path fill="#666" d="M33 0v-38h34V0H33" id="V"/><g id="n"><use transform="matrix(0.05,0,0,0.05,0,0)" xlink:href="#V"/><use transform="matrix(0.05,0,0,0.05,5,0)" xlink:href="#V"/><use transform="matrix(0.05,0,0,0.05,10,0)" xlink:href="#V"/><use transform="matrix(0.05,0,0,0.05,15,0)" xlink:href="#V"/></g></defs></g></svg>