<?xml version="1.0" encoding="utf-8"?>
<!-- Generator: Adobe Illustrator 19.1.0, SVG Export Plug-In . SVG Version: 6.00 Build 0)  -->
<svg version="1.1" baseProfile="tiny" id="Layer_1" xmlns="http://www.w3.org/2000/svg" xmlns:xlink="http://www.w3.org/1999/xlink"
	 x="0px" y="0px" viewBox="0 0 245 337" xml:space="preserve">
<path fill="#FFFFFF" d="M34,71.3c0-1.3,1-2.3,2.3-2.3h13.5c1.3,0,2.3,1,2.3,2.3v22.5c0,1.3-1,2.3-2.3,2.3H36.2C35,96,34,95,34,93.8
	V71.3z"/>
<path fill="none" stroke="#000000" stroke-width="0.9" stroke-miterlimit="10" d="M34,71.3c0-1.3,1-2.3,2.3-2.3h13.5
	c1.3,0,2.3,1,2.3,2.3v22.5c0,1.3-1,2.3-2.3,2.3H36.2C35,96,34,95,34,93.8V71.3z"/>
<path fill="#FFFFFF" d="M115,89.3c0-1.3,1-2.3,2.3-2.3h13.5c1.3,0,2.3,1,2.3,2.3v31.5c0,1.3-1,2.3-2.3,2.3h-13.5
	c-1.3,0-2.3-1-2.3-2.3V89.3z"/>
<path fill="none" stroke="#000000" stroke-width="0.9" stroke-miterlimit="10" d="M115,89.3c0-1.3,1-2.3,2.3-2.3h13.5
	c1.3,0,2.3,1,2.3,2.3v31.5c0,1.3-1,2.3-2.3,2.3h-13.5c-1.3,0-2.3-1-2.3-2.3V89.3z"/>
<path fill="#FFFFFF" d="M7,8.3C7,7,8,6,9.2,6h67.5C78,6,79,7,79,8.3v31.5c0,1.3-1,2.3-2.3,2.3H9.2C8,42,7,41,7,39.8V8.3z"/>
<path fill="none" stroke="#000000" stroke-width="0.9" stroke-miterlimit="10" d="M7,8.3C7,7,8,6,9.2,6h67.5C78,6,79,7,79,8.3v31.5
	c0,1.3-1,2.3-2.3,2.3H9.2C8,42,7,41,7,39.8V8.3z"/>
<path d="M28.9,18.3c0,1.5-0.9,2.2-2.3,2.2c-1.4,0-2.3-0.7-2.3-2.1v-1.8v-1.8h0.7c0.2,2-0.7,5,1.5,5c2.3,0,1.4-3,1.6-5h0.7v1.7V18.3"
	/>
<path d="M32.2,16c2-0.1,1.2,2.6,1.3,4.4h-0.7V19v-1.4c0-0.7-0.2-1.1-0.9-1.1c-1.6,0-1,2.3-1.1,3.8h-0.7l0-4.3h0.7c0,0.2,0,0.5,0,0.7
	C31,16.3,31.4,16,32.2,16"/>
<path d="M36.1,16.5c-0.9,0-1,0.8-1,1.7c0,0.9,0.1,1.7,1,1.7c0.9,0,1.1-0.7,1.1-1.7C37.3,17.2,37.1,16.5,36.1,16.5 M35.9,16
	c0.7,0,1.1,0.3,1.3,0.7l0-2.3H38l0,5.9h-0.7c0-0.2,0-0.5-0.1-0.7c-0.2,0.5-0.6,0.8-1.3,0.8c-1.2,0-1.6-0.9-1.6-2.2
	C34.4,16.8,34.9,16,35.9,16z"/>
<path d="M41.9,17.8c0.1-1.3-1.7-1.7-2.2-0.6c-0.1,0.2-0.1,0.4-0.1,0.6H41.9 M40.8,16c1.4,0,1.9,0.9,1.9,2.4h-3
	c0,0.9,0.3,1.5,1.2,1.5c0.6,0,1-0.3,1.1-0.7l0.6,0.2c-0.2,0.6-0.8,1-1.7,1c-1.3,0-2-0.8-2-2.3C38.9,16.8,39.4,16,40.8,16z"/>
<path d="M45.6,16.7c-1.8-0.4-1.2,2-1.3,3.7h-0.7l0-4.3h0.7c0,0.3,0,0.7,0,0.9c0.1-0.6,0.5-1.1,1.3-0.9v0.3V16.7"/>
<polyline points="46.2,20.4 46.2,17.4 46.2,14.5 47,14.5 47,17.4 47,20.4 46.2,20.4 "/>
<path d="M51.5,16.1l-1.9,5c-0.3,0.6-0.8,1.1-1.8,0.9v-0.3v-0.3c0.9,0.1,1.2-0.5,1.4-1.1l-1.7-4.3h0.8l1.3,3.5l1.2-3.5H51.5"/>
<path d="M52.1,20.4v-2.1v-2.1h0.7v2.1v2.1H52.1 M52.1,15.2v-0.3v-0.3h0.7v0.3v0.3H52.1z"/>
<path d="M55.9,16c2-0.1,1.2,2.6,1.3,4.4h-0.7V19v-1.4c0-0.7-0.2-1.1-0.9-1.1c-1.6,0-1,2.3-1.1,3.8h-0.7l0-4.3h0.7c0,0.2,0,0.5,0,0.7
	C54.8,16.3,55.2,16,55.9,16"/>
<path d="M59.9,19.9c0.8,0,1.1-0.7,1.1-1.6c0-0.9-0.3-1.7-1.1-1.7c-0.9,0-1,0.8-1,1.7C58.9,19.1,59,19.9,59.9,19.9 M61.8,16.1
	c-0.2,2.8,0.9,6.6-2.5,5.9c-0.5-0.1-0.9-0.5-1-1l0.7-0.1c0.3,1.1,2.3,0.7,2-0.6v-0.3v-0.3c-0.2,0.5-0.7,0.8-1.4,0.8
	c-1.2,0-1.5-0.9-1.5-2.2c0-1.3,0.4-2.2,1.6-2.2c0.7,0,1.1,0.4,1.3,0.8c0-0.2,0-0.5,0-0.7H61.8z"/>
<polyline points="36.4,25.1 36.4,27.6 36.4,30.1 35.6,30.1 35.6,27.6 35.6,25.1 33.7,25.1 33.7,24.8 33.7,24.5 38.3,24.5 38.3,24.8 
	38.3,25.1 36.4,25.1 "/>
<path d="M39.8,29.6c1,0,1.2-0.7,1.2-1.7c0-1-0.2-1.7-1.1-1.7c-1,0-1.2,0.7-1.2,1.7C38.7,28.9,38.9,29.6,39.8,29.6 M39.8,25.7
	c1.4,0,1.9,0.8,1.9,2.2c0,1.4-0.6,2.2-1.9,2.2s-1.9-0.9-1.9-2.2C37.9,26.5,38.5,25.7,39.8,25.7z"/>
<path d="M44.5,29.6c0.9,0,1-0.8,1-1.7c0-0.9-0.1-1.6-1-1.7c-0.9,0-1.1,0.7-1.1,1.7C43.3,29,43.6,29.6,44.5,29.6 M44.7,25.7
	c1.2,0,1.6,0.9,1.6,2.2c0,1.3-0.4,2.2-1.6,2.3c-0.7,0-1.1-0.3-1.3-0.8l0,2.4h-0.7l0-6h0.7l0,0.7C43.6,26,44,25.7,44.7,25.7z"/>
<path d="M47.1,30.1v-2.1v-2.1h0.7v2.1v2.1H47.1 M47.1,24.9v-0.3v-0.3h0.7v0.3v0.3H47.1z"/>
<path d="M50.5,26.3c-0.9,0-1.1,0.7-1.1,1.6s0.2,1.7,1.1,1.7c0.5,0,0.9-0.3,1-0.9l0.7,0c-0.1,0.8-0.7,1.4-1.7,1.4
	c-1.3,0-1.7-0.9-1.8-2.2C48.5,25.8,51,25,52,26.5c0.1,0.2,0.1,0.3,0.2,0.5l-0.7,0.1C51.3,26.6,51.1,26.3,50.5,26.3"/>
<path fill="#FFFFFF" d="M88,8.3C88,7,89,6,90.2,6h67.5c1.3,0,2.3,1,2.3,2.3v31.5c0,1.3-1,2.3-2.3,2.3H90.2C89,42,88,41,88,39.8V8.3z
	"/>
<path fill="none" stroke="#000000" stroke-width="0.9" stroke-miterlimit="10" d="M88,8.3C88,7,89,6,90.2,6h67.5
	c1.3,0,2.3,1,2.3,2.3v31.5c0,1.3-1,2.3-2.3,2.3H90.2C89,42,88,41,88,39.8V8.3z"/>
<path d="M115.8,16.1c-0.1-1.1-2.8-1.2-2.8,0c0.3,1.7,3.6,0.3,3.7,2.7c0.1,1.8-2.7,2-3.9,1.2c-0.4-0.2-0.6-0.6-0.7-1l0.7-0.2
	c0.1,1.3,3.2,1.4,3.2,0c0-1.8-3.5-0.3-3.6-2.7c-0.1-1.8,3.3-1.9,4-0.8c0.1,0.2,0.2,0.4,0.2,0.6"/>
<path d="M117.6,20.4v-2.1v-2.1h0.7v2.1v2.1H117.6 M117.6,15.2v-0.3v-0.3h0.7v0.3v0.3H117.6z"/>
<path d="M123.5,16.6c-1.5,0.1-0.9,2.4-1,3.8h-0.7V19v-1.4c0-0.7-0.1-1.1-0.8-1.1c-1.5,0.1-0.9,2.3-1,3.8h-0.7l0-4.3h0.7
	c0,0.2,0,0.5,0,0.7c0.2-1,2.2-1.1,2.4,0c0.2-0.5,0.6-0.8,1.3-0.8c1.9,0,1.1,2.7,1.2,4.4h-0.7V19v-1.4
	C124.3,17,124.2,16.5,123.5,16.6"/>
<path d="M127.9,19.9c0.9,0,1-0.8,1-1.7c0-0.9-0.1-1.6-1-1.7c-0.9,0-1.1,0.7-1.1,1.7C126.8,19.2,127,19.9,127.9,19.9 M128.1,16
	c1.2,0,1.6,0.9,1.6,2.2c0,1.3-0.4,2.2-1.6,2.3c-0.7,0-1.1-0.3-1.4-0.8l0,2.4h-0.7l0-6h0.7l0,0.7C127,16.3,127.4,16,128.1,16z"/>
<polyline points="130.6,20.4 130.6,17.4 130.6,14.5 131.3,14.5 131.3,17.4 131.3,20.4 130.6,20.4 "/>
<path d="M135.2,17.8c0.1-1.3-1.7-1.7-2.2-0.6c-0.1,0.2-0.1,0.4-0.1,0.6H135.2 M134.1,16c1.4,0,1.9,0.9,1.9,2.4h-3
	c0,0.9,0.3,1.5,1.2,1.5c0.6,0,1-0.3,1.1-0.7l0.6,0.2c-0.2,0.6-0.8,1-1.7,1c-1.3,0-2-0.8-2-2.3C132.2,16.8,132.7,16,134.1,16z"/>
<polyline points="118.4,30.1 117.6,30.1 115.4,24.5 116.1,24.5 118,29.4 119.9,24.5 120.7,24.5 "/>
<path d="M121.1,30.1v-2.1v-2.1h0.7v2.1v2.1H121.1 M121.1,24.9v-0.3v-0.3h0.7v0.3v0.3H121.1z"/>
<path d="M125.8,27.5c0.1-1.3-1.7-1.7-2.2-0.6c-0.1,0.2-0.1,0.4-0.1,0.6H125.8 M124.6,25.7c1.4,0,1.9,0.9,1.9,2.4h-3
	c0,0.9,0.3,1.5,1.2,1.5c0.6,0,1-0.3,1.1-0.7l0.6,0.2c-0.2,0.6-0.8,1-1.7,1c-1.3,0-2-0.8-2-2.3C122.7,26.5,123.3,25.7,124.6,25.7z"/>
<polyline points="131.5,30.1 130.7,30.1 129.8,26.4 128.8,30.1 128,30.1 126.8,25.8 127.5,25.8 128.4,29.5 129.4,25.8 130.1,25.8 
	131.1,29.5 132,25.8 132.7,25.8 "/>
<path fill="#FFFFFF" d="M169,8.3c0-1.3,1-2.3,2.3-2.3h67.5c1.3,0,2.3,1,2.3,2.3v31.5c0,1.3-1,2.3-2.3,2.3h-67.5
	c-1.3,0-2.3-1-2.3-2.3V8.3z"/>
<path fill="none" stroke="#000000" stroke-width="0.9" stroke-miterlimit="10" d="M169,8.3c0-1.3,1-2.3,2.3-2.3h67.5
	c1.3,0,2.3,1,2.3,2.3v31.5c0,1.3-1,2.3-2.3,2.3h-67.5c-1.3,0-2.3-1-2.3-2.3V8.3z"/>
<path d="M193.8,16.3c-0.2-0.6-0.8-1-1.6-1c-1.3,0-2,0.9-2,2.2c0,1.3,0.7,2.3,2,2.3c1,0,1.4-0.5,1.8-1.2l0.6,0.3
	c-0.4,0.9-1.1,1.5-2.4,1.5c-1.8,0-2.6-1.1-2.7-2.9c-0.1-2.3,2.2-3.4,4.2-2.5c0.4,0.2,0.7,0.6,0.9,1"/>
<path d="M197.1,19.9c1,0,1.2-0.7,1.2-1.7c0-1-0.2-1.7-1.1-1.7s-1.2,0.7-1.2,1.7C195.9,19.2,196.2,19.9,197.1,19.9 M197.1,16
	c1.4,0,1.9,0.8,1.9,2.2c0,1.4-0.6,2.2-1.9,2.2s-1.9-0.9-1.9-2.2C195.2,16.7,195.8,16,197.1,16z"/>
<path d="M204.1,16.6c-1.5,0.1-0.9,2.4-1,3.8h-0.7V19v-1.4c0-0.7-0.1-1.1-0.8-1.1c-1.5,0.1-0.9,2.3-1,3.8h-0.7l0-4.3h0.7
	c0,0.2,0,0.5,0,0.7c0.2-1,2.2-1.1,2.4,0c0.2-0.5,0.6-0.8,1.3-0.8c1.9,0,1.1,2.7,1.2,4.4h-0.7V19v-1.4
	C204.9,17,204.8,16.5,204.1,16.6"/>
<path d="M208.5,19.9c0.9,0,1-0.8,1-1.7c0-0.9-0.1-1.6-1-1.7c-0.9,0-1.1,0.7-1.1,1.7C207.3,19.2,207.6,19.9,208.5,19.9 M208.7,16
	c1.2,0,1.6,0.9,1.6,2.2c0,1.3-0.4,2.2-1.6,2.3c-0.7,0-1.1-0.3-1.4-0.8l0,2.4h-0.7l0-6h0.7l0,0.7C207.6,16.3,208,16,208.7,16z"/>
<polyline points="211.1,20.4 211.1,17.4 211.1,14.5 211.8,14.5 211.8,17.4 211.8,20.4 211.1,20.4 "/>
<path d="M215.8,17.8c0.1-1.3-1.7-1.7-2.2-0.6c-0.1,0.2-0.1,0.4-0.1,0.6H215.8 M214.6,16c1.4,0,1.9,0.9,1.9,2.4h-3
	c0,0.9,0.3,1.5,1.2,1.5c0.6,0,1-0.3,1.1-0.7l0.6,0.2c-0.2,0.6-0.8,1-1.7,1c-1.3,0-2-0.8-2-2.3C212.7,16.8,213.3,16,214.6,16z"/>
<polyline points="220,20.4 218.9,18.6 217.7,20.4 216.9,20.4 218.5,18.2 217,16.1 217.8,16.1 218.9,17.7 219.9,16.1 220.7,16.1 
	219.3,18.2 220.8,20.4 220,20.4 "/>
<polyline points="199.4,30.1 198.6,30.1 196.4,24.5 197.1,24.5 199,29.4 200.9,24.5 201.7,24.5 "/>
<path d="M202.1,30.1v-2.1v-2.1h0.7v2.1v2.1H202.1 M202.1,24.9v-0.3v-0.3h0.7v0.3v0.3H202.1z"/>
<path d="M206.8,27.5c0.1-1.3-1.7-1.7-2.2-0.6c-0.1,0.2-0.1,0.4-0.1,0.6H206.8 M205.6,25.7c1.4,0,1.9,0.9,1.9,2.4h-3
	c0,0.9,0.3,1.5,1.2,1.5c0.6,0,1-0.3,1.1-0.7l0.6,0.2c-0.2,0.6-0.8,1-1.7,1c-1.3,0-2-0.8-2-2.3C203.7,26.5,204.3,25.7,205.6,25.7z"/>
<polyline points="212.5,30.1 211.7,30.1 210.8,26.4 209.8,30.1 209,30.1 207.8,25.8 208.5,25.8 209.4,29.5 210.4,25.8 211.1,25.8 
	212.1,29.5 213,25.8 213.7,25.8 "/>
<path fill="none" stroke="#000000" stroke-width="0.9" stroke-miterlimit="10" d="M43,67.2v0.9 M43,63.6v0.9 M43,60v0.9 M43,56.4
	v0.9 M43,52.8v0.9 M43,49.2v0.9 M43,45.6v0.9 M43,42v0.9"/>
<path d="M43.4,42h-0.9H43.4z"/>
<path fill="#FFFFFF" d="M34,125.3c0-1.3,1-2.3,2.3-2.3h13.5c1.3,0,2.3,1,2.3,2.3v22.5c0,1.3-1,2.3-2.3,2.3H36.2
	c-1.3,0-2.3-1-2.3-2.3V125.3z"/>
<path fill="none" stroke="#000000" stroke-width="0.9" stroke-miterlimit="10" d="M34,125.3c0-1.3,1-2.3,2.3-2.3h13.5
	c1.3,0,2.3,1,2.3,2.3v22.5c0,1.3-1,2.3-2.3,2.3H36.2c-1.3,0-2.3-1-2.3-2.3V125.3z"/>
<path fill="#FFFFFF" d="M34,179.3c0-1.3,1-2.3,2.3-2.3h13.5c1.3,0,2.3,1,2.3,2.3v22.5c0,1.3-1,2.3-2.3,2.3H36.2
	c-1.3,0-2.3-1-2.3-2.3V179.3z"/>
<path fill="none" stroke="#000000" stroke-width="0.9" stroke-miterlimit="10" d="M34,179.3c0-1.3,1-2.3,2.3-2.3h13.5
	c1.3,0,2.3,1,2.3,2.3v22.5c0,1.3-1,2.3-2.3,2.3H36.2c-1.3,0-2.3-1-2.3-2.3V179.3z"/>
<path fill="none" stroke="#000000" stroke-width="0.9" stroke-miterlimit="10" d="M43,175.2v0.9 M43,171.6v0.9 M43,168v0.9
	 M43,164.4v0.9 M43,160.8v0.9 M43,157.2v0.9 M43,153.6v0.9 M43,150v0.9"/>
<path fill="none" stroke="#000000" stroke-width="0.9" stroke-miterlimit="10" d="M43,121.2v0.9 M43,117.6v0.9 M43,114v0.9
	 M43,110.4v0.9 M43,106.8v0.9 M43,103.2v0.9 M43,99.6v0.9 M43,96v0.9"/>
<path d="M43.4,96h-0.9H43.4z"/>
<line fill="none" stroke="#000000" stroke-width="0.9" stroke-miterlimit="10" x1="52" y1="82.5" x2="124" y2="82.5"/>
<polygon points="52,83 52,83 52,82.1 "/>
<rect x="63.1" y="78.9" fill="#FFFFFF" width="29.3" height="7.2"/>
<path d="M67.1,83.7l0-3.6c-0.4,1.3-0.9,2.4-1.3,3.6h-0.4L64.1,80l0,3.6h-0.5v-2.1v-2.1h0.7l1.3,3.5c0.3-1.2,0.8-2.3,1.3-3.5h0.7v2.1
	v2.1H67.1"/>
<path d="M70.6,81.8c0.1-1-1.3-1.3-1.6-0.5c0,0.1-0.1,0.3-0.1,0.5H70.6 M69.8,80.4c1,0,1.4,0.7,1.4,1.8h-2.2c0,0.7,0.2,1.1,0.9,1.1
	c0.4,0,0.7-0.2,0.8-0.5l0.5,0.1c-0.2,0.5-0.6,0.7-1.3,0.7c-1,0-1.5-0.6-1.4-1.7C68.4,81.1,68.8,80.4,69.8,80.4z"/>
<path d="M73.7,81.3c0-0.6-1.4-0.6-1.4,0c0.2,0.9,1.9,0.2,2,1.5c0.1,1.3-2.5,1.2-2.6,0.1l0.5-0.1c0.1,0.6,1.6,0.7,1.6,0
	c-0.2-0.9-1.9-0.2-2-1.5c-0.1-0.9,1.4-1,2-0.7c0.2,0.1,0.3,0.3,0.4,0.6"/>
<path d="M76.7,81.3c0-0.6-1.4-0.6-1.4,0c0.2,0.9,1.9,0.2,2,1.5c0.1,1.3-2.5,1.2-2.6,0.1l0.5-0.1c0.1,0.6,1.6,0.7,1.6,0
	c-0.2-0.9-1.9-0.2-2-1.5c-0.1-0.9,1.4-1,2-0.7c0.2,0.1,0.3,0.3,0.4,0.6"/>
<path d="M78.2,82.8c0,0.3,0.2,0.5,0.5,0.5c0.7,0,1-0.5,1-1.2C79,82.1,78.2,82,78.2,82.8 M79.8,83.1c-0.2,0.3-0.5,0.7-1.1,0.7
	c-0.6,0-1-0.3-1-0.9c0-1.1,1-1,2.1-1c0-0.6-0.1-0.9-0.7-0.9c-0.4,0-0.7,0.1-0.7,0.5l-0.5,0c0.1-0.6,0.5-0.9,1.3-0.9
	c0.7,0,1.2,0.3,1.2,1.1v0.7v0.7c0,0.3,0.1,0.5,0.5,0.4v0.2v0.2C80.2,83.8,79.7,83.6,79.8,83.1z"/>
<path d="M82.3,83.3c0.6,0,0.8-0.5,0.8-1.2c0-0.7-0.2-1.2-0.8-1.2c-0.6,0-0.8,0.6-0.8,1.2C81.5,82.8,81.6,83.3,82.3,83.3 M83.7,80.5
	c-0.2,2.1,0.7,4.9-1.8,4.3c-0.4-0.1-0.6-0.3-0.7-0.7l0.5-0.1c0.2,0.8,1.7,0.5,1.5-0.5v-0.2v-0.2c-0.2,0.3-0.5,0.6-1,0.6
	c-0.9,0-1.1-0.7-1.1-1.6c0-0.9,0.3-1.6,1.2-1.6c0.5,0,0.8,0.3,1,0.6c0-0.2,0-0.4,0-0.5H83.7z"/>
<path d="M86.6,81.8c0.1-1-1.3-1.3-1.6-0.5c0,0.1-0.1,0.3-0.1,0.5H86.6 M85.7,80.4c1,0,1.4,0.7,1.4,1.8h-2.2c0,0.7,0.2,1.1,0.9,1.1
	c0.4,0,0.7-0.2,0.8-0.5l0.5,0.1c-0.2,0.5-0.6,0.7-1.3,0.7c-1,0-1.5-0.6-1.4-1.7C84.3,81.1,84.8,80.4,85.7,80.4z"/>
<polyline points="89.5,83.7 89.5,83.4 89.5,83.2 90.6,83.2 90.6,81.6 90.6,80.1 89.7,80.7 89.7,80.5 89.7,80.2 90.6,79.5 91.1,79.5 
	91.1,81.4 91.1,83.2 92.1,83.2 92.1,83.4 92.1,83.7 89.5,83.7 "/>
<path fill="none" stroke="#000000" stroke-width="0.9" stroke-miterlimit="10" d="M124,85.2v0.9 M124,81.6v0.9 M124,78v0.9
	 M124,74.4v0.9 M124,70.8v0.9 M124,67.2v0.9 M124,63.6v0.9 M124,60v0.9 M124,56.4v0.9 M124,52.8v0.9 M124,49.2v0.9 M124,45.6v0.9
	 M124,42v0.9"/>
<path d="M124.4,42h-0.9H124.4z"/>
<line fill="none" stroke="#000000" stroke-width="0.9" stroke-miterlimit="10" x1="205" y1="82.5" x2="124" y2="82.5"/>
<path fill="none" stroke="#000000" stroke-width="0.9" stroke-miterlimit="10" d="M205,85.2v0.9 M205,81.6v0.9 M205,78v0.9
	 M205,74.4v0.9 M205,70.8v0.9 M205,67.2v0.9 M205,63.6v0.9 M205,60v0.9 M205,56.4v0.9 M205,52.8v0.9 M205,49.2v0.9 M205,45.6v0.9
	 M205,42v0.9"/>
<path d="M205.4,42h-0.9H205.4z"/>
<path fill="none" stroke="#000000" stroke-width="0.9" stroke-miterlimit="10" d="M124,148.2v0.9 M124,144.6v0.9 M124,141v0.9
	 M124,137.4v0.9 M124,133.8v0.9 M124,130.2v0.9 M124,126.6v0.9 M124,123v0.9"/>
<path d="M124.4,123h-0.9H124.4z"/>
<path fill="none" stroke="#000000" stroke-width="0.9" stroke-miterlimit="10" d="M124,202.2v0.9 M124,198.6v0.9 M124,195v0.9
	 M124,191.4v0.9 M124,187.8v0.9 M124,184.2v0.9 M124,180.6v0.9 M124,177v0.9"/>
<line fill="none" stroke="#000000" stroke-width="0.9" stroke-miterlimit="10" x1="124" y1="204" x2="124" y2="205.4"/>
<path fill="#FFFFFF" d="M115,143.3c0-1.3,1-2.3,2.3-2.3h13.5c1.3,0,2.3,1,2.3,2.3v31.5c0,1.3-1,2.3-2.3,2.3h-13.5
	c-1.3,0-2.3-1-2.3-2.3V143.3z"/>
<path fill="none" stroke="#000000" stroke-width="0.9" stroke-miterlimit="10" d="M115,143.3c0-1.3,1-2.3,2.3-2.3h13.5
	c1.3,0,2.3,1,2.3,2.3v31.5c0,1.3-1,2.3-2.3,2.3h-13.5c-1.3,0-2.3-1-2.3-2.3V143.3z"/>
<path fill="#FFFFFF" d="M115,206.3c0-1.3,1-2.3,2.3-2.3h13.5c1.3,0,2.3,1,2.3,2.3v31.5c0,1.3-1,2.3-2.3,2.3h-13.5
	c-1.3,0-2.3-1-2.3-2.3V206.3z"/>
<path fill="none" stroke="#000000" stroke-width="0.9" stroke-miterlimit="10" d="M115,206.3c0-1.3,1-2.3,2.3-2.3h13.5
	c1.3,0,2.3,1,2.3,2.3v31.5c0,1.3-1,2.3-2.3,2.3h-13.5c-1.3,0-2.3-1-2.3-2.3V206.3z"/>
<line fill="none" stroke="#000000" stroke-width="0.9" stroke-miterlimit="10" x1="52" y1="136.5" x2="124" y2="136.5"/>
<rect x="63.1" y="132.9" fill="#FFFFFF" width="29.3" height="7.2"/>
<path d="M67.1,137.7l0-3.6c-0.4,1.3-0.9,2.4-1.3,3.6h-0.4l-1.3-3.6l0,3.6h-0.5v-2.1v-2.1h0.7l1.3,3.5c0.3-1.2,0.8-2.3,1.3-3.5h0.7
	v2.1v2.1H67.1"/>
<path d="M70.6,135.8c0.1-1-1.3-1.3-1.6-0.5c0,0.1-0.1,0.3-0.1,0.5H70.6 M69.8,134.4c1,0,1.4,0.7,1.4,1.8h-2.2c0,0.7,0.2,1.1,0.9,1.1
	c0.4,0,0.7-0.2,0.8-0.5l0.5,0.1c-0.2,0.5-0.6,0.7-1.3,0.7c-1,0-1.5-0.6-1.4-1.7C68.4,135.1,68.8,134.4,69.8,134.4z"/>
<path d="M73.7,135.3c0-0.6-1.4-0.6-1.4,0c0.2,0.9,1.9,0.2,2,1.5c0.1,1.3-2.5,1.2-2.6,0.1l0.5-0.1c0.1,0.6,1.6,0.7,1.6,0
	c-0.2-0.9-1.9-0.2-2-1.5c-0.1-0.9,1.4-1,2-0.7c0.2,0.1,0.3,0.3,0.4,0.6"/>
<path d="M76.7,135.3c0-0.6-1.4-0.6-1.4,0c0.2,0.9,1.9,0.2,2,1.5c0.1,1.3-2.5,1.2-2.6,0.1l0.5-0.1c0.1,0.6,1.6,0.7,1.6,0
	c-0.2-0.9-1.9-0.2-2-1.5c-0.1-0.9,1.4-1,2-0.7c0.2,0.1,0.3,0.3,0.4,0.6"/>
<path d="M78.2,136.8c0,0.3,0.2,0.5,0.5,0.5c0.7,0,1-0.5,1-1.2C79,136.1,78.2,136,78.2,136.8 M79.8,137.1c-0.2,0.3-0.5,0.7-1.1,0.7
	c-0.6,0-1-0.3-1-0.9c0-1.1,1-1,2.1-1c0-0.6-0.1-0.9-0.7-0.9c-0.4,0-0.7,0.1-0.7,0.5l-0.5,0c0.1-0.6,0.5-0.9,1.3-0.9
	c0.7,0,1.2,0.3,1.2,1.1v0.7v0.7c0,0.3,0.1,0.5,0.5,0.4v0.2v0.2C80.2,137.8,79.7,137.6,79.8,137.1z"/>
<path d="M82.3,137.3c0.6,0,0.8-0.5,0.8-1.2c0-0.7-0.2-1.2-0.8-1.2c-0.6,0-0.8,0.6-0.8,1.2S81.6,137.3,82.3,137.3 M83.7,134.5
	c-0.2,2.1,0.7,4.9-1.8,4.3c-0.4-0.1-0.6-0.3-0.7-0.7l0.5-0.1c0.2,0.8,1.7,0.5,1.5-0.5v-0.2v-0.2c-0.2,0.3-0.5,0.6-1,0.6
	c-0.9,0-1.1-0.7-1.1-1.6c0-0.9,0.3-1.6,1.2-1.6c0.5,0,0.8,0.3,1,0.6c0-0.2,0-0.4,0-0.5H83.7z"/>
<path d="M86.6,135.8c0.1-1-1.3-1.3-1.6-0.5c0,0.1-0.1,0.3-0.1,0.5H86.6 M85.7,134.4c1,0,1.4,0.7,1.4,1.8h-2.2c0,0.7,0.2,1.1,0.9,1.1
	c0.4,0,0.7-0.2,0.8-0.5l0.5,0.1c-0.2,0.5-0.6,0.7-1.3,0.7c-1,0-1.5-0.6-1.4-1.7C84.3,135.1,84.8,134.4,85.7,134.4z"/>
<path d="M90.8,133.5c1.4-0.1,1.5,1.4,0.7,2.2l-1,0.9c-0.2,0.2-0.4,0.4-0.5,0.6h2.1v0.2v0.2h-2.7c0-1.6,2.1-1.6,2.1-3
	c0-0.5-0.3-0.7-0.7-0.7s-0.8,0.2-0.8,0.7l-0.5,0C89.5,133.9,90,133.6,90.8,133.5"/>
<line fill="none" stroke="#000000" stroke-width="0.9" stroke-miterlimit="10" x1="196" y1="136.5" x2="124" y2="136.5"/>
<path fill="#FFFFFF" d="M196,89.3c0-1.3,1-2.3,2.3-2.3h13.5c1.3,0,2.3,1,2.3,2.3v76.5c0,1.3-1,2.3-2.3,2.3h-13.5
	c-1.3,0-2.3-1-2.3-2.3V89.3z"/>
<path fill="none" stroke="#000000" stroke-width="0.9" stroke-miterlimit="10" d="M196,89.3c0-1.3,1-2.3,2.3-2.3h13.5
	c1.3,0,2.3,1,2.3,2.3v76.5c0,1.3-1,2.3-2.3,2.3h-13.5c-1.3,0-2.3-1-2.3-2.3V89.3z"/>
<line fill="none" stroke="#000000" stroke-width="0.9" stroke-miterlimit="10" x1="52" y1="190.5" x2="124" y2="190.5"/>
<rect x="63.1" y="186.9" fill="#FFFFFF" width="29.3" height="7.2"/>
<path d="M67.1,191.6l0-3.6c-0.4,1.3-0.9,2.4-1.3,3.6h-0.4l-1.3-3.6l0,3.6h-0.5v-2.1v-2.1h0.7l1.3,3.5c0.3-1.2,0.8-2.3,1.3-3.5h0.7
	v2.1v2.1H67.1"/>
<path d="M70.6,189.7c0.1-1-1.3-1.3-1.6-0.5c0,0.1-0.1,0.3-0.1,0.5H70.6 M69.8,188.4c1,0,1.4,0.7,1.4,1.8h-2.2c0,0.7,0.2,1.1,0.9,1.1
	c0.4,0,0.7-0.2,0.8-0.5l0.5,0.1c-0.2,0.5-0.6,0.7-1.3,0.7c-1,0-1.5-0.6-1.4-1.7C68.4,189,68.8,188.4,69.8,188.4z"/>
<path d="M73.7,189.2c0-0.6-1.4-0.6-1.4,0c0.2,0.9,1.9,0.2,2,1.5c0.1,1.3-2.5,1.2-2.6,0.1l0.5-0.1c0.1,0.6,1.6,0.7,1.6,0
	c-0.2-0.9-1.9-0.2-2-1.5c-0.1-0.9,1.4-1,2-0.7c0.2,0.1,0.3,0.3,0.4,0.6"/>
<path d="M76.7,189.2c0-0.6-1.4-0.6-1.4,0c0.2,0.9,1.9,0.2,2,1.5c0.1,1.3-2.5,1.2-2.6,0.1l0.5-0.1c0.1,0.6,1.6,0.7,1.6,0
	c-0.2-0.9-1.9-0.2-2-1.5c-0.1-0.9,1.4-1,2-0.7c0.2,0.1,0.3,0.3,0.4,0.6"/>
<path d="M78.2,190.7c0,0.3,0.2,0.5,0.5,0.5c0.7,0,1-0.5,1-1.2C79,190.1,78.2,190,78.2,190.7 M79.8,191c-0.2,0.3-0.5,0.7-1.1,0.7
	c-0.6,0-1-0.3-1-0.9c0-1.1,1-1,2.1-1c0-0.6-0.1-0.9-0.7-0.9c-0.4,0-0.7,0.1-0.7,0.5l-0.5,0c0.1-0.6,0.5-0.9,1.3-0.9
	c0.7,0,1.2,0.3,1.2,1.1v0.7v0.7c0,0.3,0.1,0.5,0.5,0.4v0.2v0.2C80.2,191.8,79.7,191.6,79.8,191z"/>
<path d="M82.3,191.3c0.6,0,0.8-0.5,0.8-1.2c0-0.7-0.2-1.2-0.8-1.2c-0.6,0-0.8,0.6-0.8,1.2S81.6,191.3,82.3,191.3 M83.7,188.5
	c-0.2,2.1,0.7,4.9-1.8,4.3c-0.4-0.1-0.6-0.3-0.7-0.7l0.5-0.1c0.2,0.8,1.7,0.5,1.5-0.5v-0.2V191c-0.2,0.3-0.5,0.6-1,0.6
	c-0.9,0-1.1-0.7-1.1-1.6c0-0.9,0.3-1.6,1.2-1.6c0.5,0,0.8,0.3,1,0.6c0-0.2,0-0.4,0-0.5H83.7z"/>
<path d="M86.6,189.7c0.1-1-1.3-1.3-1.6-0.5c0,0.1-0.1,0.3-0.1,0.5H86.6 M85.7,188.4c1,0,1.4,0.7,1.4,1.8h-2.2c0,0.7,0.2,1.1,0.9,1.1
	c0.4,0,0.7-0.2,0.8-0.5l0.5,0.1c-0.2,0.5-0.6,0.7-1.3,0.7c-1,0-1.5-0.6-1.4-1.7C84.3,189,84.8,188.4,85.7,188.4z"/>
<path d="M91.2,189.5c0.5,0.1,1,0.3,1,1c0,1.5-2.3,1.5-2.7,0.5c0-0.1-0.1-0.3-0.1-0.4l0.5,0c0.1,0.4,0.3,0.7,0.9,0.7
	c0.5,0,0.9-0.2,0.9-0.8c0-0.6-0.6-0.8-1.3-0.7v-0.2v-0.2c0.6,0,1.2-0.1,1.2-0.7c0-0.4-0.3-0.7-0.8-0.7c-0.5,0-0.8,0.2-0.8,0.7
	l-0.5,0c0.1-0.7,0.6-1,1.3-1.1c0.8,0,1.3,0.3,1.3,1.1C92,189.1,91.7,189.4,91.2,189.5"/>
<line fill="none" stroke="#000000" stroke-width="0.9" stroke-miterlimit="10" x1="196" y1="190.5" x2="124" y2="190.5"/>
<path fill="#FFFFFF" d="M196,170.3c0-1.3,1-2.3,2.3-2.3h13.5c1.3,0,2.3,1,2.3,2.3v76.5c0,1.3-1,2.3-2.3,2.3h-13.5
	c-1.3,0-2.3-1-2.3-2.3V170.3z"/>
<path fill="none" stroke="#000000" stroke-width="0.9" stroke-miterlimit="10" d="M196,170.3c0-1.3,1-2.3,2.3-2.3h13.5
	c1.3,0,2.3,1,2.3,2.3v76.5c0,1.3-1,2.3-2.3,2.3h-13.5c-1.3,0-2.3-1-2.3-2.3V170.3z"/>
<path fill="#FFFFFF" d="M196,251.3c0-1.3,1-2.3,2.3-2.3h13.5c1.3,0,2.3,1,2.3,2.3v76.5c0,1.3-1,2.3-2.3,2.3h-13.5
	c-1.3,0-2.3-1-2.3-2.3V251.3z"/>
<path fill="none" stroke="#000000" stroke-width="0.9" stroke-miterlimit="10" d="M196,251.3c0-1.3,1-2.3,2.3-2.3h13.5
	c1.3,0,2.3,1,2.3,2.3v76.5c0,1.3-1,2.3-2.3,2.3h-13.5c-1.3,0-2.3-1-2.3-2.3V251.3z"/>
<path d="M123.2,104.9c-0.1-0.7-1.7-0.7-1.7,0c0.2,1,2.2,0.2,2.3,1.6c0,1.1-1.7,1.2-2.4,0.8c-0.2-0.1-0.4-0.4-0.5-0.6l0.5-0.1
	c0.1,0.8,2,0.9,2,0c0-1.1-2.1-0.2-2.2-1.6c-0.1-1.1,2-1.2,2.5-0.5c0.1,0.1,0.1,0.2,0.2,0.3"/>
<polyline points="125.9,107.5 125.4,107.5 124,104 124.5,104 125.6,107.1 126.8,104 127.3,104 "/>
<polyline points="123,113.5 123,113.3 123,113.1 123.9,113.1 123.9,111.8 123.9,110.5 123.1,111 123.1,110.8 123.1,110.6 123.9,110 
	124.3,110 124.3,111.6 124.3,113.1 125.1,113.1 125.1,113.3 125.1,113.5 123,113.5 "/>
<path d="M123.2,158.8c-0.1-0.7-1.7-0.7-1.7,0c0.2,1,2.2,0.2,2.3,1.6c0,1.1-1.7,1.2-2.4,0.8c-0.2-0.1-0.4-0.4-0.5-0.6l0.5-0.1
	c0.1,0.8,2,0.9,2,0c0-1.1-2.1-0.2-2.2-1.6c-0.1-1.1,2-1.2,2.5-0.5c0.1,0.1,0.1,0.2,0.2,0.3"/>
<polyline points="125.9,161.4 125.4,161.4 124,158 124.5,158 125.6,161 126.8,158 127.3,158 "/>
<path d="M124,163.9c1.1-0.1,1.3,1.2,0.6,1.8l-0.9,0.8c-0.2,0.2-0.3,0.3-0.4,0.5h1.8v0.2v0.2h-2.3c0-1.4,1.8-1.3,1.8-2.5
	c0-0.4-0.2-0.6-0.6-0.6c-0.4,0-0.6,0.2-0.7,0.6l-0.4,0C123,164.3,123.4,164,124,163.9"/>
<path d="M123.2,221.9c-0.1-0.7-1.7-0.7-1.7,0c0.2,1,2.2,0.2,2.3,1.6c0,1.1-1.7,1.2-2.4,0.8c-0.2-0.1-0.4-0.4-0.5-0.6l0.5-0.1
	c0.1,0.8,2,0.9,2,0c0-1.1-2.1-0.2-2.2-1.6c-0.1-1.1,2-1.2,2.5-0.5c0.1,0.1,0.1,0.2,0.2,0.3"/>
<polyline points="125.9,224.5 125.4,224.5 124,221 124.5,221 125.6,224.1 126.8,221 127.3,221 "/>
<path d="M124.4,228.7c0.5,0.1,0.8,0.3,0.8,0.8c0,1.2-1.9,1.3-2.3,0.4c0-0.1-0.1-0.2-0.1-0.3l0.4,0c0.1,0.4,0.3,0.6,0.7,0.6
	c0.4,0,0.7-0.2,0.7-0.6c0-0.5-0.5-0.6-1.1-0.6v-0.2v-0.2c0.5,0,1-0.1,1-0.6c0-0.4-0.2-0.6-0.6-0.6c-0.4,0-0.7,0.2-0.7,0.6l-0.4,0
	c0.1-0.6,0.5-0.9,1.1-0.9c0.7,0,1.1,0.3,1.1,0.9C125.1,228.4,124.8,228.6,124.4,228.7"/>
<path d="M204.4,150c-0.1-0.4-0.5-0.6-1-0.6c-0.8,0-1.2,0.6-1.2,1.4c0,0.8,0.4,1.4,1.2,1.4c0.6,0,0.9-0.3,1.1-0.7l0.4,0.2
	c-0.2,0.5-0.7,0.9-1.5,0.9c-1.1,0-1.6-0.7-1.7-1.8c-0.1-1.4,1.4-2.1,2.6-1.5c0.3,0.1,0.4,0.4,0.5,0.6"/>
<polyline points="207,152.5 206.5,152.5 205.1,149 205.6,149 206.7,152.1 207.9,149 208.4,149 "/>
<polyline points="204,158.5 204,158.3 204,158.1 204.9,158.1 204.9,156.8 204.9,155.5 204.1,156 204.1,155.8 204.1,155.6 204.9,155 
	205.3,155 205.3,156.6 205.3,158.1 206.1,158.1 206.1,158.3 206.1,158.5 204,158.5 "/>
<path d="M204.4,231c-0.1-0.4-0.5-0.6-1-0.6c-0.8,0-1.2,0.6-1.2,1.4c0,0.8,0.4,1.4,1.2,1.4c0.6,0,0.9-0.3,1.1-0.7l0.4,0.2
	c-0.2,0.5-0.7,0.9-1.5,0.9c-1.1,0-1.6-0.7-1.7-1.8c-0.1-1.4,1.4-2.1,2.6-1.5c0.3,0.1,0.4,0.4,0.5,0.6"/>
<polyline points="207,233.5 206.5,233.5 205.1,230 205.6,230 206.7,233.1 207.9,230 208.4,230 "/>
<path d="M205,236c1.1-0.1,1.3,1.2,0.6,1.8l-0.9,0.8c-0.2,0.2-0.3,0.3-0.4,0.5h1.8v0.2v0.2h-2.3c0-1.4,1.8-1.3,1.8-2.5
	c0-0.4-0.2-0.6-0.6-0.6s-0.6,0.2-0.7,0.6l-0.4,0C204,236.3,204.4,236,205,236"/>
<path d="M204.4,312c-0.1-0.4-0.5-0.6-1-0.6c-0.8,0-1.2,0.6-1.2,1.4c0,0.8,0.4,1.4,1.2,1.4c0.6,0,0.9-0.3,1.1-0.7l0.4,0.2
	c-0.2,0.5-0.7,0.9-1.5,0.9c-1.1,0-1.6-0.7-1.7-1.8c-0.1-1.4,1.4-2.1,2.6-1.5c0.3,0.1,0.4,0.4,0.5,0.6"/>
<polyline points="207,314.5 206.5,314.5 205.1,311 205.6,311 206.7,314.1 207.9,311 208.4,311 "/>
<path d="M205.4,318.7c0.5,0.1,0.8,0.3,0.8,0.8c0,1.2-1.9,1.3-2.3,0.4c0-0.1-0.1-0.2-0.1-0.3l0.4,0c0.1,0.4,0.3,0.6,0.7,0.6
	c0.4,0,0.7-0.2,0.7-0.6c0-0.5-0.5-0.6-1.1-0.6v-0.2v-0.2c0.5,0,1-0.1,1-0.6c0-0.4-0.2-0.6-0.6-0.6c-0.4,0-0.7,0.2-0.7,0.6l-0.4,0
	c0.1-0.6,0.5-0.9,1.1-0.9c0.7,0,1.1,0.3,1.1,0.9C206.1,318.4,205.8,318.6,205.4,318.7"/>
</svg>
