<svg id="Layer_1" data-name="Layer 1" xmlns="http://www.w3.org/2000/svg" width="896.79" height="245.09" viewBox="0 0 896.79 245.09">
  <title>sow_overview_2</title>
  <rect x="288.98" y="7.5" width="607.36" height="237.15" rx="23.71" ry="23.71" fill="#fff"/>
  <rect x="288.98" y="7.5" width="607.36" height="237.15" rx="23.71" ry="23.71" fill="none" stroke="#000" stroke-miterlimit="10" stroke-width="0.9"/>
  <path d="M405.14,130.09c13.44,0,24.31,13.17,24.31,29.45S418.57,189,405.14,189H332.28C318.84,189,308,175.8,308,159.53s10.87-29.45,24.31-29.45h72.86Z" transform="translate(-4.5 -3.36)" fill="#ccc"/>
  <path d="M405.14,130.09c13.44,0,24.31,13.17,24.31,29.45S418.57,189,405.14,189H332.28C318.84,189,308,175.8,308,159.53s10.87-29.45,24.31-29.45h72.86Z" transform="translate(-4.5 -3.36)" fill="none" stroke="#000" stroke-miterlimit="10" stroke-width="0.9"/>
  <path d="M351.18,142a2.32,2.32,0,0,0-2.4-1.48c-1.94,0-2.87,1.32-2.87,3.26s1,3.33,2.93,3.33a2.75,2.75,0,0,0,2.57-1.71l0.89,0.46a3.63,3.63,0,0,1-3.52,2.17c-2.63,0-3.85-1.65-4-4.25-0.2-3.43,3.26-5,6.16-3.66a2.67,2.67,0,0,1,1.28,1.52" transform="translate(-4.5 -3.36)"/>
  <path d="M354.31,146.13a1,1,0,0,0,1.05,1.09,2,2,0,0,0,2-2.44c-1.42.07-3-.16-3,1.35m3.06,0.56a2.44,2.44,0,0,1-2.24,1.32,1.76,1.76,0,0,1-1.91-1.88c0-2.11,2.08-2.08,4.12-2.08,0.1-1.15-.3-1.78-1.35-1.78-0.79,0-1.35.23-1.38,1l-1.09-.1c0.16-1.22,1.09-1.71,2.5-1.71s2.37,0.66,2.37,2.11v2.7c0,0.66.23,1.05,0.92,0.89v0.66C358.3,148.14,357.31,147.78,357.38,146.69Z" transform="translate(-4.5 -3.36)"/>
  <polyline points="355.61 144.52 355.61 140.22 355.61 135.92 356.66 135.92 356.66 140.22 356.66 144.52 355.61 144.52"/>
  <path d="M365.08,142.31c-1.32,0-1.58,1.09-1.58,2.4s0.3,2.47,1.58,2.47a1.31,1.31,0,0,0,1.42-1.25l1.05,0.07a2.26,2.26,0,0,1-2.44,2c-1.94,0-2.5-1.35-2.7-3.26a2.71,2.71,0,0,1,4.84-2.11,2.66,2.66,0,0,1,.23.72l-1.05.1a1.26,1.26,0,0,0-1.35-1.15" transform="translate(-4.5 -3.36)"/>
  <path d="M370.62,148c-2.93.13-1.78-3.82-2-6.39h1.05v4c0,1,.23,1.65,1.28,1.61,2.37-.07,1.48-3.33,1.65-5.57h1l0,6.26h-1a5.67,5.67,0,0,0-.07-1.09,2.06,2.06,0,0,1-2,1.22" transform="translate(-4.5 -3.36)"/>
  <polyline points="370.73 144.52 370.73 140.22 370.73 135.92 371.78 135.92 371.78 140.22 371.78 144.52 370.73 144.52"/>
  <path d="M378.62,146.13a1,1,0,0,0,1.05,1.09,2,2,0,0,0,2-2.44c-1.42.07-3-.16-3,1.35m3.06,0.56a2.44,2.44,0,0,1-2.24,1.32,1.76,1.76,0,0,1-1.91-1.88c0-2.11,2.08-2.08,4.12-2.08,0.1-1.15-.3-1.78-1.35-1.78-0.79,0-1.35.23-1.38,1l-1.09-.1c0.16-1.22,1.09-1.71,2.5-1.71s2.37,0.66,2.37,2.11v2.7c0,0.66.23,1.05,0.92,0.89v0.66C382.61,148.14,381.62,147.78,381.68,146.69Z" transform="translate(-4.5 -3.36)"/>
  <path d="M385.57,146.33c-0.07.79,0.59,1,1.25,0.72v0.79c-1.09.33-2.31,0.16-2.31-1.28v-4.18h-0.72v-0.76h0.79l0.3-1.42h0.69v1.42h1.15v0.76h-1.15v4" transform="translate(-4.5 -3.36)"/>
  <path d="M391.93,144.15a1.69,1.69,0,0,0-3.19-.92,2.39,2.39,0,0,0-.2.92h3.39m-1.71-2.67c2.08,0,2.83,1.38,2.77,3.49h-4.45c0,1.32.46,2.21,1.75,2.24a1.53,1.53,0,0,0,1.61-1l0.92,0.26a2.47,2.47,0,0,1-2.54,1.48c-1.91,0-2.9-1.22-2.87-3.29S388.27,141.48,390.21,141.48Z" transform="translate(-4.5 -3.36)"/>
  <path d="M353.26,155.88c-0.16-1.58-4.05-1.78-4.08.07,0.46,2.47,5.2.46,5.37,3.92,0.1,2.57-4,2.87-5.76,1.81a2.35,2.35,0,0,1-1.09-1.52l1.09-.23c0.16,1.84,4.64,2.08,4.64,0,0-2.57-5.11-.46-5.34-3.89-0.16-2.7,4.78-2.77,5.9-1.12a3.12,3.12,0,0,1,.36.82" transform="translate(-4.5 -3.36)"/>
  <path d="M358.33,161.44c1.45,0,1.75-1,1.75-2.47s-0.26-2.47-1.68-2.47-1.75,1.05-1.75,2.47,0.33,2.44,1.68,2.47m0-5.73c2,0,2.8,1.22,2.8,3.26s-0.89,3.26-2.83,3.26-2.73-1.28-2.77-3.26C355.57,156.8,356.49,155.71,358.36,155.71Z" transform="translate(-4.5 -3.36)"/>
  <polyline points="363.94 158.75 362.76 158.75 361.44 153.34 360.09 158.75 358.9 158.75 357.13 152.49 358.18 152.49 359.46 157.89 360.88 152.49 362 152.49 363.35 157.89 364.73 152.49 365.75 152.49"/>
  <polyline points="372.08 158.75 368.82 154.79 367.76 155.62 367.76 157.18 367.76 158.75 366.68 158.75 366.68 154.66 366.68 150.58 367.76 150.58 367.76 152.62 367.76 154.66 371.68 150.58 373 150.58 369.54 154.13 373.46 158.75 372.08 158.75"/>
  <path d="M383.1,158.38a1.69,1.69,0,0,0-3.19-.92,2.39,2.39,0,0,0-.2.92h3.39m-1.71-2.67c2.08,0,2.83,1.38,2.77,3.49h-4.45c0,1.32.46,2.21,1.75,2.24a1.53,1.53,0,0,0,1.61-1l0.92,0.26a2.47,2.47,0,0,1-2.54,1.48c-1.91,0-2.9-1.22-2.87-3.29S379.44,155.71,381.39,155.71Z" transform="translate(-4.5 -3.36)"/>
  <path d="M390.58,155.84l-2.83,7.28a2.24,2.24,0,0,1-2.67,1.38v-0.79c1.28,0.2,1.75-.66,2.11-1.65l-2.47-6.23h1.12l1.88,5.14,1.78-5.14h1.09" transform="translate(-4.5 -3.36)"/>
  <path d="M337.09,176.46c-2.93.13-1.78-3.82-2-6.39h1.05v4c0,1,.23,1.65,1.28,1.61,2.37-.07,1.48-3.33,1.65-5.57h1l0,6.26h-1a5.67,5.67,0,0,0-.07-1.09,2.06,2.06,0,0,1-2,1.22" transform="translate(-4.5 -3.36)"/>
  <path d="M345.35,171.62c-0.1-1.12-2.83-1.25-2.87,0,0.49,1.75,3.79.4,3.92,3s-4.94,2.44-5.17.26l0.92-.16c0.13,1.19,3.19,1.48,3.23,0-0.33-1.84-3.72-.49-3.89-3-0.13-1.88,2.7-2.08,4-1.38a1.66,1.66,0,0,1,.79,1.15" transform="translate(-4.5 -3.36)"/>
  <path d="M347.63,176.33v-6.26h1.05v6.26h-1.05m0-7.61v-1h1.05v1h-1.05Z" transform="translate(-4.5 -3.36)"/>
  <path d="M353.29,169.94c2.93-.13,1.75,3.82,2,6.39h-1.05v-4c0-1-.26-1.61-1.28-1.58-2.37.07-1.45,3.36-1.61,5.57h-1.05l0-6.26h1a5.32,5.32,0,0,0,.07,1.05,2.08,2.08,0,0,1,2-1.19" transform="translate(-4.5 -3.36)"/>
  <path d="M359.12,175.61c1.19,0,1.65-1.05,1.65-2.4s-0.46-2.47-1.65-2.47-1.52,1.12-1.52,2.47,0.2,2.4,1.52,2.4m2.73-5.53c-0.33,4.12,1.35,9.65-3.62,8.6a1.88,1.88,0,0,1-1.45-1.42l1.05-.16a1.55,1.55,0,0,0,2.93-.92v-1a2.08,2.08,0,0,1-2,1.19c-1.78,0-2.24-1.35-2.24-3.16S357,170,358.86,170a2.12,2.12,0,0,1,1.94,1.15c0-.33,0-0.76.07-1.05h1Z" transform="translate(-4.5 -3.36)"/>
  <polyline points="361.44 173.11 363.81 164.38 364.73 164.38 362.36 173.11 361.44 173.11"/>
  <path d="M372.49,175.67c1.45,0,1.75-1,1.75-2.47s-0.26-2.47-1.68-2.47-1.75,1.05-1.75,2.47,0.33,2.44,1.68,2.47m0-5.73c2,0,2.8,1.22,2.8,3.26s-0.89,3.26-2.83,3.26-2.73-1.28-2.77-3.26C369.73,171,370.65,169.94,372.53,169.94Z" transform="translate(-4.5 -3.36)"/>
  <path d="M379.58,171c-2.57-.53-1.75,3-1.88,5.37h-1.05l0-6.26h1a8,8,0,0,0,.07,1.28,1.5,1.5,0,0,1,1.91-1.35v1" transform="translate(-4.5 -3.36)"/>
  <path d="M382.84,170.73c-1.32,0-1.52,1.12-1.52,2.47s0.2,2.44,1.48,2.44,1.68-1.05,1.68-2.5-0.3-2.44-1.65-2.4m-0.3-.79a2.08,2.08,0,0,1,2,1.09l0-3.29h1.05l0,8.6h-1a9,9,0,0,0-.1-1,1.88,1.88,0,0,1-1.94,1.15c-1.75,0-2.27-1.28-2.31-3.23C380.23,171.06,381,169.94,382.54,169.94Z" transform="translate(-4.5 -3.36)"/>
  <path d="M391.33,172.61a1.69,1.69,0,0,0-3.19-.92,2.39,2.39,0,0,0-.2.92h3.39m-1.71-2.67c2.08,0,2.83,1.38,2.77,3.49h-4.45c0,1.32.46,2.21,1.75,2.24a1.53,1.53,0,0,0,1.61-1l0.92,0.26a2.47,2.47,0,0,1-2.54,1.48c-1.91,0-2.9-1.22-2.87-3.29S387.68,169.94,389.62,169.94Z" transform="translate(-4.5 -3.36)"/>
  <path d="M396.67,171c-2.57-.53-1.75,3-1.88,5.37h-1.05l0-6.26h1a8,8,0,0,0,.07,1.28,1.5,1.5,0,0,1,1.91-1.35v1" transform="translate(-4.5 -3.36)"/>
  <polyline points="393.42 172.97 393.42 168.89 393.42 164.81 394.54 164.81 394.54 168.89 394.54 172.97 393.42 172.97"/>
  <path d="M403.22,170.73c-1.32,0-1.52,1.12-1.52,2.47s0.2,2.44,1.48,2.44,1.68-1.05,1.68-2.5-0.3-2.44-1.65-2.4m-0.3-.79a2.08,2.08,0,0,1,2,1.09l0-3.29h1.05l0,8.6h-1a9,9,0,0,0-.1-1,1.88,1.88,0,0,1-1.94,1.15c-1.75,0-2.27-1.28-2.31-3.23C400.62,171.06,401.38,169.94,402.93,169.94Z" transform="translate(-4.5 -3.36)"/>
  <rect x="435.22" y="58.88" width="453.54" height="135.04" fill="#fff"/>
  <rect x="435.22" y="58.88" width="453.54" height="135.04" fill="none" stroke="#000" stroke-miterlimit="10" stroke-width="0.9"/>
  <path d="M633.41,79.48c3.33,0,4.7-2.17,4.7-5.34s-1.53-5.23-4.7-5.23-4.7,2.06-4.7,5.23,1.48,5.28,4.7,5.34m0-12c4.28,0,6.5,2.43,6.5,6.66S637.58,81,633.41,81s-6.5-2.59-6.5-6.82S629.13,67.49,633.41,67.49Z" transform="translate(-4.5 -3.36)"/>
  <path d="M644.13,73.93c3.17-.11,7.24.69,7.24-2.48s-4.23-2.22-7.24-2.38v4.86m9-2.54a3.48,3.48,0,0,1-3.17,3.7l3.7,5.65h-2l-3.43-5.44h-4.07v5.44h-1.74V67.65C647,67.8,653.22,66.54,653.11,71.4Z" transform="translate(-4.5 -3.36)"/>
  <path d="M657.82,79.32c4.7,0.42,7.71-.85,7.71-5.23s-3.17-5.34-7.71-5V79.32m-1.74-11.68c6.23-.37,11.41.42,11.25,6.45-0.16,4.12-2.27,6.66-6.39,6.66h-4.86V67.65Z" transform="translate(-4.5 -3.36)"/>
  <polyline points="665.25 77.39 665.25 70.84 665.25 64.29 675.13 64.29 675.13 65.03 675.13 65.77 667 65.77 667 67.86 667 69.94 674.61 69.94 674.61 70.66 674.61 71.37 667 71.37 667 73.67 667 75.96 675.56 75.96 675.56 76.68 675.56 77.39 665.25 77.39"/>
  <path d="M684.18,73.93c3.17-.11,7.24.69,7.24-2.48s-4.23-2.22-7.24-2.38v4.86m9-2.54A3.48,3.48,0,0,1,690,75.1l3.7,5.65h-2l-3.43-5.44h-4.07v5.44h-1.74V67.65C687.08,67.8,693.26,66.54,693.16,71.4Z" transform="translate(-4.5 -3.36)"/>
  <path d="M704.31,70.76c-0.26-2.54-6.5-2.85-6.55.11,0.74,4,8.35.74,8.61,6.29,0.16,4.12-6.39,4.6-9.25,2.91a3.78,3.78,0,0,1-1.74-2.43l1.74-.37c0.26,3,7.45,3.33,7.45-.05,0-4.12-8.19-.74-8.56-6.23-0.26-4.33,7.66-4.44,9.46-1.8A5,5,0,0,1,706,70.5" transform="translate(-4.5 -3.36)"/>
  <rect x="443.91" y="96.76" width="109.61" height="29.64" fill="#ccc"/>
  <rect x="443.91" y="96.76" width="109.61" height="29.64" fill="none" stroke="#000" stroke-miterlimit="10" stroke-width="0.9"/>
  <path d="M475.33,109.08c-0.05-2.27-5-2.43-5.12-.16,1,3.49,8,.53,8.14,6,0.16,5-8.72,4.91-10.78,1.9a3.85,3.85,0,0,1-.63-1.58l2.64-.42c0.16,2.43,5.92,3,6.13.26-0.9-3.65-7.92-.53-8.14-6-0.21-4.6,8.08-4.65,9.93-1.85a4.48,4.48,0,0,1,.53,1.48" transform="translate(-4.5 -3.36)"/>
  <path d="M484.84,117.11c1.85,0,2.38-1.48,2.38-3.43,0-2.11-.53-3.43-2.27-3.43s-2.38,1.37-2.38,3.43c0,1.9.53,3.43,2.27,3.43m0.05-8.66c3.38,0,5.07,1.9,5.07,5.23s-1.85,5.23-5.12,5.23-5-1.9-5-5.23S481.61,108.44,484.89,108.44Z" transform="translate(-4.5 -3.36)"/>
  <path d="M502.85,118.69H500.1L498,110.5l-2.11,8.19h-2.75l-2.59-10H493l1.69,7.66c0.48-2.75,1.27-5.12,1.9-7.66h2.8l2,7.66,1.69-7.66h2.43" transform="translate(-4.5 -3.36)"/>
  <polyline points="511.24 115.33 506.59 109.31 504.95 110.58 504.95 112.96 504.95 115.33 502.21 115.33 502.21 108.78 502.21 102.23 504.95 102.23 504.95 105.22 504.95 108.2 510.87 102.23 514.04 102.23 508.44 107.78 514.52 115.33 511.24 115.33"/>
  <path d="M526.52,112.51c0.26-2.43-3-3.33-3.7-1.11a3.45,3.45,0,0,0-.21,1.11h3.91m2.38,3.65a4.24,4.24,0,0,1-4.33,2.75c-3.17-.11-4.7-2-4.7-5.28s1.58-5.18,4.75-5.18,4.38,2.38,4.44,5.71h-6.45c0,1.64.42,2.91,2.06,3a1.63,1.63,0,0,0,1.8-1.16Z" transform="translate(-4.5 -3.36)"/>
  <path d="M536.19,119.22c-0.79,2.27-2.27,4-5.49,3.28v-1.85a2.37,2.37,0,0,0,3.12-2.06l-4-9.93h2.75l2.54,7.82c0.63-2.75,1.48-5.28,2.32-7.82h2.69" transform="translate(-4.5 -3.36)"/>
  <rect x="553.53" y="96.76" width="109.68" height="29.64" fill="#fff"/>
  <rect x="553.53" y="96.76" width="109.68" height="29.64" fill="none" stroke="#000" stroke-miterlimit="10" stroke-width="0.9"/>
  <path d="M586.05,117.11c1.85,0,2.38-1.48,2.38-3.43,0-2.11-.53-3.43-2.27-3.43s-2.38,1.37-2.38,3.43c0,1.9.53,3.43,2.27,3.43m0.05-8.66c3.38,0,5.07,1.9,5.07,5.23s-1.85,5.23-5.12,5.23-5-1.9-5-5.23S582.83,108.44,586.11,108.44Z" transform="translate(-4.5 -3.36)"/>
  <path d="M599,110.77c-2.06-.63-3.17.69-3.17,3v4.91h-2.64l-0.05-10h2.48a13.22,13.22,0,0,0,.16,2.11c0.32-1.48,1.43-2.8,3.22-2.17v2.17" transform="translate(-4.5 -3.36)"/>
  <path d="M604.81,117.11c1.74,0,2.11-1.58,2.17-3.49s-0.48-3.38-2.17-3.38-2,1.58-2.06,3.43c0,2.27.69,3.43,2.06,3.43m-0.9-8.66a3.22,3.22,0,0,1,3.06,1.8l-0.05-5.34h2.64l0.05,13.79h-2.54a14.36,14.36,0,0,0-.16-1.64,3.15,3.15,0,0,1-3.22,1.85c-2.75,0-3.59-2.38-3.65-5.23S601.06,108.55,603.91,108.44Z" transform="translate(-4.5 -3.36)"/>
  <path d="M618.23,112.51c0.26-2.43-3-3.33-3.7-1.11a3.45,3.45,0,0,0-.21,1.11h3.91m2.38,3.65a4.24,4.24,0,0,1-4.33,2.75c-3.17-.11-4.7-2-4.7-5.28s1.58-5.18,4.75-5.18,4.38,2.38,4.44,5.71h-6.45c0,1.64.42,2.91,2.06,3a1.63,1.63,0,0,0,1.8-1.16Z" transform="translate(-4.5 -3.36)"/>
  <path d="M628.53,110.77c-2.06-.63-3.17.69-3.17,3v4.91h-2.64l-0.05-10h2.48a13.22,13.22,0,0,0,.16,2.11c0.32-1.48,1.43-2.8,3.22-2.17v2.17" transform="translate(-4.5 -3.36)"/>
  <polyline points="625.56 115.33 625.56 108.78 625.56 102.23 628.31 102.23 628.31 108.78 628.31 115.33 625.56 115.33"/>
  <path d="M639.62,117.11c1.74,0,2.11-1.58,2.17-3.49s-0.48-3.38-2.17-3.38-2,1.58-2.06,3.43c0,2.27.69,3.43,2.06,3.43m-0.9-8.66a3.22,3.22,0,0,1,3.06,1.8l-0.05-5.34h2.64l0.05,13.79H641.9a14.36,14.36,0,0,0-.16-1.64,3.15,3.15,0,0,1-3.22,1.85c-2.75,0-3.59-2.38-3.65-5.23S635.87,108.55,638.73,108.44Z" transform="translate(-4.5 -3.36)"/>
  <rect x="663.21" y="96.76" width="109.68" height="29.64" fill="#fff"/>
  <rect x="663.21" y="96.76" width="109.68" height="29.64" fill="none" stroke="#000" stroke-miterlimit="10" stroke-width="0.9"/>
  <path d="M696.69,111.4c0.05-1.53-3.7-1.8-3.75-.21,0.79,2.43,6.23.37,6.29,4.54,0.05,4.38-8.66,4-9.09.48l2.27-.37c0.21,1,1.06,1.32,2.32,1.32,1.74,0.42,3-1.58,1.27-2.17-2.27-.74-5.39-0.58-5.49-3.49-0.11-4.23,8.14-3.91,8.51-.37" transform="translate(-4.5 -3.36)"/>
  <path d="M706.51,119.22c-0.79,2.27-2.27,4-5.49,3.28v-1.85a2.37,2.37,0,0,0,3.12-2.06l-4-9.93h2.75l2.54,7.82c0.63-2.75,1.48-5.28,2.32-7.82h2.69" transform="translate(-4.5 -3.36)"/>
  <path d="M722.2,110.4c-2.8.48-1.48,5.28-1.8,8.29h-2.59V113c0.05-1.43-.26-2.59-1.53-2.64-2.8.53-1.43,5.28-1.74,8.29H711.9l-0.05-10h2.48a11.9,11.9,0,0,0,.16,2c0.53-2.8,5.34-3,5.71,0,0.69-1.16,1.27-2.27,3.12-2.22,4.33,0.05,2.69,6.13,3,10.25h-2.59V113c-0.05-1.32-.26-2.54-1.53-2.64" transform="translate(-4.5 -3.36)"/>
  <path d="M733.51,117.11c1.64,0,2.11-1.43,2.11-3.49s-0.37-3.33-2.06-3.33-2.17,1.48-2.17,3.43,0.42,3.38,2.11,3.38m1.11-8.66c2.75,0,3.7,2.27,3.7,5.18s-1,5.23-3.86,5.28a3.23,3.23,0,0,1-3.06-1.85l-0.11,1.64h-2.54l0.05-13.79h2.64v5.49A3.2,3.2,0,0,1,734.62,108.44Z" transform="translate(-4.5 -3.36)"/>
  <path d="M744.81,117.11c1.85,0,2.38-1.48,2.38-3.43,0-2.11-.53-3.43-2.27-3.43s-2.38,1.37-2.38,3.43c0,1.9.53,3.43,2.27,3.43m0.05-8.66c3.38,0,5.07,1.9,5.07,5.23s-1.85,5.23-5.12,5.23-5-1.9-5-5.23S741.59,108.44,744.87,108.44Z" transform="translate(-4.5 -3.36)"/>
  <polyline points="747.45 115.33 747.45 108.44 747.45 101.55 750.09 101.55 750.09 108.44 750.09 115.33 747.45 115.33"/>
  <rect x="772.89" y="96.76" width="109.68" height="29.64" fill="#fff"/>
  <rect x="772.89" y="96.76" width="109.68" height="29.64" fill="none" stroke="#000" stroke-miterlimit="10" stroke-width="0.9"/>
  <path d="M815.69,117.11c1.74,0,2.06-1.64,2.11-3.49,0-2-.48-3.38-2.11-3.38-3,0-2.91,6.87,0,6.87m1.11-8.66c2.8,0,3.7,2.32,3.7,5.18s-1,5.18-3.86,5.28c-1.64.05-2.38-.9-3.12-1.8,0.16,1.74.11,3.65,0.11,5.55H811l-0.05-14h2.54a14.37,14.37,0,0,0,.16,1.64A3.06,3.06,0,0,1,816.8,108.44Z" transform="translate(-4.5 -3.36)"/>
  <path d="M828.37,110.77c-2.06-.63-3.17.69-3.17,3v4.91h-2.64l-0.05-10H825a13.21,13.21,0,0,0,.16,2.11c0.32-1.48,1.43-2.8,3.22-2.17v2.17" transform="translate(-4.5 -3.36)"/>
  <path d="M830,118.69v-10h2.64v10H830m0-11.83v-2h2.64v2H830Z" transform="translate(-4.5 -3.36)"/>
  <path d="M844,115.36c-0.37,2.22-2,3.54-4.54,3.54-3.12,0-4.44-2-4.75-5.18-0.63-5.81,8.14-7.24,9.19-1.9l-2.59.11a1.77,1.77,0,0,0-1.85-1.69c-1.58,0-1.85,1.48-2,3.38-0.32,3.91,3.43,4.6,3.91,1.58" transform="translate(-4.5 -3.36)"/>
  <path d="M851.88,112.51c0.26-2.43-3-3.33-3.7-1.11a3.46,3.46,0,0,0-.21,1.11h3.91m2.38,3.65a4.24,4.24,0,0,1-4.33,2.75c-3.17-.11-4.7-2-4.7-5.28s1.58-5.18,4.75-5.18,4.38,2.38,4.44,5.71H848c0,1.64.42,2.91,2.06,3a1.63,1.63,0,0,0,1.8-1.16Z" transform="translate(-4.5 -3.36)"/>
  <rect x="443.85" y="126.4" width="109.61" height="29.64" fill="#ccc"/>
  <rect x="443.85" y="126.4" width="109.61" height="29.64" fill="none" stroke="#000" stroke-miterlimit="10" stroke-width="0.9"/>
  <polyline points="449.99 144.98 449.99 144.26 449.99 143.55 453.37 143.55 453.37 138.53 453.37 133.51 450.41 135.57 450.41 134.81 450.41 134.04 453.48 131.88 455.01 131.88 455.01 137.71 455.01 143.55 458.23 143.55 458.23 144.26 458.23 144.98 449.99 144.98"/>
  <path d="M470.24,137.13a83.12,83.12,0,0,1-4.65,6.92h4.65v-6.92m1.58,8.24v3h-1.58v-3h-6.18v-1.32l6-8.82h1.74v8.82h1.85v1.32h-1.85Z" transform="translate(-4.5 -3.36)"/>
  <path d="M477.05,140.83c2.54-1.85,7.24-.42,6.92,3.22,0.58,5.23-8.14,6-9,1.37l1.69-.21a2.55,2.55,0,0,0,2.75,2c1.85-.05,2.69-1.16,2.85-3.06,0.21-2.91-3.86-3.43-5.23-1.8h-1.64l0.42-7.08h7.45v1.43h-5.92" transform="translate(-4.5 -3.36)"/>
  <path d="M490,147.17c2.48,0,2.85-2.59,2.85-5.39s-0.21-5.39-2.8-5.39-2.91,2.54-2.91,5.39,0.26,5.39,2.85,5.39m0.05-12.1c3.59,0,4.49,2.91,4.49,6.71s-1.06,6.76-4.54,6.76-4.54-3-4.54-6.76S486.4,135.07,490.1,135.07Z" transform="translate(-4.5 -3.36)"/>
  <path d="M498.18,140.83c2.54-1.85,7.24-.42,6.92,3.22,0.58,5.23-8.14,6-9,1.37l1.69-.21a2.55,2.55,0,0,0,2.75,2c1.85-.05,2.69-1.16,2.85-3.06,0.21-2.91-3.86-3.43-5.23-1.8h-1.64l0.42-7.08h7.45v1.43h-5.92" transform="translate(-4.5 -3.36)"/>
  <path d="M512.55,141.63c1.74,0.32,3.06,1.06,3.06,3.12,0,4.65-7.34,4.86-8.66,1.53a5.37,5.37,0,0,1-.32-1.32l1.69-.16a2.62,2.62,0,0,0,2.85,2.32c1.69,0,2.75-.79,2.75-2.43,0-2-1.9-2.43-4.17-2.27v-1.48c2.06,0.05,3.8-.21,3.8-2.22a2.16,2.16,0,0,0-2.43-2.27,2.32,2.32,0,0,0-2.59,2.17l-1.69-.16c0.32-2.22,1.85-3.33,4.28-3.38s4.17,1.11,4.17,3.43c0,1.9-1.11,2.75-2.75,3.12" transform="translate(-4.5 -3.36)"/>
  <path d="M521.75,147.17c2.48,0,2.85-2.59,2.85-5.39s-0.21-5.39-2.8-5.39-2.91,2.54-2.91,5.39,0.26,5.39,2.85,5.39m0.05-12.1c3.59,0,4.49,2.91,4.49,6.71s-1.06,6.76-4.54,6.76-4.54-3-4.54-6.76S518.1,135.07,521.8,135.07Z" transform="translate(-4.5 -3.36)"/>
  <path d="M532.36,147.28c1.85,0,2.69-1,2.69-2.75,0-1.58-1-2.43-2.8-2.43s-2.69.9-2.69,2.48c0,1.8,1,2.69,2.8,2.69m-0.05-6.45a2.08,2.08,0,0,0,2.43-2.32c0-1.48-.9-2.27-2.48-2.22s-2.43.69-2.38,2.22A2.17,2.17,0,0,0,532.31,140.83Zm1.8,0.58c1.48,0.48,2.75,1.27,2.69,3.28-0.05,2.64-1.8,3.86-4.49,3.86s-4.38-1.22-4.44-3.86a3.09,3.09,0,0,1,2.59-3.22c-4-1.32-2.38-6.66,1.8-6.39,2.43,0.16,4.12,1,4.17,3.33A2.78,2.78,0,0,1,534.11,141.41Z" transform="translate(-4.5 -3.36)"/>
  <polyline points="534.84 144.98 534.84 143.97 534.84 142.97 536.63 142.97 536.63 143.97 536.63 144.98 534.84 144.98"/>
  <polyline points="540.12 144.98 540.12 143.97 540.12 142.97 541.92 142.97 541.92 143.97 541.92 144.98 540.12 144.98"/>
  <polyline points="545.4 144.98 545.4 143.97 545.4 142.97 547.2 142.97 547.2 143.97 547.2 144.98 545.4 144.98"/>
  <rect x="553.46" y="126.4" width="109.68" height="29.64" fill="#fff"/>
  <rect x="553.46" y="126.4" width="109.68" height="29.64" fill="none" stroke="#000" stroke-miterlimit="10" stroke-width="0.9"/>
  <polyline points="604.56 144.98 604.56 144.26 604.56 143.55 607.94 143.55 607.94 138.53 607.94 133.51 604.98 135.57 604.98 134.81 604.98 134.04 608.04 131.88 609.58 131.88 609.58 137.71 609.58 143.55 612.8 143.55 612.8 144.26 612.8 144.98 604.56 144.98"/>
  <rect x="663.47" y="126.07" width="109.68" height="29.64" fill="#fff"/>
  <rect x="663.47" y="126.07" width="109.68" height="29.64" fill="none" stroke="#000" stroke-miterlimit="10" stroke-width="0.9"/>
  <path d="M709.77,148l0.11-11.52c-1.22,4-2.85,7.66-4.23,11.52h-1.22l-4.28-11.52L700.21,148h-1.53V134.9H701l4.07,11.15c1.11-4,2.69-7.4,4-11.15h2.27V148h-1.58" transform="translate(-4.5 -3.36)"/>
  <path d="M722.66,138c-0.26-2.54-6.5-2.85-6.55.11,0.74,4,8.35.74,8.61,6.29,0.16,4.12-6.39,4.6-9.25,2.91a3.78,3.78,0,0,1-1.74-2.43l1.74-.37c0.26,3,7.45,3.33,7.45-.05,0-4.12-8.19-.74-8.56-6.23-0.26-4.33,7.66-4.44,9.46-1.8a5,5,0,0,1,.58,1.32" transform="translate(-4.5 -3.36)"/>
  <polyline points="724.39 133.03 724.39 135.46 724.39 137.89 731.68 137.89 731.68 138.63 731.68 139.37 724.39 139.37 724.39 142.01 724.39 144.65 722.65 144.65 722.65 138.1 722.65 131.55 731.89 131.55 731.89 132.29 731.89 133.03 724.39 133.03"/>
  <polyline points="739.34 133.03 739.34 138.84 739.34 144.65 737.55 144.65 737.55 138.84 737.55 133.03 733.06 133.03 733.06 132.29 733.06 131.55 743.84 131.55 743.84 132.29 743.84 133.03 739.34 133.03"/>
  <rect x="772.82" y="126.4" width="109.68" height="29.64" fill="#fff"/>
  <rect x="772.82" y="126.4" width="109.68" height="29.64" fill="none" stroke="#000" stroke-miterlimit="10" stroke-width="0.9"/>
  <path d="M828.38,141.63c1.74,0.32,3.06,1.06,3.06,3.12,0,4.65-7.34,4.86-8.66,1.53a5.37,5.37,0,0,1-.32-1.32l1.69-.16a2.62,2.62,0,0,0,2.85,2.32c1.69,0,2.75-.79,2.75-2.43,0-2-1.9-2.43-4.17-2.27v-1.48c2.06,0.05,3.8-.21,3.8-2.22a2.16,2.16,0,0,0-2.43-2.27,2.32,2.32,0,0,0-2.59,2.17l-1.69-.16c0.32-2.22,1.85-3.33,4.28-3.38s4.17,1.11,4.17,3.43c0,1.9-1.11,2.75-2.75,3.12" transform="translate(-4.5 -3.36)"/>
  <path d="M837.57,147.17c2.48,0,2.85-2.59,2.85-5.39s-0.21-5.39-2.8-5.39-2.91,2.54-2.91,5.39,0.26,5.39,2.85,5.39m0.05-12.1c3.59,0,4.49,2.91,4.49,6.71s-1.06,6.76-4.54,6.76-4.54-3-4.54-6.76S833.93,135.07,837.62,135.07Z" transform="translate(-4.5 -3.36)"/>
  <rect x="443.91" y="156.04" width="109.61" height="29.64" fill="#ccc"/>
  <rect x="443.91" y="156.04" width="109.61" height="29.64" fill="none" stroke="#000" stroke-miterlimit="10" stroke-width="0.9"/>
  <path d="M458.47,176.86c1.85,0,2.69-1,2.69-2.75,0-1.58-1-2.43-2.8-2.43s-2.69.9-2.69,2.48c0,1.8,1,2.69,2.8,2.69m-0.05-6.45a2.08,2.08,0,0,0,2.43-2.32c0-1.48-.9-2.27-2.48-2.22s-2.43.69-2.38,2.22A2.17,2.17,0,0,0,458.41,170.41Zm1.8,0.58c1.48,0.48,2.75,1.27,2.69,3.28-0.05,2.64-1.8,3.86-4.49,3.86s-4.38-1.22-4.44-3.86a3.09,3.09,0,0,1,2.59-3.22c-4-1.32-2.38-6.66,1.8-6.39,2.43,0.16,4.12,1,4.17,3.33A2.78,2.78,0,0,1,460.21,171Z" transform="translate(-4.5 -3.36)"/>
  <path d="M469.14,176.75c1.8,0,2.59-1.22,2.59-3.06s-0.85-3-2.64-3a2.34,2.34,0,0,0-2.59,2.59c0.05,1.9.79,3.43,2.64,3.43m0.37-7.29c2.54,0.05,3.91,1.58,3.91,4.17,0,2.8-1.48,4.49-4.23,4.49-3.43,0-4.38-2.91-4.54-6.45-0.26-4.75,2.64-8.56,7-6.45a3,3,0,0,1,1.43,2.06l-1.64.32c-0.26-2.11-3.54-2-4.33-.32a9.16,9.16,0,0,0-.79,3.91A3.26,3.26,0,0,1,469.51,169.46Z" transform="translate(-4.5 -3.36)"/>
  <path d="M479.71,176.75c1.8,0,2.59-1.22,2.59-3.06s-0.85-3-2.64-3a2.34,2.34,0,0,0-2.59,2.59c0.05,1.9.79,3.43,2.64,3.43m0.37-7.29c2.54,0.05,3.91,1.58,3.91,4.17,0,2.8-1.48,4.49-4.23,4.49-3.43,0-4.38-2.91-4.54-6.45-0.26-4.75,2.64-8.56,7-6.45a3,3,0,0,1,1.43,2.06l-1.64.32c-0.26-2.11-3.54-2-4.33-.32a9.16,9.16,0,0,0-.79,3.91A3.26,3.26,0,0,1,480.07,169.46Z" transform="translate(-4.5 -3.36)"/>
  <path d="M490.11,176.75c2.48,0,2.85-2.59,2.85-5.39s-0.21-5.39-2.8-5.39-2.91,2.54-2.91,5.39,0.26,5.39,2.85,5.39m0.05-12.1c3.59,0,4.49,2.91,4.49,6.71s-1.06,6.76-4.54,6.76-4.54-3-4.54-6.76S486.47,164.65,490.17,164.65Z" transform="translate(-4.5 -3.36)"/>
  <path d="M498.25,170.41c2.54-1.85,7.24-.42,6.92,3.22,0.58,5.23-8.14,6-9,1.37l1.69-.21a2.55,2.55,0,0,0,2.75,2c1.85-.05,2.69-1.16,2.85-3.06,0.21-2.91-3.86-3.43-5.23-1.8h-1.64l0.42-7.08h7.45v1.43h-5.92" transform="translate(-4.5 -3.36)"/>
  <path d="M511.4,176.75c1.8,0,2.59-1.22,2.59-3.06s-0.85-3-2.64-3a2.34,2.34,0,0,0-2.59,2.59c0.05,1.9.79,3.43,2.64,3.43m0.37-7.29c2.54,0.05,3.91,1.58,3.91,4.17,0,2.8-1.48,4.49-4.23,4.49-3.43,0-4.38-2.91-4.54-6.45-0.26-4.75,2.64-8.56,7-6.45a3,3,0,0,1,1.43,2.06l-1.64.32c-0.26-2.11-3.54-2-4.33-.32a9.16,9.16,0,0,0-.79,3.91A3.26,3.26,0,0,1,511.77,169.46Z" transform="translate(-4.5 -3.36)"/>
  <polyline points="513.45 174.56 513.45 173.84 513.45 173.13 516.84 173.13 516.84 168.11 516.84 163.09 513.88 165.15 513.88 164.38 513.88 163.62 516.94 161.45 518.47 161.45 518.47 167.29 518.47 173.13 521.7 173.13 521.7 173.84 521.7 174.56 513.45 174.56"/>
  <path d="M529.95,170.41c2.54-1.85,7.24-.42,6.92,3.22,0.58,5.23-8.14,6-9,1.37l1.69-.21a2.55,2.55,0,0,0,2.75,2c1.85-.05,2.69-1.16,2.85-3.06,0.21-2.91-3.86-3.43-5.23-1.8h-1.64l0.42-7.08h7.45v1.43h-5.92" transform="translate(-4.5 -3.36)"/>
  <polyline points="534.9 174.56 534.9 173.55 534.9 172.55 536.7 172.55 536.7 173.55 536.7 174.56 534.9 174.56"/>
  <polyline points="540.19 174.56 540.19 173.55 540.19 172.55 541.98 172.55 541.98 173.55 541.98 174.56 540.19 174.56"/>
  <polyline points="545.47 174.56 545.47 173.55 545.47 172.55 547.27 172.55 547.27 173.55 547.27 174.56 545.47 174.56"/>
  <rect x="553.53" y="156.04" width="109.68" height="29.64" fill="#ffc"/>
  <rect x="553.53" y="156.04" width="109.68" height="29.64" fill="none" stroke="#000" stroke-miterlimit="10" stroke-width="0.9"/>
  <path d="M605.13,164.65c4.33-.37,4.91,4.6,2.27,7l-3.28,2.91a6.14,6.14,0,0,0-1.53,2h6.82v1.43h-8.66c0.11-5.23,6.76-5,6.76-9.62a2.09,2.09,0,0,0-2.38-2.27,2.32,2.32,0,0,0-2.59,2.17l-1.69-.16c0.32-2.17,1.8-3.17,4.28-3.38" transform="translate(-4.5 -3.36)"/>
  <rect x="594.34" y="168.47" width="12.47" height="1.39"/>
  <path d="M621,164.65c4.33-.37,4.91,4.6,2.27,7L620,174.53a6.14,6.14,0,0,0-1.53,2h6.82v1.43h-8.66c0.11-5.23,6.76-5,6.76-9.62A2.09,2.09,0,0,0,621,166a2.32,2.32,0,0,0-2.59,2.17l-1.69-.16c0.32-2.17,1.8-3.17,4.28-3.38" transform="translate(-4.5 -3.36)"/>
  <rect x="663.21" y="156.04" width="109.68" height="29.64" fill="#ffc"/>
  <rect x="663.21" y="156.04" width="109.68" height="29.64" fill="none" stroke="#000" stroke-miterlimit="10" stroke-width="0.9"/>
  <polyline points="683.53 174.56 683.53 168 683.53 161.45 685.33 161.45 685.33 168 685.33 174.56 683.53 174.56"/>
  <path d="M694.9,176.49c2.91-.11,6.55.74,6.55-2.38,0-3-3.7-2.22-6.55-2.32v4.7m0-6.08c2.64-.05,5.81.48,5.81-2.22,0-2.48-3.33-1.9-5.81-2v4.17ZM700,171c1.85,0.26,3.22,1.22,3.22,3.22,0,4.6-5.6,3.59-10.09,3.7v-13.1c4,0.16,9.35-.9,9.35,3.17A2.9,2.9,0,0,1,700,171Z" transform="translate(-4.5 -3.36)"/>
  <path d="M716.93,177.91L717,166.4c-1.22,4-2.85,7.66-4.23,11.52h-1.22l-4.28-11.52,0.05,11.52h-1.53v-13.1h2.32L712.23,176c1.11-4,2.69-7.4,4-11.15h2.27v13.1h-1.58" transform="translate(-4.5 -3.36)"/>
  <rect x="680.83" y="168.47" width="40.94" height="1.39"/>
  <polyline points="722.59 174.56 722.59 168 722.59 161.45 724.39 161.45 724.39 168 724.39 174.56 722.59 174.56"/>
  <path d="M734,176.49c2.91-.11,6.55.74,6.55-2.38,0-3-3.7-2.22-6.55-2.32v4.7m0-6.08c2.64-.05,5.81.48,5.81-2.22,0-2.48-3.33-1.9-5.81-2v4.17Zm5.12,0.58c1.85,0.26,3.22,1.22,3.22,3.22,0,4.6-5.6,3.59-10.09,3.7v-13.1c4,0.16,9.35-.9,9.35,3.17A2.9,2.9,0,0,1,739.09,171Z" transform="translate(-4.5 -3.36)"/>
  <path d="M756,177.91l0.11-11.52c-1.22,4-2.85,7.66-4.23,11.52h-1.22l-4.28-11.52,0.05,11.52H744.9v-13.1h2.32L751.29,176c1.11-4,2.69-7.4,4-11.15h2.27v13.1H756" transform="translate(-4.5 -3.36)"/>
  <rect x="772.89" y="156.04" width="109.68" height="29.64" fill="#ffc"/>
  <rect x="772.89" y="156.04" width="109.68" height="29.64" fill="none" stroke="#000" stroke-miterlimit="10" stroke-width="0.9"/>
  <polyline points="800.2 174.56 800.2 173.84 800.2 173.13 803.59 173.13 803.59 168.11 803.59 163.09 800.63 165.15 800.63 164.38 800.63 163.62 803.69 161.45 805.22 161.45 805.22 167.29 805.22 173.13 808.45 173.13 808.45 173.84 808.45 174.56 800.2 174.56"/>
  <path d="M819.18,164.65c4.33-.37,4.91,4.6,2.27,7l-3.28,2.91a6.14,6.14,0,0,0-1.53,2h6.82v1.43H814.8c0.11-5.23,6.76-5,6.76-9.62a2.09,2.09,0,0,0-2.38-2.27,2.32,2.32,0,0,0-2.59,2.17L814.9,168c0.32-2.17,1.8-3.17,4.28-3.38" transform="translate(-4.5 -3.36)"/>
  <path d="M829.69,176.75c2.48,0,2.85-2.59,2.85-5.39s-0.21-5.39-2.8-5.39-2.91,2.54-2.91,5.39,0.26,5.39,2.85,5.39m0.05-12.1c3.59,0,4.49,2.91,4.49,6.71s-1.06,6.76-4.54,6.76-4.54-3-4.54-6.76S826,164.65,829.75,164.65Z" transform="translate(-4.5 -3.36)"/>
  <rect x="797.83" y="168.47" width="33.6" height="1.39"/>
  <path d="M845.48,172.1a2.47,2.47,0,0,0,2.69-2.59c0-1.9-.74-3.54-2.69-3.54-1.8,0-2.59,1.22-2.59,3.06s0.79,3.06,2.59,3.06m0.05-7.45c3.38,0,4.44,2.64,4.44,6.45,0,4.86-2.8,8.56-7.18,6.39a3.15,3.15,0,0,1-1.32-2.11l1.58-.26c0.32,2.06,3.65,2.06,4.44.37a9.12,9.12,0,0,0,.85-3.91,3.3,3.3,0,0,1-3.28,1.85c-2.59,0-3.86-1.74-3.86-4.38C841.2,166.18,842.68,164.65,845.53,164.65Z" transform="translate(-4.5 -3.36)"/>
  <path d="M853.72,170.41c2.54-1.85,7.24-.42,6.92,3.22,0.58,5.23-8.14,6-9,1.37l1.69-.21a2.55,2.55,0,0,0,2.75,2c1.85-.05,2.69-1.16,2.85-3.06,0.21-2.91-3.86-3.43-5.23-1.8H852l0.42-7.08h7.45v1.43H854" transform="translate(-4.5 -3.36)"/>
  <polyline points="143.92 82.66 143.99 86.02 144.19 89.18 144.52 92.08 144.91 94.85 145.44 97.48 146.03 99.99 146.69 102.36 147.41 104.6 148.21 106.77 149.13 108.88 150.05 110.92 151.1 112.9 152.22 114.87 153.41 116.78 154.73 118.63 156.11 120.41 157.63 122.25 159.21 124.03 160.92 125.81 162.76 127.52 164.81 129.3 166.98 131.01 169.42 132.79 172.05 134.5 174.95 136.28 178.11 138 181.74 139.77 185.69 141.55 190.23 143.33 195.37 145.11 201.3 146.95 208.22 148.67 216.38 150.44 226.27 152.09 238.65 153.67 254.86 154.99 279.3 155.98 303.47 156.18" fill="none" stroke="#000" stroke-miterlimit="10" stroke-width="0.9"/>
  <polygon points="143.26 82.73 143.26 82.66 143.99 82.66 143.26 82.73"/>
  <polygon points="303.47 156.18 294.05 159.14 294.12 153.01 303.47 156.18"/>
  <path d="M299.21,161.58l6.65-2-6.59-2.24Zm8.83-2.7-0.07.66v0.66l-10.08,3.23,0.07-7.9Z" transform="translate(-4.5 -3.36)"/>
  <polyline points="424.94 156.18 426.39 156.31 427.64 156.64 428.89 157.23 430.15 158.09 431.73 159.67 438.71 168.96 439.96 169.81 441.15 170.41 442.46 170.73 443.91 170.87" fill="none" stroke="#000" stroke-miterlimit="10" stroke-width="0.9"/>
  <polygon points="425.27 155.65 424.94 156.18 424.94 155.98 424.88 155.39 425.27 155.65"/>
  <polygon points="443.91 170.87 434.43 168.03 437.85 163.03 443.91 170.87"/>
  <path d="M440,171.06l6.65,1.91-4.28-5.47Zm8.43,2v1.78l-10.54-3.1,4.41-6.52Z" transform="translate(-4.5 -3.36)"/>
  <rect x="15.93" y="38.53" width="255.99" height="44.14" fill="#fff"/>
  <rect x="15.93" y="38.53" width="255.99" height="44.14" fill="none" stroke="#000" stroke-miterlimit="10" stroke-width="0.9"/>
  <path d="M38.36,66.48c2,0,2.37-1.39,2.37-3.35s-0.36-3.35-2.28-3.35-2.37,1.43-2.37,3.35,0.45,3.31,2.28,3.35m0-7.78c2.77,0,3.8,1.65,3.8,4.43S41,67.55,38.36,67.55s-3.71-1.74-3.76-4.43C34.61,60.17,35.86,58.7,38.41,58.7Z" transform="translate(-4.5 -3.36)"/>
  <path d="M48,60.09c-3.49-.72-2.37,4.07-2.55,7.29H44l0-8.5H45.3a10.83,10.83,0,0,0,.09,1.74c0.27-1.21,1-2.19,2.59-1.83v1.3" transform="translate(-4.5 -3.36)"/>
  <path d="M52.41,59.77c-1.79,0-2.06,1.52-2.06,3.35s0.27,3.31,2,3.31S54.64,65,54.64,63s-0.4-3.31-2.24-3.27M52,58.7a2.83,2.83,0,0,1,2.68,1.48l0-4.47h1.43l0,11.67H54.78A12.16,12.16,0,0,0,54.64,66,2.55,2.55,0,0,1,52,67.55c-2.37,0-3.09-1.74-3.13-4.38C48.87,60.22,49.9,58.7,52,58.7Z" transform="translate(-4.5 -3.36)"/>
  <path d="M63.95,62.32a2.3,2.3,0,0,0-4.34-1.25,3.25,3.25,0,0,0-.27,1.25h4.61M61.62,58.7c2.82,0,3.85,1.88,3.76,4.74h-6c0,1.79.63,3,2.37,3a2.08,2.08,0,0,0,2.19-1.3l1.25,0.36a3.36,3.36,0,0,1-3.44,2c-2.59,0-3.94-1.65-3.89-4.47S59,58.7,61.62,58.7Z" transform="translate(-4.5 -3.36)"/>
  <path d="M71.19,60.09c-3.49-.72-2.37,4.07-2.55,7.29H67.21l0-8.5h1.34a10.83,10.83,0,0,0,.09,1.74c0.27-1.21,1-2.19,2.59-1.83v1.3" transform="translate(-4.5 -3.36)"/>
  <polyline points="68.39 64.02 68.39 58.47 68.39 52.93 69.91 52.93 69.91 58.47 69.91 64.02 68.39 64.02"/>
  <path d="M80.09,59.77c-1.79,0-2.06,1.52-2.06,3.35s0.27,3.31,2,3.31S82.33,65,82.33,63s-0.4-3.31-2.24-3.27m-0.4-1.07a2.83,2.83,0,0,1,2.68,1.48l0-4.47h1.43l0,11.67H82.47A12.16,12.16,0,0,0,82.33,66a2.55,2.55,0,0,1-2.64,1.57c-2.37,0-3.09-1.74-3.13-4.38C76.56,60.22,77.59,58.7,79.69,58.7Z" transform="translate(-4.5 -3.36)"/>
  <path d="M85.64,64.69V63.53h7.78v1.16H85.64m0-4V59.5h7.78v1.16H85.64Z" transform="translate(-4.5 -3.36)"/>
  <path d="M98.75,56.15c3.67-.31,4.16,3.89,1.92,5.9L97.9,64.51a5.2,5.2,0,0,0-1.3,1.65h5.77v1.21H95c0.09-4.43,5.73-4.2,5.73-8.14a1.77,1.77,0,0,0-2-1.92,2,2,0,0,0-2.19,1.83L95.12,59c0.27-1.83,1.52-2.68,3.62-2.86" transform="translate(-4.5 -3.36)"/>
  <path d="M104.65,60.49V58.88h1.57v1.61h-1.57m1.57,5.28a6.46,6.46,0,0,1-.63,3.67h-1a3.38,3.38,0,0,0,.76-2.06h-0.72V65.77h1.57Z" transform="translate(-4.5 -3.36)"/>
  <path d="M113.69,61c-0.13-1.52-3.85-1.7-3.89,0,0.67,2.37,5.14.54,5.32,4s-6.71,3.31-7,.36l1.25-.22c0.18,1.61,4.34,2,4.38,0-0.45-2.5-5.05-.67-5.28-4-0.18-2.55,3.67-2.82,5.46-1.88A2.25,2.25,0,0,1,115,60.8" transform="translate(-4.5 -3.36)"/>
  <path d="M123.71,58.88l-3.85,9.89a3,3,0,0,1-3.62,1.88V69.57c1.74,0.27,2.37-.89,2.86-2.24l-3.35-8.45h1.52l2.55,7,2.42-7h1.48" transform="translate(-4.5 -3.36)"/>
  <path d="M133.14,59.82c-3,.13-1.7,4.7-2,7.56h-1.39V62c0-1.3-.22-2.24-1.57-2.15-3,.18-1.7,4.65-2,7.56h-1.39l0-8.5h1.34a7.23,7.23,0,0,0,.09,1.43c0.45-2,4.43-2.24,4.79,0a2.74,2.74,0,0,1,2.59-1.61c3.8-.09,2.1,5.32,2.46,8.68h-1.39V62c0-1.3-.22-2.19-1.57-2.15" transform="translate(-4.5 -3.36)"/>
  <path d="M141.91,66.48c1.79,0,2-1.52,2-3.35s-0.22-3.35-2-3.31-2.28,1.43-2.28,3.4,0.45,3.27,2.28,3.27m0.36-7.78c2.37,0,3.09,1.74,3.13,4.38,0,3-1,4.47-3.13,4.47A2.58,2.58,0,0,1,139.63,66l-0.09,1.34h-1.39l0-11.67h1.43v4.52A2.52,2.52,0,0,1,142.27,58.7Z" transform="translate(-4.5 -3.36)"/>
  <path d="M150.5,66.48c2,0,2.37-1.39,2.37-3.35s-0.36-3.35-2.28-3.35-2.37,1.43-2.37,3.35,0.45,3.31,2.28,3.35m0-7.78c2.77,0,3.8,1.65,3.8,4.43s-1.21,4.43-3.85,4.43-3.71-1.74-3.76-4.43C146.74,60.17,148,58.7,150.54,58.7Z" transform="translate(-4.5 -3.36)"/>
  <polyline points="151.59 64.02 151.59 58.18 151.59 52.34 153.02 52.34 153.02 58.18 153.02 64.02 151.59 64.02"/>
  <path d="M159.35,64.69V63.53h7.78v1.16h-7.78m0-4V59.5h7.78v1.16h-7.78Z" transform="translate(-4.5 -3.36)"/>
  <polyline points="164.92 64.02 164.92 58.47 164.92 52.93 166.44 52.93 166.44 58.47 166.44 64.02 164.92 64.02"/>
  <path d="M175.23,66.17c2.46-.09,5.55.63,5.55-2s-3.13-1.88-5.55-2v4m0-5.14c2.24,0,4.92.4,4.92-1.88,0-2.1-2.82-1.61-4.92-1.65V61Zm4.34,0.49c1.57,0.22,2.73,1,2.73,2.73,0,3.89-4.74,3-8.54,3.13V56.28c3.4,0.13,7.92-.76,7.92,2.68A2.45,2.45,0,0,1,179.57,61.52Z" transform="translate(-4.5 -3.36)"/>
  <path d="M193.88,67.38L194,57.63c-1,3.4-2.42,6.49-3.58,9.75h-1l-3.62-9.75,0,9.75h-1.3V56.28h2l3.44,9.44c0.94-3.35,2.28-6.26,3.4-9.44h1.92V67.38h-1.34" transform="translate(-4.5 -3.36)"/>
  <path d="M198,60.49V58.88h1.57v1.61H198m1.57,5.28a6.46,6.46,0,0,1-.63,3.67h-1a3.38,3.38,0,0,0,.76-2.06H198V65.77h1.57Z" transform="translate(-4.5 -3.36)"/>
  <path d="M205.78,66.48c1.79,0,2-1.52,2-3.35s-0.27-3.27-2-3.31-2.28,1.43-2.28,3.4,0.45,3.27,2.28,3.27m0.36-7.78c2.46,0,3.13,1.83,3.13,4.38s-0.72,4.38-3.13,4.47A2.74,2.74,0,0,1,203.46,66l0,4.7h-1.43l0-11.85h1.39l0.09,1.34A2.64,2.64,0,0,1,206.14,58.7Z" transform="translate(-4.5 -3.36)"/>
  <path d="M215,60.09c-3.49-.72-2.37,4.07-2.55,7.29h-1.43l0-8.5h1.34a10.83,10.83,0,0,0,.09,1.74c0.27-1.21,1-2.19,2.59-1.83v1.3" transform="translate(-4.5 -3.36)"/>
  <path d="M216.34,67.38v-8.5h1.43v8.5h-1.43m0-10.33V55.7h1.43V57h-1.43Z" transform="translate(-4.5 -3.36)"/>
  <path d="M223.09,59.82c-1.79,0-2.15,1.48-2.15,3.27s0.4,3.35,2.15,3.35a1.78,1.78,0,0,0,1.92-1.7l1.43,0.09a3.07,3.07,0,0,1-3.31,2.73c-2.64,0-3.4-1.83-3.67-4.43C219,59,224,57.27,226,60.26a3.62,3.62,0,0,1,.31,1l-1.43.13a1.71,1.71,0,0,0-1.83-1.57" transform="translate(-4.5 -3.36)"/>
  <path d="M233.65,62.32a2.3,2.3,0,0,0-4.34-1.25,3.25,3.25,0,0,0-.27,1.25h4.61m-2.33-3.62c2.82,0,3.85,1.88,3.76,4.74h-6c0,1.79.63,3,2.37,3a2.08,2.08,0,0,0,2.19-1.3l1.25,0.36a3.36,3.36,0,0,1-3.44,2c-2.59,0-3.94-1.65-3.89-4.47S228.68,58.7,231.32,58.7Z" transform="translate(-4.5 -3.36)"/>
  <path d="M236.6,64.69V63.53h7.78v1.16H236.6m0-4V59.5h7.78v1.16H236.6Z" transform="translate(-4.5 -3.36)"/>
  <path d="M249.57,62.46a2.09,2.09,0,0,0,2.28-2.19c0-1.61-.63-3-2.28-3s-2.19,1-2.19,2.59,0.67,2.59,2.19,2.59m0-6.31c2.86,0,3.76,2.24,3.76,5.46,0,4.12-2.37,7.25-6.08,5.41a2.67,2.67,0,0,1-1.12-1.79l1.34-.22c0.27,1.74,3.09,1.74,3.76.31A7.72,7.72,0,0,0,252,62a2.8,2.8,0,0,1-2.77,1.57c-2.19,0-3.27-1.48-3.27-3.71C245.95,57.45,247.2,56.15,249.62,56.15Z" transform="translate(-4.5 -3.36)"/>
  <path d="M256.55,61c2.15-1.57,6.13-.36,5.86,2.73,0.49,4.43-6.89,5.1-7.65,1.16l1.43-.18a2.16,2.16,0,0,0,2.33,1.65c1.57,0,2.28-1,2.42-2.59,0.18-2.46-3.27-2.91-4.43-1.52h-1.39l0.36-6h6.31v1.21h-5" transform="translate(-4.5 -3.36)"/>
  <path d="M36,41.88c0,8.1-6.92,14.69-15.55,14.69S5,50,5,41.88s6.92-14.76,15.48-14.76S36,33.71,36,41.88Z" transform="translate(-4.5 -3.36)" fill="#ccc"/>
  <path d="M36,41.88c0,8.1-6.92,14.69-15.55,14.69S5,50,5,41.88s6.92-14.76,15.48-14.76S36,33.71,36,41.88Z" transform="translate(-4.5 -3.36)" fill="none" stroke="#000" stroke-miterlimit="10" stroke-width="0.9"/>
  <path d="M21.33,40.57A1.4,1.4,0,0,1,22.74,42c0,2.14-3.39,2.24-4,.71a2.48,2.48,0,0,1-.15-0.61L19.38,42a1.21,1.21,0,0,0,1.32,1.07A1.08,1.08,0,0,0,22,42c0-.93-0.88-1.12-1.93-1V40.25c1,0,1.75-.1,1.75-1a1,1,0,0,0-1.12-1,1.07,1.07,0,0,0-1.19,1L18.7,39.1a1.78,1.78,0,0,1,2-1.56c1.17,0,1.93.51,1.93,1.58a1.38,1.38,0,0,1-1.27,1.44" transform="translate(-4.5 -3.36)"/>
  <rect x="487.92" y="0.45" width="182.21" height="58.43" fill="none" stroke="#000" stroke-miterlimit="10" stroke-width="0.9" opacity="0"/>
  <path d="M557.13,31l-3.62-9.48C552.59,25,551.12,27.86,550,31h7.17m2.93,7.63-2.16-5.55h-8.71L547,38.65h-2.7l7.78-19.11h2.93l7.63,19.11h-2.62Z" transform="translate(-4.5 -3.36)"/>
  <path d="M581.26,38.65l0.15-16.8c-1.77,5.86-4.16,11.18-6.17,16.8h-1.77l-6.24-16.8,0.08,16.8h-2.24V19.54h3.39L574.4,35.8C576,30,578.33,25,580.25,19.54h3.31V38.65h-2.31" transform="translate(-4.5 -3.36)"/>
  <path d="M590.66,29.17c4.39,0,9.56.85,9.56-3.85,0-4.55-5.24-3.62-9.56-3.7v7.55m-2.54-9.63c6.71,0.08,14.72-1.16,14.72,5.78,0,6-5.93,6.17-12.18,5.86v7.48h-2.54V19.54Z" transform="translate(-4.5 -3.36)"/>
  <path d="M618.56,24.09c-0.39-3.7-9.48-4.16-9.56.15,1.08,5.78,12.18,1.08,12.56,9.17,0.23,6-9.33,6.71-13.49,4.24a5.51,5.51,0,0,1-2.54-3.55l2.54-.54c0.39,4.32,10.87,4.86,10.87-.08,0-6-11.95-1.08-12.49-9.09-0.39-6.32,11.18-6.47,13.8-2.62a7.3,7.3,0,0,1,.85,1.93" transform="translate(-4.5 -3.36)"/>
</svg>
